<?xml version="1.0" encoding="iso-8859-1"?>
<!-- Generator: Adobe Illustrator 19.0.0, SVG Export Plug-In . SVG Version: 6.00 Build 0)  -->
<svg version="1.1" id="Layer_1" xmlns="http://www.w3.org/2000/svg" xmlns:xlink="http://www.w3.org/1999/xlink" x="0px" y="0px"
	 viewBox="0 0 512 512" style="enable-background:new 0 0 512 512;" xml:space="preserve">
<path style="fill:#334F55;" d="M451.625,189.742c-5.363-44.596-43.471-78.808-88.958-78.808c-15.067,0-29.675,3.721-42.742,10.829
	c-24.312-38.475-66.021-62.029-110.858-62.029c-58.35,0-109.642,39.454-126.521,96.604C34.396,167.425,0,210.292,0,260.267
	c0,47.358,31.892,89.317,76.8,102.425c0.017,39.983,32.55,72.508,72.533,72.508c20.371,0,39.492-8.467,53.104-23.108
	c20.15,25.35,50.558,40.175,83.429,40.175c41.65,0,79.687-24.667,96.942-62.117c7.363,1.583,14.912,2.383,22.525,2.383
	c58.817,0,106.667-47.85,106.667-106.667C512,244.658,488.471,207.479,451.625,189.742z"/>
<path style="fill:#F1854C;" d="M405.333,375.467c-8.575,0-17.042-1.208-25.167-3.583c-4.296-1.242-8.817,1.008-10.383,5.192
	c-13.046,34.767-46.767,58.125-83.917,58.125c-30.963,0-59.317-15.658-75.854-41.883c-1.546-2.45-4.229-3.95-7.129-3.983
	c-0.029,0-0.058,0-0.087,0c-2.867,0-5.542,1.442-7.121,3.833c-10.317,15.633-27.642,24.967-46.342,24.967
	c-30.583,0-55.467-24.883-55.467-55.467c0-1.908,0.096-3.8,0.288-5.658c0.433-4.317-2.438-8.275-6.675-9.192
	c-40.8-8.9-70.413-45.717-70.413-87.55c0-43.521,31.042-80.617,73.812-88.217c3.3-0.583,5.954-3.05,6.779-6.3
	c13.3-52.371,59.117-88.95,111.408-88.95c41.508,0,79.979,23.317,100.4,60.846c1.154,2.121,3.15,3.65,5.496,4.217
	c2.342,0.55,4.821,0.108,6.817-1.25c12.067-8.25,26.208-12.613,40.887-12.613c38.242,0,70.042,29.867,72.396,67.992
	c0.2,3.229,2.208,6.071,5.187,7.333c33.221,14.071,54.684,46.471,54.684,82.542C494.933,335.275,454.738,375.467,405.333,375.467z"
	/>
<path style="fill:#334F55;" d="M213.333,213.333h-25.6h-51.2h-25.6V230.4H128v12.8c0,16.467,13.437,29.867,29.95,29.867h8.367
	c16.512,0,29.95-13.4,29.95-29.867v-12.8h17.067V213.333z"/>
<path style="fill:#C5D35E;" d="M179.2,243.2c0,7.058-5.779,12.8-12.883,12.8h-8.367c-7.104,0-12.883-5.742-12.883-12.8v-12.8H179.2
	V243.2z"/>
<path style="fill:#334F55;" d="M307.2,213.333h-25.6V230.4h17.067v12.8c0,16.467,13.437,29.867,29.95,29.867h8.367
	c16.512,0,29.95-13.4,29.95-29.867v-12.8H384v-17.067h-25.6H307.2z"/>
<path style="fill:#C5D35E;" d="M349.867,243.2c0,7.058-5.779,12.8-12.883,12.8h-8.367c-7.104,0-12.883-5.742-12.883-12.8v-12.8
	h34.133V243.2z"/>
<path style="fill:#334F55;" d="M264.55,281.6h-34.167c-14.108,0-25.583,11.475-25.583,25.583v34.167
	c0,14.108,11.475,25.583,25.583,25.583h34.167c14.108,0,25.583-11.475,25.583-25.583v-34.167
	C290.133,293.075,278.658,281.6,264.55,281.6z"/>
<path style="fill:#C5D35E;" d="M273.067,341.35c0,4.775-3.742,8.517-8.517,8.517h-34.167c-4.775,0-8.517-3.742-8.517-8.517v-34.167
	c0-4.775,3.742-8.517,8.517-8.517h34.167c4.775,0,8.517,3.742,8.517,8.517V341.35z"/>
<g>
</g>
<g>
</g>
<g>
</g>
<g>
</g>
<g>
</g>
<g>
</g>
<g>
</g>
<g>
</g>
<g>
</g>
<g>
</g>
<g>
</g>
<g>
</g>
<g>
</g>
<g>
</g>
<g>
</g>
</svg>
