<?xml version="1.0" encoding="iso-8859-1"?>
<!-- Generator: Adobe Illustrator 19.0.0, SVG Export Plug-In . SVG Version: 6.00 Build 0)  -->
<svg version="1.1" id="Layer_1" xmlns="http://www.w3.org/2000/svg" xmlns:xlink="http://www.w3.org/1999/xlink" x="0px" y="0px"
	 viewBox="0 0 512 512" style="enable-background:new 0 0 512 512;" xml:space="preserve">
<path style="fill:#334F55;" d="M452.328,277.695h29.299c4.797,0,8.678-3.881,8.678-8.678V147.525c0-4.797-3.881-8.678-8.678-8.678
	h-29.299C423.669,58.046,346.502,0,256,0S88.331,58.046,59.672,138.847H30.373c-4.797,0-8.678,3.881-8.678,8.678v121.492
	c0,4.797,3.881,8.678,8.678,8.678h29.299c19.306,54.431,60.623,98.506,113.212,121.492H65.119
	c-23.941,0-43.424,25.305-43.424,56.407v47.729c0,4.797,3.881,8.678,8.678,8.678h147.525h156.203h147.525
	c4.797,0,8.678-3.881,8.678-8.678v-47.729c0-31.102-19.458-56.407-43.381-56.407H339.116
	C391.706,376.201,433.023,332.125,452.328,277.695z"/>
<g>
	<path style="fill:#D8D8D8;" d="M472.949,156.203v104.136H457.68c4.301-16.648,6.591-34.095,6.591-52.068s-2.29-35.42-6.591-52.068
		H472.949z"/>
	<path style="fill:#D8D8D8;" d="M39.051,260.339V156.203H54.32c-4.301,16.648-6.591,34.095-6.591,52.068s2.29,35.42,6.591,52.068
		H39.051z"/>
</g>
<path style="fill:#EAEAEA;" d="M39.051,455.593c0-21.169,11.941-39.051,26.068-39.051H169.22v78.102H39.051V455.593z"/>
<rect x="186.576" y="416.542" style="fill:#D8D8D8;" width="138.847" height="78.102"/>
<g>
	<path style="fill:#EAEAEA;" d="M472.949,455.593v39.051H342.78v-78.102h104.144C461.034,416.542,472.949,434.424,472.949,455.593z"
		/>
	<path style="fill:#EAEAEA;" d="M256,399.186c-105.271,0-190.915-85.644-190.915-190.915S150.729,17.356,256,17.356
		S446.915,103,446.915,208.271S361.271,399.186,256,399.186z"/>
</g>
<path style="fill:#334F55;" d="M256,112.814c-81.356,0-173.559,0-173.559,104.136c0,95.703,77.856,173.559,173.559,173.559
	s173.559-77.856,173.559-173.559C429.559,112.814,337.356,112.814,256,112.814z"/>
<path style="fill:#EAE8D2;" d="M368.814,143.04v102.774c0,70.212-50.61,127.339-112.814,127.339s-112.814-57.127-112.814-127.339
	V143.04c27.226-11.357,66.004-12.87,112.814-12.87S341.587,131.683,368.814,143.04z"/>
<g>
	<path style="fill:#FFFFFF;" d="M99.797,216.949c0-31.159,9.297-51.113,26.034-63.968v92.833c0,33.326,10.288,63.965,27.381,88.454
		C120.552,305.615,99.797,263.705,99.797,216.949z"/>
	<path style="fill:#FFFFFF;" d="M358.788,334.267c17.094-24.488,27.381-55.128,27.381-88.454v-92.833
		c16.737,12.855,26.034,32.809,26.034,63.968C412.203,263.705,391.448,305.615,358.788,334.267z"/>
</g>
<g>
	<rect x="229.966" y="295.051" style="fill:#334F55;" width="52.068" height="17.356"/>
	<path style="fill:#334F55;" d="M299.39,234.305c9.568,0,17.356-7.788,17.356-17.356h17.356v-17.356h-52.068v17.356
		C282.034,226.517,289.822,234.305,299.39,234.305z"/>
	<path style="fill:#334F55;" d="M195.254,216.949c0,9.568,7.788,17.356,17.356,17.356s17.356-7.788,17.356-17.356v-17.356h-52.068
		v17.356H195.254z"/>
</g>
<g>
</g>
<g>
</g>
<g>
</g>
<g>
</g>
<g>
</g>
<g>
</g>
<g>
</g>
<g>
</g>
<g>
</g>
<g>
</g>
<g>
</g>
<g>
</g>
<g>
</g>
<g>
</g>
<g>
</g>
</svg>
