<?xml version="1.0" encoding="iso-8859-1"?>
<!-- Generator: Adobe Illustrator 19.0.0, SVG Export Plug-In . SVG Version: 6.00 Build 0)  -->
<svg version="1.1" id="Layer_1" xmlns="http://www.w3.org/2000/svg" xmlns:xlink="http://www.w3.org/1999/xlink" x="0px" y="0px"
	 viewBox="0 0 512 512" style="enable-background:new 0 0 512 512;" xml:space="preserve">
<path style="fill:#334F55;" d="M451.617,189.742c-5.358-44.592-43.467-78.808-88.95-78.808c-15.075,0-29.683,3.717-42.742,10.825
	c-24.308-38.475-66.017-62.025-110.858-62.025c-58.358,0-109.642,39.458-126.525,96.608C34.392,167.433,0,210.3,0,260.267
	c0,47.358,31.892,89.317,76.8,102.425c0.017,39.983,32.55,72.508,72.533,72.508c20.375,0,39.492-8.467,53.1-23.108
	c20.15,25.35,50.558,40.175,83.433,40.175c41.65,0,79.683-24.667,96.942-62.117c7.367,1.583,14.908,2.383,22.525,2.383
	c58.817,0,106.667-47.85,106.667-106.667C512,244.658,488.467,207.475,451.617,189.742z"/>
<path style="fill:#E987A6;" d="M405.333,375.467c-8.575,0-17.042-1.208-25.158-3.583c-4.3-1.267-8.817,1.017-10.392,5.192
	c-13.042,34.767-46.767,58.125-83.917,58.125c-30.967,0-59.325-15.658-75.858-41.883c-1.542-2.45-4.233-3.95-7.133-3.983
	c-0.025,0-0.058,0-0.083,0c-2.867,0-5.542,1.442-7.125,3.833c-10.308,15.633-27.625,24.967-46.333,24.967
	c-30.583,0-55.467-24.883-55.467-55.467c0-1.908,0.092-3.8,0.283-5.658c0.433-4.317-2.433-8.275-6.675-9.192
	c-40.8-8.9-70.408-45.717-70.408-87.55c0-43.517,31.042-80.617,73.808-88.217c3.3-0.583,5.95-3.05,6.775-6.3
	c13.308-52.375,59.117-88.95,111.417-88.95c41.508,0,79.983,23.317,100.408,60.842c1.15,2.125,3.15,3.658,5.492,4.225
	c2.375,0.567,4.825,0.117,6.817-1.258c12.058-8.25,26.192-12.608,40.883-12.608c38.242,0,70.042,29.867,72.392,67.992
	c0.2,3.233,2.208,6.067,5.192,7.333c33.217,14.067,54.683,46.467,54.683,82.542C494.933,335.275,454.742,375.467,405.333,375.467z"
	/>
<path style="fill:#334F55;" d="M371.2,247.467c-21.175,0-38.4,15.308-38.4,34.133c0,18.825,17.225,34.133,38.4,34.133
	c21.175,0,38.4-15.308,38.4-34.133C409.6,262.775,392.375,247.467,371.2,247.467z"/>
<path style="fill:#E65F58;" d="M371.2,298.667c-11.767,0-21.333-7.658-21.333-17.067c0-9.408,9.567-17.067,21.333-17.067
	s21.333,7.658,21.333,17.067C392.533,291.008,382.967,298.667,371.2,298.667z"/>
<path style="fill:#334F55;" d="M149.333,247.467c-21.175,0-38.4,15.308-38.4,34.133c0,18.825,17.225,34.133,38.4,34.133
	s38.4-15.308,38.4-34.133C187.733,262.775,170.508,247.467,149.333,247.467z"/>
<path style="fill:#E65F58;" d="M149.333,298.667c-11.767,0-21.333-7.658-21.333-17.067c0-9.408,9.567-17.067,21.333-17.067
	s21.333,7.658,21.333,17.067C170.667,291.008,161.1,298.667,149.333,298.667z"/>
<g>
	<path style="fill:#334F55;" d="M170.667,230.4c0-14.117,11.483-25.6,25.6-25.6s25.6,11.483,25.6,25.6v8.533h17.067V230.4
		c0-23.525-19.142-42.667-42.667-42.667S153.6,206.875,153.6,230.4v8.533h17.067V230.4z"/>
	<path style="fill:#334F55;" d="M349.867,230.4v8.533h17.067V230.4c0-23.525-19.142-42.667-42.667-42.667S281.6,206.875,281.6,230.4
		v8.533h17.067V230.4c0-14.117,11.483-25.6,25.6-25.6S349.867,216.283,349.867,230.4z"/>
	<path style="fill:#334F55;" d="M300.967,318.442c-0.558,0.583-13.958,14.358-40.867,14.358c-19.047,0-33.212-7.017-40.319-11.448
		l5.619-5.619l-12.067-12.067L184.2,332.8l12.067,12.067l11.165-11.165c7.71,5.383,26.393,16.165,52.669,16.165
		c34.742,0,52.633-19.017,53.383-19.825l5.725-6.225L306.8,312.308L300.967,318.442z"/>
</g>
<g>
</g>
<g>
</g>
<g>
</g>
<g>
</g>
<g>
</g>
<g>
</g>
<g>
</g>
<g>
</g>
<g>
</g>
<g>
</g>
<g>
</g>
<g>
</g>
<g>
</g>
<g>
</g>
<g>
</g>
</svg>
