<?xml version="1.0" encoding="iso-8859-1"?>
<!-- Generator: Adobe Illustrator 19.0.0, SVG Export Plug-In . SVG Version: 6.00 Build 0)  -->
<svg version="1.1" id="Layer_1" xmlns="http://www.w3.org/2000/svg" xmlns:xlink="http://www.w3.org/1999/xlink" x="0px" y="0px"
	 viewBox="0 0 512 512" style="enable-background:new 0 0 512 512;" xml:space="preserve">
<path style="fill:#334F55;" d="M507.665,2.994c-2.806-2.801-6.987-3.721-10.697-2.401l-128.774,46.16
	c-34.148-17.274-72.392-26.386-110.905-26.386c-38.924,0-77.538,9.302-111.976,26.926l-130.28-46.7
	c-3.716-1.32-7.892-0.4-10.697,2.401C1.534,5.794,0.599,9.965,1.934,13.696L46.87,139.035
	c-23.175,38.279-35.398,82.129-35.398,127.149C11.472,401.725,121.742,512,257.288,512c135.541,0,245.816-110.275,245.816-245.816
	c0-46.12-12.788-90.881-37.023-129.79l43.985-122.698C511.401,9.965,510.466,5.794,507.665,2.994z"/>
<path style="fill:#C59A83;" d="M445.101,134.204c-1.08,3.021-0.69,6.371,1.065,9.052c23.845,36.568,36.453,79.078,36.453,122.928
	c0,124.248-101.083,225.331-225.331,225.331S31.956,390.432,31.956,266.184c0-42.82,12.058-84.479,34.873-120.478
	c1.69-2.671,2.055-5.961,0.99-8.942L28.536,27.199l114.096,40.899c2.731,0.97,5.746,0.75,8.297-0.62
	c32.482-17.414,69.261-26.626,106.359-26.626c36.713,0,73.147,9.022,105.364,26.106c2.541,1.35,5.541,1.56,8.252,0.59
	l112.561-40.349L445.101,134.204z"/>
<g>
	<path style="fill:#334F55;" d="M165.212,245.809c11.298,0,20.485-9.192,20.485-20.485s-9.187-20.485-20.485-20.485
		s-20.485,9.192-20.485,20.485S153.914,245.809,165.212,245.809z"/>
	<path style="fill:#334F55;" d="M349.574,204.84c-11.298,0-20.485,9.192-20.485,20.485s9.187,20.485,20.485,20.485
		s20.485-9.192,20.485-20.485S360.871,204.84,349.574,204.84z"/>
	<path style="fill:#334F55;" d="M349.574,348.232c0,22.595-18.379,40.969-40.969,40.969s-40.969-18.374-40.969-40.969v-0.829
		c23.345-3.807,40.969-20.352,40.969-40.141c0-22.595-22.975-40.969-51.212-40.969s-51.212,18.374-51.212,40.969
		c0,19.788,17.624,36.334,40.969,40.141v0.829c0,22.595-18.379,40.969-40.969,40.969s-40.969-18.374-40.969-40.969V337.99h-20.485
		v10.242c0,33.888,27.566,61.454,61.454,61.454c21.364,0,40.196-10.968,51.212-27.556c11.016,16.588,29.848,27.556,51.212,27.556
		c33.888,0,61.454-27.566,61.454-61.454V337.99h-20.485V348.232z"/>
</g>
<path style="fill:#C5D35E;" d="M226.666,307.263c0-11.102,14.073-20.485,30.727-20.485s30.727,9.382,30.727,20.485
	c0,11.102-14.073,20.485-30.727,20.485S226.666,318.366,226.666,307.263z"/>
<g>
</g>
<g>
</g>
<g>
</g>
<g>
</g>
<g>
</g>
<g>
</g>
<g>
</g>
<g>
</g>
<g>
</g>
<g>
</g>
<g>
</g>
<g>
</g>
<g>
</g>
<g>
</g>
<g>
</g>
</svg>
