<?xml version="1.0" encoding="iso-8859-1"?>
<!-- Generator: Adobe Illustrator 19.0.0, SVG Export Plug-In . SVG Version: 6.00 Build 0)  -->
<svg version="1.1" id="Layer_1" xmlns="http://www.w3.org/2000/svg" xmlns:xlink="http://www.w3.org/1999/xlink" x="0px" y="0px"
	 viewBox="0 0 512 512" style="enable-background:new 0 0 512 512;" xml:space="preserve">
<path style="fill:#334F55;" d="M412.534,31.465L362.396,1.267C361.025,0.44,359.447,0,357.844,0H158.792
	c-1.534,0-3.052,0.401-4.388,1.164l-54.25,31.043c-24.155,13.815-41.862,46.379-40.327,74.142l6.828,123.655
	c0.258,4.677,4.12,8.341,8.81,8.341h8.397v61.793c0,1.125,0.216,2.237,0.629,3.28l25.741,64.349l-4.284,66.423
	c-0.172,2.677,0.879,5.284,2.862,7.091l75.034,68.414c1.629,1.483,3.75,2.306,5.948,2.306h141.241c2.198,0,4.319-0.823,5.948-2.306
	l75.034-68.414c1.983-1.806,3.034-4.414,2.862-7.091l-4.284-66.423l25.741-64.349c0.414-1.043,0.629-2.155,0.629-3.28v-61.877
	c4.483-0.228,8.129-3.732,8.379-8.256l6.828-123.655C453.706,78.664,436.292,45.771,412.534,31.465z"/>
<path style="fill:#EAE8D2;" d="M419.309,298.44l-25.853,64.625c-0.483,1.224-0.698,2.534-0.612,3.849l4.138,64.181l-69.371,63.25
	H269.24v-26.483h-17.655v26.483h-58.371l-69.371-63.25l4.138-64.181c0.086-1.315-0.129-2.625-0.612-3.849l-25.853-64.625v-60.095
	h1.035l7.861,62.888c0.552,4.418,4.31,7.733,8.759,7.733H233.93c4.052,0,7.578-2.759,8.56-6.685l13.509-54.035l13.509,54.035
	c0.983,3.927,4.508,6.685,8.56,6.685h114.759c4.448,0,8.207-3.315,8.759-7.733l7.861-62.888h9.863L419.309,298.44L419.309,298.44z"
	/>
<rect x="207.222" y="401.649" transform="matrix(-0.9939 0.1104 -0.1104 -0.9939 555.7861 790.1811)" style="fill:#334F55;" width="97.59" height="17.655"/>
<path style="fill:#E6D764;" d="M77.447,105.375c-1.155-20.935,13.259-47.422,31.474-57.841l52.216-29.879h194.25l48.043,28.931
	c18.026,10.858,32.276,37.78,31.121,58.789L428.18,220.69h-0.043h-17.655V105.931c0-1.741-0.517-3.448-1.483-4.897L382.516,61.31
	c-1.75-2.616-4.595-4.168-7.897-3.914c-3.138,0.194-5.939,2.047-7.345,4.862l-24.509,49.017l-42.914,7.802L111.361,97.164
	c-2.509-0.31-5.009,0.5-6.888,2.172c-1.879,1.677-2.957,4.078-2.957,6.595V220.69h-8.828h-8.871L77.447,105.375z"/>
<path style="fill:#EAE8D2;" d="M392.827,220.69H260.413h-8.828H119.172V115.845l179.948,20.922c0.862,0.095,1.741,0.069,2.595-0.082
	l48.552-8.828c2.733-0.496,5.078-2.254,6.319-4.737l19.681-39.362l16.56,24.845L392.827,220.69L392.827,220.69z"/>
<g>
	<polygon style="fill:#83A6E2;" points="240.275,238.345 227.034,291.31 126.964,291.31 120.344,238.345 	"/>
	<polygon style="fill:#83A6E2;" points="391.654,238.345 385.033,291.31 284.965,291.31 271.723,238.345 	"/>
</g>
<g>
	<rect x="295.717" y="256" style="fill:#334F55;" width="70.621" height="17.655"/>
	<rect x="145.655" y="256" style="fill:#334F55;" width="70.621" height="17.655"/>
</g>
<g>
</g>
<g>
</g>
<g>
</g>
<g>
</g>
<g>
</g>
<g>
</g>
<g>
</g>
<g>
</g>
<g>
</g>
<g>
</g>
<g>
</g>
<g>
</g>
<g>
</g>
<g>
</g>
<g>
</g>
</svg>
