<?xml version="1.0" encoding="iso-8859-1"?>
<!-- Generator: Adobe Illustrator 19.0.0, SVG Export Plug-In . SVG Version: 6.00 Build 0)  -->
<svg version="1.1" id="Layer_1" xmlns="http://www.w3.org/2000/svg" xmlns:xlink="http://www.w3.org/1999/xlink" x="0px" y="0px"
	 viewBox="0 0 512 512" style="enable-background:new 0 0 512 512;" xml:space="preserve">
<path style="fill:#334F55;" d="M504.167,211.2c5.05-13.821,7.833-32.004,7.833-51.2c0-38.167-11.517-76.8-33.525-76.8
	c-6.718,0-15.909,3.748-23.338,20.013C412.299,55.329,343.109,27.733,256,27.733S99.701,55.329,56.863,103.213
	C49.434,86.948,40.243,83.2,33.525,83.2C11.517,83.2,0,121.833,0,160c0,19.196,2.783,37.379,7.833,51.2
	c0.4,1.094,1.049,1.998,1.792,2.802c-0.718,7.427-1.092,15.025-1.092,22.798C8.533,373.254,119.55,484.267,256,484.267
	S503.467,373.254,503.467,236.8c0-7.773-0.375-15.371-1.093-22.799C503.117,213.196,503.767,212.293,504.167,211.2z"/>
<g>
	<path style="fill:#E987A6;" d="M17.067,160c0-38.8,11.683-59.733,16.458-59.733c0.925,0,5.283,2.442,9.658,14.396
		c0.434,1.191,1.134,2.19,1.972,3.033c-12.093,16.631-21.374,35.281-27.56,55.725C17.263,169.057,17.067,164.581,17.067,160z"/>
	<path style="fill:#E987A6;" d="M256,467.2c-127.042,0-230.4-103.358-230.4-230.4c0-116.637,90.433-192,230.4-192
		s230.4,75.363,230.4,192C486.4,363.842,383.042,467.2,256,467.2z"/>
	<path style="fill:#E987A6;" d="M466.84,117.69c0.839-0.842,1.54-1.839,1.977-3.027c4.375-11.954,8.733-14.396,9.658-14.396
		c4.775,0,16.458,20.933,16.458,59.733c0,4.581-0.195,9.058-0.528,13.422C488.219,152.975,478.936,134.323,466.84,117.69z"/>
</g>
<g>
	<path style="fill:#334F55;" d="M214.433,187.496c-3.667,2.963-4.233,8.337-1.267,12l36.2,44.738
		c1.617,2.004,4.058,3.167,6.633,3.167c2.575,0,5.017-1.162,6.633-3.167l36.2-44.738c2.967-3.663,2.4-9.037-1.267-12
		c-3.658-2.975-9.05-2.396-12,1.267L256,225.3l-29.567-36.538C223.475,185.1,218.092,184.521,214.433,187.496z"/>
	<path style="fill:#334F55;" d="M202.608,147.396c1.042-3.008,0.317-6.342-1.875-8.65c-12.733-13.408-33.542-21.412-55.667-21.412
		c-31.167,0-58.342,15.712-66.075,38.208c-1.033,3.008-0.317,6.342,1.875,8.65C93.592,177.596,114.4,185.6,136.533,185.6
		C167.7,185.6,194.875,169.892,202.608,147.396z"/>
	<path style="fill:#334F55;" d="M371.933,245.333l5.363,5.363c-24.035,17.551-70.889,28.771-121.296,28.771
		c-50.331,0-97.249-11.23-121.293-28.773l5.36-5.36L128,233.267L98.867,262.4l12.067,12.067l11.583-11.583
		c26.71,20.777,77.556,33.65,133.483,33.65c55.994,0,106.756-12.869,133.48-33.654l11.587,11.587l12.067-12.067L384,233.267
		L371.933,245.333z"/>
</g>
<path style="fill:#D8D8D8;" d="M138.727,134.733c-1.354,2.444-2.193,5.213-2.193,8.2c0,9.412,7.658,17.067,17.067,17.067
	s17.067-7.654,17.067-17.067c0-1.334-0.19-2.619-0.481-3.865c5.214,2.004,10.057,4.47,14.022,7.64
	c-7.633,12.9-26.608,21.825-47.675,21.825c-15.217,0-29.408-4.525-39.142-12.304C104.248,144.643,120.273,136.321,138.727,134.733z"
	/>
<path style="fill:#334F55;" d="M366.933,117.333c-22.125,0-42.933,8.004-55.667,21.412c-2.192,2.308-2.917,5.642-1.875,8.65
	c7.733,22.496,34.908,38.204,66.075,38.204c22.133,0,42.942-8.004,55.667-21.408c2.192-2.308,2.908-5.642,1.875-8.65
	C425.275,133.046,398.1,117.333,366.933,117.333z"/>
<path style="fill:#D8D8D8;" d="M375.467,168.533c-21.067,0-40.042-8.925-47.675-21.825c3.966-3.17,8.808-5.635,14.022-7.64
	c-0.291,1.246-0.481,2.53-0.481,3.865c0,9.412,7.658,17.067,17.067,17.067c9.408,0,17.067-7.654,17.067-17.067
	c0-2.988-0.839-5.756-2.193-8.2c18.453,1.587,34.479,9.909,41.335,21.496C404.875,164.008,390.683,168.533,375.467,168.533z"/>
<g>
	<path style="fill:#334F55;" d="M96.267,118.396c5.05-6.317,18.033-20.212,25.9-22.833c5.692-1.9,26.65-8.096,57.033-8.096
		c26.008,0,51.525-4.204,52.6-4.383l8.417-1.404l-2.8-16.833L229,66.25c-0.25,0.042-25.191,4.15-49.8,4.15
		c-32.058,0-54.342,6.275-62.433,8.971C102,84.292,84.842,105.35,82.933,107.738l-5.325,6.662l13.325,10.662L96.267,118.396z"/>
	<path style="fill:#334F55;" d="M395.233,79.371c-8.091-2.696-30.375-8.971-62.433-8.971c-24.55,0-49.55-4.108-49.8-4.15l-8.417-1.4
		l-2.8,16.829l8.417,1.404c1.075,0.179,26.592,4.383,52.6,4.383c30.383,0,51.342,6.196,57.033,8.096
		c7.558,2.517,19.9,15.346,25.908,22.838l5.333,6.654l13.317-10.658l-5.325-6.658C427.158,105.35,410,84.292,395.233,79.371z"/>
</g>
<g>
</g>
<g>
</g>
<g>
</g>
<g>
</g>
<g>
</g>
<g>
</g>
<g>
</g>
<g>
</g>
<g>
</g>
<g>
</g>
<g>
</g>
<g>
</g>
<g>
</g>
<g>
</g>
<g>
</g>
</svg>
