<?xml version="1.0" encoding="iso-8859-1"?>
<!-- Generator: Adobe Illustrator 19.0.0, SVG Export Plug-In . SVG Version: 6.00 Build 0)  -->
<svg version="1.1" id="Layer_1" xmlns="http://www.w3.org/2000/svg" xmlns:xlink="http://www.w3.org/1999/xlink" x="0px" y="0px"
	 viewBox="0 0 512 512" style="enable-background:new 0 0 512 512;" xml:space="preserve">
<path style="fill:#334F55;" d="M450.452,423.636h-35.397h-44.182h-44.182v-26.512c34.109-0.033,61.854-27.777,61.854-61.886V281.45
	c20.141-3.695,35.345-19.756,35.345-38.959s-15.205-35.265-35.345-38.959v-0.804v-25.863l14.566-102.152
	c3.598-25.284-2.882-46.762-18.277-60.482C369.492,0.553,347.47-3.46,322.73,3.038C301.364,9.001,264.362,18.467,256,18.467
	c-8.353,0-45.304-9.44-66.782-15.438c-24.731-6.429-46.788-2.39-62.131,11.33c-15.334,13.695-21.789,35.13-18.199,60.353
	l14.566,102.152v25.863v0.804c-20.141,3.695-35.345,19.756-35.345,38.959s15.205,35.265,35.345,38.959v53.788
	c0,34.108,27.745,61.852,61.854,61.886v26.512h-44.182H96.946H61.549c-24.334,0-44.13,19.821-44.13,44.182v35.345
	c0,4.884,3.952,8.836,8.836,8.836h70.691h44.182h229.745h44.182h70.691c4.884,0,8.836-3.952,8.836-8.836v-35.345
	C494.582,443.458,474.786,423.636,450.452,423.636z"/>
<path style="fill:#EAE8D2;" d="M141.128,335.238v-52.984v-17.673V220.4v-8.836h229.745v8.836v44.182v17.673v52.984
	c0,24.378-19.847,44.216-44.242,44.216h-17.612H202.982H185.37C160.975,379.455,141.128,359.616,141.128,335.238z"/>
<g>
	<rect x="229.491" y="326.437" style="fill:#334F55;" width="53.018" height="17.673"/>
	<rect x="264.836" y="299.928" style="fill:#334F55;" width="62.727" height="17.673"/>
	<rect x="185.309" y="299.928" style="fill:#334F55;" width="62.727" height="17.673"/>
	<path style="fill:#334F55;" d="M211.818,238.073c0-9.743-7.93-17.673-17.673-17.673s-17.673,7.93-17.673,17.673
		s7.93,17.673,17.673,17.673S211.818,247.816,211.818,238.073z"/>
</g>
<polygon style="fill:#EAEAEA;" points="194.146,441.309 317.855,441.309 362.036,441.309 362.036,494.327 149.964,494.327 
	149.964,441.309 "/>
<rect x="141.128" y="185.055" style="fill:#E4AD4B;" width="229.745" height="8.836"/>
<path style="fill:#EAE8D2;" d="M406.218,242.491c0,9.589-7.409,17.686-17.673,20.734v-41.469
	C398.809,224.806,406.218,232.902,406.218,242.491z"/>
<path style="fill:#EAEAEA;" d="M138.867,27.537c10.795-9.656,27.087-12.279,45.761-7.447c9.596,2.684,58.144,16.05,71.373,16.05
	c13.229,0,61.863-13.401,71.347-16.042c18.691-4.919,34.931-2.295,45.735,7.326c10.821,9.648,15.274,25.56,12.53,44.786
	l-13.565,95.172H139.954L126.389,72.21C123.653,53.036,128.08,37.167,138.867,27.537z"/>
<path style="fill:#EAE8D2;" d="M105.782,242.491c0-9.589,7.409-17.686,17.673-20.735v41.469
	C113.191,260.177,105.782,252.08,105.782,242.491z"/>
<g>
	<rect x="202.982" y="397.128" style="fill:#EAEAEA;" width="106.036" height="26.509"/>
	<path style="fill:#EAEAEA;" d="M35.091,467.818c0-14.618,11.865-26.509,26.457-26.509h26.561v53.018H35.091V467.818z"/>
</g>
<g>
	<rect x="105.782" y="441.309" style="fill:#E4AD4B;" width="26.509" height="53.018"/>
	<rect x="379.709" y="441.309" style="fill:#E4AD4B;" width="26.509" height="53.018"/>
</g>
<path style="fill:#EAEAEA;" d="M476.909,494.327h-53.018v-53.018h26.561c14.592,0,26.457,11.891,26.457,26.509V494.327z"/>
<path style="fill:#334F55;" d="M317.855,255.746c9.743,0,17.673-7.93,17.673-17.673s-7.93-17.673-17.673-17.673
	s-17.673,7.93-17.673,17.673S308.112,255.746,317.855,255.746z"/>
<g>
</g>
<g>
</g>
<g>
</g>
<g>
</g>
<g>
</g>
<g>
</g>
<g>
</g>
<g>
</g>
<g>
</g>
<g>
</g>
<g>
</g>
<g>
</g>
<g>
</g>
<g>
</g>
<g>
</g>
</svg>
