<?xml version="1.0" encoding="iso-8859-1"?>
<!-- Generator: Adobe Illustrator 19.0.0, SVG Export Plug-In . SVG Version: 6.00 Build 0)  -->
<svg version="1.1" id="Layer_1" xmlns="http://www.w3.org/2000/svg" xmlns:xlink="http://www.w3.org/1999/xlink" x="0px" y="0px"
	 viewBox="0 0 512 512" style="enable-background:new 0 0 512 512;" xml:space="preserve">
<path style="fill:#334F55;" d="M502.857,224h-9.143v-54.857c0-37.995-29.138-69.321-66.259-72.817
	c1.491-4.755,2.259-9.75,2.259-14.853c0-27.281-22.201-49.473-49.491-49.473H214.062c-27.29,0-49.491,22.192-49.491,49.473
	c0,4.987,0.732,9.866,2.165,14.527H91.473c-40.357,0-73.187,32.813-73.187,73.143V224H9.143C4.094,224,0,228.094,0,233.143v100.571
	c0,5.049,4.094,9.143,9.143,9.143h36.571v73.094c0,35.317,28.723,64.049,64.027,64.049h292.518
	c35.304,0,64.027-28.732,64.027-64.049v-73.094h36.571c5.049,0,9.143-4.094,9.143-9.143V233.143
	C512,228.094,507.906,224,502.857,224z"/>
<path style="fill:#EAE8D2;" d="M448,415.951c0,25.232-20.518,45.763-45.741,45.763H109.741C84.518,461.714,64,441.183,64,415.951
	v-82.237V233.143v-36.513c0-15.776,8.015-29.712,20.184-37.945c7.301-4.94,16.098-7.827,25.557-7.827h292.518
	c9.459,0,18.255,2.887,25.557,7.827c12.169,8.233,20.184,22.17,20.184,37.945v36.513v100.571V415.951z"/>
<path style="fill:#334F55;" d="M420.571,214.857H283.429c-10.085,0-18.286,8.241-18.286,18.366v27.983
	c-3.002-0.376-6.04-0.635-9.143-0.635c-3.103,0-6.141,0.259-9.143,0.635v-27.983c0-10.125-8.201-18.366-18.286-18.366H91.429
	c-10.085,0-18.286,8.214-18.286,18.308v91.384c0,10.094,8.237,18.308,18.362,18.308h91.988c4.522,36.022,35.28,64,72.508,64
	c37.228,0,67.986-27.978,72.508-64h91.988c10.125,0,18.362-8.214,18.362-18.308v-91.384
	C438.857,223.072,430.656,214.857,420.571,214.857z"/>
<path style="fill:#D8D8D8;" d="M91.429,324.549v-91.406l137.143,0.08v32.733c-24.058,9.776-41.736,31.98-45.079,58.613
	L91.429,324.549z"/>
<path style="fill:#EAE8D2;" d="M256,388.571c-30.25,0-54.857-24.607-54.857-54.857c0-30.25,24.607-54.857,54.857-54.857
	s54.857,24.607,54.857,54.857C310.857,363.964,286.25,388.571,256,388.571z"/>
<path style="fill:#D8D8D8;" d="M420.496,324.571h-91.988c-3.344-26.634-21.021-48.839-45.079-58.615v-32.814l137.143,0.022
	L420.496,324.571z"/>
<g>
	<rect x="164.571" y="251.429" style="fill:#334F55;" width="36.571" height="18.286"/>
	<rect x="310.857" y="251.429" style="fill:#334F55;" width="36.571" height="18.286"/>
</g>
<path style="fill:#E4AD4B;" d="M36.571,169.143c0-30.25,24.629-54.857,54.902-54.857h89.933c3.437,0,6.589-1.929,8.147-4.995
	c1.563-3.062,1.268-6.746-0.755-9.527c-3.888-5.344-5.942-11.67-5.942-18.29c0-17.196,14-31.187,31.205-31.187h166.161
	c17.206,0,31.206,13.991,31.206,31.187c0,6.634-2.049,12.96-5.929,18.295c-2.022,2.781-2.308,6.46-0.75,9.527
	c1.563,3.062,4.71,4.991,8.147,4.991h7.63c30.272,0,54.902,24.607,54.902,54.857V224h-9.143v-27.371v-0.009
	c0-30.902-21.991-56.763-51.139-62.746c-4.164-0.855-8.475-1.304-12.887-1.304H109.741c-4.413,0-8.723,0.449-12.887,1.304
	c-29.148,5.982-51.139,31.844-51.139,62.746v0.009V224h-9.143V169.143z"/>
<g>
	<polygon style="fill:#EAE8D2;" points="18.286,324.571 18.286,242.286 27.429,242.286 45.714,242.286 45.714,324.571 	"/>
	<polygon style="fill:#EAE8D2;" points="493.714,324.571 466.286,324.571 466.286,242.286 484.571,242.286 493.714,242.286 	"/>
</g>
<g>
</g>
<g>
</g>
<g>
</g>
<g>
</g>
<g>
</g>
<g>
</g>
<g>
</g>
<g>
</g>
<g>
</g>
<g>
</g>
<g>
</g>
<g>
</g>
<g>
</g>
<g>
</g>
<g>
</g>
</svg>
