<?xml version="1.0" encoding="iso-8859-1"?>
<!-- Generator: Adobe Illustrator 19.0.0, SVG Export Plug-In . SVG Version: 6.00 Build 0)  -->
<svg version="1.1" id="Layer_1" xmlns="http://www.w3.org/2000/svg" xmlns:xlink="http://www.w3.org/1999/xlink" x="0px" y="0px"
	 viewBox="0 0 512 512" style="enable-background:new 0 0 512 512;" xml:space="preserve">
<path style="fill:#334F55;" d="M451.617,189.742c-5.358-44.592-43.467-78.808-88.95-78.808c-15.075,0-29.683,3.717-42.742,10.825
	c-24.308-38.475-66.017-62.025-110.858-62.025c-58.358,0-109.642,39.458-126.525,96.608C34.392,167.433,0,210.3,0,260.267
	c0,47.358,31.892,89.317,76.8,102.425c0.017,39.983,32.55,72.508,72.533,72.508c20.375,0,39.492-8.467,53.1-23.108
	c20.15,25.35,50.558,40.175,83.433,40.175c41.65,0,79.683-24.667,96.942-62.117c7.367,1.583,14.908,2.383,22.525,2.383
	c58.817,0,106.667-47.85,106.667-106.667C512,244.658,488.467,207.475,451.617,189.742z"/>
<path style="fill:#E4AD4B;" d="M405.333,375.467c-8.575,0-17.042-1.208-25.158-3.583c-4.3-1.267-8.817,1.017-10.392,5.192
	c-13.042,34.767-46.767,58.125-83.917,58.125c-30.967,0-59.325-15.658-75.858-41.883c-1.542-2.45-4.233-3.95-7.133-3.983
	c-0.025,0-0.058,0-0.083,0c-2.867,0-5.542,1.442-7.125,3.833c-10.308,15.633-27.625,24.967-46.333,24.967
	c-30.583,0-55.467-24.883-55.467-55.467c0-1.908,0.092-3.8,0.283-5.658c0.433-4.317-2.433-8.275-6.675-9.192
	c-40.8-8.9-70.408-45.717-70.408-87.55c0-43.517,31.042-80.617,73.808-88.217c3.3-0.583,5.95-3.05,6.775-6.3
	c13.308-52.375,59.117-88.95,111.417-88.95c41.508,0,79.983,23.317,100.408,60.842c1.15,2.125,3.15,3.658,5.492,4.225
	c2.375,0.567,4.825,0.117,6.817-1.258c12.058-8.25,26.192-12.608,40.883-12.608c38.242,0,70.042,29.867,72.392,67.992
	c0.2,3.233,2.208,6.067,5.192,7.333c33.217,14.067,54.683,46.467,54.683,82.542C494.933,335.275,454.742,375.467,405.333,375.467z"
	/>
<g>
	<rect x="196.267" y="298.667" style="fill:#334F55;" width="17.067" height="42.667"/>
	<rect x="238.933" y="298.667" style="fill:#334F55;" width="17.067" height="59.733"/>
	<rect x="281.6" y="298.667" style="fill:#334F55;" width="17.067" height="42.667"/>
	<path style="fill:#334F55;" d="M175.167,213.333h-22.242l25.358-36.233l-13.983-9.783l-34.758,49.658
		c-1.825,2.608-2.05,6.008-0.575,8.833c1.466,2.825,4.383,4.592,7.567,4.592h23.025l-26.283,40.975l14.367,9.217l34.708-54.117
		c1.683-2.625,1.8-5.967,0.308-8.7C181.158,215.033,178.283,213.333,175.167,213.333z"/>
	<path style="fill:#334F55;" d="M362.9,213.333h-22.242l25.358-36.233l-13.983-9.783l-34.758,49.658
		c-1.825,2.608-2.05,6.008-0.575,8.833c1.467,2.825,4.383,4.592,7.567,4.592h23.025l-26.283,40.975l14.367,9.217l34.708-54.117
		c1.683-2.625,1.8-5.967,0.308-8.7C368.892,215.033,366.017,213.333,362.9,213.333z"/>
</g>
<g>
</g>
<g>
</g>
<g>
</g>
<g>
</g>
<g>
</g>
<g>
</g>
<g>
</g>
<g>
</g>
<g>
</g>
<g>
</g>
<g>
</g>
<g>
</g>
<g>
</g>
<g>
</g>
<g>
</g>
</svg>
