<?xml version="1.0" encoding="iso-8859-1"?>
<!-- Generator: Adobe Illustrator 19.0.0, SVG Export Plug-In . SVG Version: 6.00 Build 0)  -->
<svg version="1.1" id="Layer_1" xmlns="http://www.w3.org/2000/svg" xmlns:xlink="http://www.w3.org/1999/xlink" x="0px" y="0px"
	 viewBox="0 0 512 512" style="enable-background:new 0 0 512 512;" xml:space="preserve">
<path style="fill:#334F55;" d="M451.617,189.742c-5.358-44.592-43.467-78.808-88.95-78.808c-15.075,0-29.683,3.717-42.742,10.825
	c-24.308-38.475-66.017-62.025-110.858-62.025c-58.358,0-109.642,39.458-126.525,96.608C34.392,167.433,0,210.3,0,260.267
	c0,47.358,31.892,89.317,76.8,102.425c0.017,39.983,32.55,72.508,72.533,72.508c20.375,0,39.492-8.467,53.1-23.108
	c20.15,25.35,50.558,40.175,83.433,40.175c41.65,0,79.683-24.667,96.942-62.117c7.367,1.583,14.908,2.383,22.525,2.383
	c58.817,0,106.667-47.85,106.667-106.667C512,244.658,488.467,207.475,451.617,189.742z"/>
<path style="fill:#D26CBA;" d="M405.333,375.467c-8.575,0-17.042-1.208-25.158-3.583c-4.3-1.267-8.817,1.017-10.392,5.192
	c-13.042,34.767-46.767,58.125-83.917,58.125c-30.967,0-59.325-15.658-75.858-41.883c-1.542-2.45-4.233-3.95-7.133-3.983
	c-0.025,0-0.058,0-0.083,0c-2.867,0-5.542,1.442-7.125,3.833c-10.308,15.633-27.625,24.967-46.333,24.967
	c-30.583,0-55.467-24.883-55.467-55.467c0-1.908,0.092-3.8,0.283-5.658c0.433-4.317-2.433-8.275-6.675-9.192
	c-40.8-8.9-70.408-45.717-70.408-87.55c0-43.517,31.042-80.617,73.808-88.217c3.3-0.583,5.95-3.05,6.775-6.3
	c13.308-52.375,59.117-88.95,111.417-88.95c41.508,0,79.983,23.317,100.408,60.842c1.15,2.125,3.15,3.658,5.492,4.225
	c2.375,0.567,4.825,0.117,6.817-1.258c12.058-8.25,26.192-12.608,40.883-12.608c38.242,0,70.042,29.867,72.392,67.992
	c0.2,3.233,2.208,6.067,5.192,7.333c33.217,14.067,54.683,46.467,54.683,82.542C494.933,335.275,454.742,375.467,405.333,375.467z"
	/>
<path style="fill:#334F55;" d="M220.342,246.758c1.033-2.258,1.033-4.858,0-7.117c-3.049-6.641-7.34-12.433-12.375-17.408l11.4-11.4
	c3.333-3.333,3.333-8.733,0-12.067c-3.333-3.333-8.733-3.333-12.067,0l-13.225,13.225c-7.191-3.844-15.143-6.209-23.476-6.857
	c0.004-0.117,0.067-0.215,0.067-0.334v-17.067c0-4.717-3.817-8.533-8.533-8.533s-8.533,3.817-8.533,8.533V204.8
	c0,0.499,0.202,0.932,0.284,1.407c-6.718,1.408-13.105,3.887-18.89,7.414l-14.41-17.596c-2.975-3.642-8.35-4.192-12.008-1.192
	c-3.642,2.983-4.183,8.358-1.192,12.008l14.44,17.631c-4.059,4.462-7.523,9.524-10.115,15.169c-1.033,2.258-1.033,4.858,0,7.117
	c9.716,21.167,31.041,34.842,54.316,34.842S210.625,267.925,220.342,246.758z"/>
<path style="fill:#83A6E2;" d="M166.025,264.533c-15.283,0-29.392-8.258-36.958-21.333c2.496-4.313,5.755-8.037,9.482-11.178
	c0.106-0.079,0.232-0.104,0.335-0.189c0.127-0.104,0.18-0.256,0.299-0.366c7.474-6.054,16.891-9.601,26.843-9.601
	c15.283,0,29.392,8.258,36.958,21.333C195.417,256.275,181.308,264.533,166.025,264.533z"/>
<path style="fill:#334F55;" d="M381.5,198.767c-3.333-3.333-8.733-3.333-12.067,0l-13.225,13.225
	c-7.191-3.844-15.143-6.209-23.476-6.857c0.005-0.117,0.067-0.215,0.067-0.334v-17.067c0-4.717-3.817-8.533-8.533-8.533
	c-4.717,0-8.533,3.817-8.533,8.533V204.8c0,0.499,0.202,0.932,0.284,1.407c-6.718,1.408-13.105,3.887-18.89,7.414l-14.41-17.596
	c-2.975-3.642-8.35-4.192-12.008-1.192c-3.642,2.983-4.183,8.358-1.192,12.008l14.44,17.631c-4.059,4.462-7.523,9.524-10.115,15.169
	c-1.033,2.258-1.033,4.858,0,7.117c9.716,21.167,31.041,34.842,54.316,34.842s44.6-13.675,54.317-34.842
	c1.033-2.258,1.033-4.858,0-7.117c-3.049-6.641-7.34-12.433-12.375-17.408l11.4-11.4C384.833,207.5,384.833,202.1,381.5,198.767z"/>
<path style="fill:#83A6E2;" d="M328.158,264.533c-15.283,0-29.392-8.258-36.958-21.333c2.496-4.313,5.755-8.037,9.482-11.178
	c0.106-0.079,0.232-0.104,0.335-0.189c0.127-0.104,0.18-0.256,0.299-0.366c7.474-6.054,16.891-9.601,26.843-9.601
	c15.283,0,29.392,8.258,36.958,21.333C357.55,256.275,343.442,264.533,328.158,264.533z"/>
<path style="fill:#334F55;" d="M317.583,324.467c-0.158-0.033-16.458-3.667-33.717-8.425c-10.208-2.842-19.625,1.458-27.167,4.9
	c-3.417,1.558-7.283,3.325-9.233,3.325c-1.95,0-5.817-1.767-9.233-3.325c-7.533-3.45-16.942-7.708-27.167-4.9
	c-17.242,4.758-33.558,8.392-33.717,8.425c-4.6,1.025-7.5,5.583-6.483,10.183c0.883,3.975,4.417,6.684,8.325,6.684
	c0.617,0,1.233-0.067,1.858-0.2c0.422-0.098,6.774-1.516,15.714-3.728c3.285,16.881,24.347,29.528,50.702,29.528
	c26.355,0,47.418-12.647,50.703-29.528c8.94,2.212,15.292,3.63,15.714,3.728c4.592,1.008,9.167-1.875,10.183-6.483
	C325.083,330.05,322.183,325.492,317.583,324.467z"/>
<path style="fill:#D26CBA;" d="M247.467,349.867c-19.303,0-33.732-8.795-34.07-16.779c0.739-0.201,1.458-0.39,2.204-0.596
	c4.267-1.192,10.008,1.433,15.542,3.967c5.242,2.4,10.658,4.875,16.325,4.875c5.667,0,11.083-2.475,16.325-4.875
	c5.542-2.525,11.225-5.133,15.542-3.967c0.745,0.206,1.465,0.395,2.204,0.596C281.199,341.071,266.77,349.867,247.467,349.867z"/>
<g>
</g>
<g>
</g>
<g>
</g>
<g>
</g>
<g>
</g>
<g>
</g>
<g>
</g>
<g>
</g>
<g>
</g>
<g>
</g>
<g>
</g>
<g>
</g>
<g>
</g>
<g>
</g>
<g>
</g>
</svg>
