<?xml version="1.0" encoding="iso-8859-1"?>
<!-- Generator: Adobe Illustrator 19.0.0, SVG Export Plug-In . SVG Version: 6.00 Build 0)  -->
<svg version="1.1" id="Layer_1" xmlns="http://www.w3.org/2000/svg" xmlns:xlink="http://www.w3.org/1999/xlink" x="0px" y="0px"
	 viewBox="0 0 512 512" style="enable-background:new 0 0 512 512;" xml:space="preserve">
<path style="fill:#334F55;" d="M451.617,189.742c-5.358-44.592-43.467-78.808-88.95-78.808c-15.075,0-29.683,3.717-42.742,10.825
	c-24.308-38.475-66.017-62.025-110.858-62.025c-58.358,0-109.642,39.458-126.525,96.608C34.392,167.433,0,210.3,0,260.267
	c0,47.358,31.892,89.317,76.8,102.425c0.017,39.983,32.55,72.508,72.533,72.508c20.375,0,39.492-8.467,53.1-23.108
	c20.15,25.35,50.558,40.175,83.433,40.175c41.65,0,79.683-24.667,96.942-62.117c7.367,1.583,14.908,2.383,22.525,2.383
	c58.817,0,106.667-47.85,106.667-106.667C512,244.658,488.467,207.475,451.617,189.742z"/>
<path style="fill:#E65F58;" d="M405.333,375.467c-8.575,0-17.042-1.208-25.158-3.583c-4.3-1.267-8.817,1.017-10.392,5.192
	c-13.042,34.767-46.767,58.125-83.917,58.125c-30.967,0-59.325-15.658-75.858-41.883c-1.542-2.45-4.233-3.95-7.133-3.983
	c-0.025,0-0.058,0-0.083,0c-2.867,0-5.542,1.442-7.125,3.833c-10.308,15.633-27.625,24.967-46.333,24.967
	c-30.583,0-55.467-24.883-55.467-55.467c0-1.908,0.092-3.8,0.283-5.658c0.433-4.317-2.433-8.275-6.675-9.192
	c-40.8-8.9-70.408-45.717-70.408-87.55c0-43.517,31.042-80.617,73.808-88.217c3.3-0.583,5.95-3.05,6.775-6.3
	c13.308-52.375,59.117-88.95,111.417-88.95c41.508,0,79.983,23.317,100.408,60.842c1.15,2.125,3.15,3.658,5.492,4.225
	c2.383,0.567,4.825,0.117,6.817-1.258c12.058-8.25,26.192-12.608,40.883-12.608c38.242,0,70.042,29.867,72.392,67.992
	c0.2,3.233,2.208,6.067,5.192,7.333c33.217,14.067,54.683,46.467,54.683,82.542C494.933,335.275,454.742,375.467,405.333,375.467z"
	/>
<path style="fill:#334F55;" d="M332.85,179.242l-8.583,0.042l-8.567-0.042c-21.558-0.2-38.625-0.317-49.65,10.617
	c-3.849,3.826-6.447,8.863-8.08,14.942h-21.007c-1.632-6.079-4.23-11.116-8.08-14.942c-11.025-10.933-28.092-10.808-49.65-10.617
	l-8.567,0.042l-8.583-0.042c-23.142-0.217-45.1-0.35-57.958,12.408c-6.808,6.75-10.258,16.467-10.258,28.867
	c0,50.392,19.7,78.15,55.467,78.15c39.058,0,88.42-35.999,89.5-76.8H256.1c1.08,40.801,50.441,76.8,89.5,76.8
	c35.767,0,55.467-27.758,55.467-78.15c0-12.4-3.45-22.117-10.258-28.867C377.942,178.892,356,179.017,332.85,179.242z"/>
<g>
	<path style="fill:#83A6E2;" d="M149.333,281.6c-25.483,0-38.4-20.55-38.4-61.083c0-7.792,1.708-13.275,5.217-16.758
		c6.733-6.683,21.4-7.492,37.85-7.492c2.617,0,5.275,0.017,7.95,0.042l8.717,0.042l8.7-0.042c17.608-0.175,31.525-0.25,37.492,5.667
		c3.375,3.342,5.008,9.408,5.008,18.542C221.867,251.975,181.008,281.6,149.333,281.6z"/>
	<path style="fill:#83A6E2;" d="M345.6,281.6c-31.675,0-72.533-29.625-72.533-61.083c0-9.133,1.633-15.2,5.008-18.542
		c5.083-5.042,15.933-5.708,29.917-5.708c2.433,0,4.967,0.017,7.575,0.042l8.7,0.042l8.717-0.042c19.492-0.183,37.992-0.3,45.8,7.45
		c3.508,3.483,5.217,8.966,5.217,16.758C384,261.05,371.083,281.6,345.6,281.6z"/>
</g>
<g>
	<path style="fill:#334F55;" d="M147.567,207.3l-21.758,21.758c-3.333,3.333-3.333,8.733,0,12.067c1.667,1.667,3.85,2.5,6.033,2.5
		s4.367-0.833,6.033-2.5l21.758-21.758c3.333-3.333,3.333-8.733,0-12.067C156.3,203.967,150.9,203.967,147.567,207.3z"/>
	<path style="fill:#334F55;" d="M352.367,207.3l-21.758,21.758c-3.333,3.333-3.333,8.733,0,12.067c1.667,1.667,3.85,2.5,6.033,2.5
		s4.367-0.833,6.033-2.5l21.758-21.758c3.333-3.333,3.333-8.733,0-12.067C361.1,203.967,355.7,203.967,352.367,207.3z"/>
	
		<rect x="234.666" y="285.208" transform="matrix(-0.1521 0.9884 -0.9884 -0.1521 625.9796 162.7025)" style="fill:#334F55;" width="17.067" height="129.306"/>
</g>
<g>
</g>
<g>
</g>
<g>
</g>
<g>
</g>
<g>
</g>
<g>
</g>
<g>
</g>
<g>
</g>
<g>
</g>
<g>
</g>
<g>
</g>
<g>
</g>
<g>
</g>
<g>
</g>
<g>
</g>
</svg>
