<?xml version="1.0" encoding="iso-8859-1"?>
<!-- Generator: Adobe Illustrator 19.0.0, SVG Export Plug-In . SVG Version: 6.00 Build 0)  -->
<svg version="1.1" id="Layer_1" xmlns="http://www.w3.org/2000/svg" xmlns:xlink="http://www.w3.org/1999/xlink" x="0px" y="0px"
	 viewBox="0 0 512 512" style="enable-background:new 0 0 512 512;" xml:space="preserve">
<path style="fill:#334F55;" d="M495.428,84.274c-19.352-19.352-49.355-21.752-71.365-7.189L402.699,7.52
	c-1.218-3.968-4.882-6.672-9.035-6.672s-7.817,2.704-9.035,6.672L362.36,80.047c-32.143-16.815-68.043-25.656-104.533-25.656
	c-37.311,0-73.912,9.21-106.572,26.744L128.646,7.52c-1.218-3.968-4.882-6.672-9.035-6.672s-7.817,2.713-9.035,6.672L89,77.805
	c-22.112-15.356-52.769-13.206-72.435,6.469c-22.103,22.112-22.084,58.103,0.046,80.233l31.396,31.396
	c-11.268,27.557-16.981,56.747-16.981,86.869c0,125.934,101.745,228.381,226.802,228.381S484.63,408.706,484.63,282.772
	c0-31.101-6.072-61.158-18.051-89.444l28.812-28.821C517.521,142.377,517.54,106.386,495.428,84.274z"/>
<path style="fill:#E4AD4B;" d="M482.028,151.145l-33.389,33.389c-2.796,2.787-3.553,7.023-1.91,10.613
	c12.606,27.557,19.002,57.042,19.002,87.626c0,115.505-93.264,209.48-207.902,209.48S49.926,398.278,49.926,282.772
	c0-29.67,6.026-58.334,17.913-85.217c1.587-3.571,0.803-7.743-1.956-10.502l-35.909-35.909
	c-14.757-14.766-14.784-38.77-0.046-53.507C37.292,90.282,46.963,86.6,56.635,86.6c9.699,0,19.408,3.701,26.8,11.093l3.618,3.608
	c2.344,2.344,5.768,3.276,8.961,2.483c3.212-0.803,5.777-3.23,6.746-6.395l16.851-54.901l17.045,55.492
	c0.858,2.787,2.953,5.02,5.675,6.054s5.777,0.766,8.269-0.757c32.254-19.62,69.335-29.984,107.227-29.984
	c37.099,0,73.515,9.967,105.317,28.83c2.492,1.486,5.528,1.726,8.223,0.683c2.704-1.043,4.78-3.267,5.629-6.036l16.667-54.283
	L410.22,96.41c0.978,3.165,3.535,5.593,6.755,6.395c3.239,0.784,6.617-0.157,8.961-2.492l2.63-2.63
	c14.766-14.757,38.751-14.775,53.498-0.046c7.124,7.124,11.047,16.621,11.047,26.735S489.171,143.992,482.028,151.145z"/>
<path style="fill:#334F55;" d="M257.828,284.35c-67.738,0-122.851,42.396-122.851,94.501s55.113,94.501,122.851,94.501
	s122.851-42.396,122.851-94.501S325.566,284.35,257.828,284.35z"/>
<path style="fill:#D8D8D8;" d="M257.828,454.452c-57.319,0-103.951-33.915-103.951-75.601s46.632-75.601,103.951-75.601
	s103.951,33.915,103.951,75.601S315.147,454.452,257.828,454.452z"/>
<path style="fill:#334F55;" d="M186.952,341.051c-13.465,0-23.625,14.221-23.625,33.075s10.161,33.075,23.625,33.075
	s23.625-14.221,23.625-33.075S200.417,341.051,186.952,341.051z"/>
<path style="fill:#D8D8D8;" d="M186.952,388.237c-1.477-0.858-4.725-5.869-4.725-14.111c0-8.629,3.562-13.723,4.531-14.203
	c1.357,0.48,4.919,5.574,4.919,14.203C191.677,382.367,188.429,387.379,186.952,388.237z"/>
<g>
	<path style="fill:#334F55;" d="M172.777,265.45c10.419,0,18.9-8.481,18.9-18.9s-8.481-18.9-18.9-18.9
		c-10.419,0-18.9,8.481-18.9,18.9S162.358,265.45,172.777,265.45z"/>
	<path style="fill:#334F55;" d="M342.879,265.45c10.419,0,18.9-8.481,18.9-18.9s-8.481-18.9-18.9-18.9
		c-10.419,0-18.9,8.481-18.9,18.9S332.46,265.45,342.879,265.45z"/>
	<path style="fill:#334F55;" d="M328.704,341.051c-13.465,0-23.625,14.221-23.625,33.075s10.161,33.075,23.625,33.075
		s23.625-14.221,23.625-33.075S342.168,341.051,328.704,341.051z"/>
</g>
<path style="fill:#D8D8D8;" d="M328.704,388.237c-1.477-0.858-4.725-5.869-4.725-14.111c0-8.629,3.562-13.723,4.531-14.203
	c1.357,0.48,4.919,5.574,4.919,14.203C333.429,382.367,330.18,387.379,328.704,388.237z"/>
<g>
</g>
<g>
</g>
<g>
</g>
<g>
</g>
<g>
</g>
<g>
</g>
<g>
</g>
<g>
</g>
<g>
</g>
<g>
</g>
<g>
</g>
<g>
</g>
<g>
</g>
<g>
</g>
<g>
</g>
</svg>
