<?xml version="1.0" encoding="iso-8859-1"?>
<!-- Generator: Adobe Illustrator 19.0.0, SVG Export Plug-In . SVG Version: 6.00 Build 0)  -->
<svg version="1.1" id="Layer_1" xmlns="http://www.w3.org/2000/svg" xmlns:xlink="http://www.w3.org/1999/xlink" x="0px" y="0px"
	 viewBox="0 0 512 512" style="enable-background:new 0 0 512 512;" xml:space="preserve">
<path style="fill:#334F55;" d="M451.625,189.742c-5.363-44.592-43.471-78.808-88.958-78.808c-15.071,0-29.679,3.725-42.746,10.833
	c-24.308-38.483-66.017-62.033-110.854-62.033c-58.35,0-109.642,39.458-126.521,96.608C34.396,167.433,0,210.292,0,260.267
	c0,47.358,31.892,89.317,76.8,102.425c0.017,39.983,32.55,72.508,72.533,72.508c20.371,0,39.492-8.467,53.1-23.108
	c20.154,25.35,50.563,40.175,83.433,40.175c41.65,0,79.687-24.667,96.942-62.117c7.363,1.583,14.912,2.383,22.525,2.383
	c58.817,0,106.667-47.85,106.667-106.667C512,244.658,488.471,207.475,451.625,189.742z"/>
<path style="fill:#83A6E2;" d="M405.333,375.467c-8.575,0-17.042-1.208-25.167-3.583c-4.296-1.242-8.817,1.008-10.383,5.192
	c-13.046,34.767-46.767,58.125-83.917,58.125c-30.958,0-59.317-15.658-75.858-41.883c-1.546-2.45-4.229-3.95-7.129-3.983
	c-0.029,0-0.058,0-0.087,0c-2.867,0-5.542,1.442-7.125,3.833c-10.313,15.633-27.633,24.967-46.333,24.967
	c-30.583,0-55.467-24.883-55.467-55.467c0-1.908,0.096-3.8,0.288-5.658c0.433-4.317-2.438-8.275-6.675-9.192
	c-40.8-8.9-70.413-45.717-70.413-87.55c0-43.517,31.042-80.617,73.812-88.217c3.304-0.583,5.954-3.05,6.779-6.3
	c13.3-52.375,59.117-88.95,111.408-88.95c41.508,0,79.979,23.317,100.4,60.842c1.154,2.125,3.15,3.658,5.5,4.225
	c2.329,0.55,4.825,0.108,6.813-1.258c12.063-8.25,26.2-12.608,40.887-12.608c38.242,0,70.042,29.867,72.396,67.992
	c0.2,3.233,2.208,6.067,5.187,7.333c33.221,14.067,54.684,46.467,54.684,82.542C494.933,335.275,454.738,375.467,405.333,375.467z"
	/>
<path style="fill:#334F55;" d="M205.225,256h8.108v-6.428c0.18-0.691,0.425-1.358,0.425-2.105c0-0.747-0.245-1.415-0.425-2.106
	v-19.228c0-16.467-13.437-29.867-29.95-29.867h-8.367c-16.512,0-29.95,13.4-29.95,29.867v12.8h-25.6
	c-4.713,0-8.533,3.817-8.533,8.533s3.821,8.533,8.533,8.533h25.6h17.067h34.133H205.225z"/>
<path style="fill:#C5D35E;" d="M162.133,238.933v-12.8c0-7.058,5.779-12.8,12.883-12.8h8.367c7.104,0,12.883,5.742,12.883,12.8v12.8
	H162.133z"/>
<g>
	<path style="fill:#334F55;" d="M119.467,264.533c-4.713,0-8.533,3.817-8.533,8.533v8.533c0,4.717,3.821,8.533,8.533,8.533
		S128,286.317,128,281.6v-8.533C128,268.35,124.179,264.533,119.467,264.533z"/>
	<path style="fill:#334F55;" d="M375.467,264.533c-4.713,0-8.533,3.817-8.533,8.533v8.533c0,4.717,3.821,8.533,8.533,8.533
		c4.713,0,8.533-3.817,8.533-8.533v-8.533C384,268.35,380.179,264.533,375.467,264.533z"/>
	<path style="fill:#334F55;" d="M119.467,298.667c-4.713,0-8.533,3.817-8.533,8.533v25.6c0,4.717,3.821,8.533,8.533,8.533
		S128,337.517,128,332.8v-25.6C128,302.483,124.179,298.667,119.467,298.667z"/>
	<path style="fill:#334F55;" d="M375.892,238.933h-26.025v-12.8c0-16.467-13.437-29.867-29.95-29.867h-8.367
		c-16.512,0-29.95,13.4-29.95,29.867V256h8.533h8.533H332.8h17.067h26.025c4.713,0,8.533-3.817,8.533-8.533
		S380.604,238.933,375.892,238.933z"/>
</g>
<path style="fill:#C5D35E;" d="M298.667,238.933v-12.8c0-7.058,5.779-12.8,12.883-12.8h8.367c7.104,0,12.883,5.742,12.883,12.8v12.8
	H298.667z"/>
<path style="fill:#334F55;" d="M247.467,298.667c-23.521,0-45.271,5.575-59.671,15.3l-7.071,4.783l9.55,14.142l7.071-4.775
	c11.479-7.758,30.217-12.383,50.121-12.383c19.908,0,38.646,4.625,50.117,12.383l7.075,4.775l9.554-14.142l-7.071-4.783
	C292.742,304.242,270.992,298.667,247.467,298.667z"/>
<g>
</g>
<g>
</g>
<g>
</g>
<g>
</g>
<g>
</g>
<g>
</g>
<g>
</g>
<g>
</g>
<g>
</g>
<g>
</g>
<g>
</g>
<g>
</g>
<g>
</g>
<g>
</g>
<g>
</g>
</svg>
