<?xml version="1.0" encoding="iso-8859-1"?>
<!-- Generator: Adobe Illustrator 19.0.0, SVG Export Plug-In . SVG Version: 6.00 Build 0)  -->
<svg version="1.1" id="Layer_1" xmlns="http://www.w3.org/2000/svg" xmlns:xlink="http://www.w3.org/1999/xlink" x="0px" y="0px"
	 viewBox="0 0 512 512" style="enable-background:new 0 0 512 512;" xml:space="preserve">
<path style="fill:#334F55;" d="M467.575,430.388V284.823c0-89.996-73.235-163.21-163.257-163.21h-78.071l-39.24-54.01
	c-1.659-2.283-4.312-3.636-7.138-3.636h-0.004c-2.826,0-5.484,1.357-7.138,3.644l-32.539,44.913L98.736,142.64l-52.764,17.062
	c-2.688,0.87-4.799,2.977-5.673,5.665c-0.874,2.688-0.414,5.63,1.249,7.917l23.806,32.766c-1.032,0.764-1.947,1.703-2.586,2.914
	c-12.203,23.223-18.656,49.453-18.656,75.859v145.566H0v17.644h52.933h405.82H512v-17.644H467.575z"/>
<g>
	<path style="fill:#E987A6;" d="M179.876,87.815l32.197,44.311c0.521,2.587,2.078,4.721,4.323,5.95l1.043,1.436l-36.439,11.782
		l-3.788-5.212l-19.802-27.259L179.876,87.815z"/>
	<polygon style="fill:#E987A6;" points="144.559,131.161 164.433,158.514 165.299,159.706 135.848,181.102 125.479,166.829 
		115.11,152.555 	"/>
	<polygon style="fill:#E987A6;" points="99.409,160.968 111.203,177.201 122.997,193.435 100.533,224.446 62.97,172.75 	"/>
</g>
<path style="fill:#EAE8D2;" d="M61.755,430.388V284.823c0-22.031,5.091-43.892,14.646-63.569l17.003,23.404
	c1.659,2.283,4.312,3.636,7.138,3.636h0.004c2.83,0,5.484-1.357,7.142-3.649l32.528-44.905l41.457-30.119l52.764-17.062
	c2.688-0.87,4.799-2.977,5.673-5.665c0.845-2.585,0.418-5.391-1.093-7.638h65.299c80.291,0,145.613,65.3,145.613,145.566v145.566
	L61.755,430.388L61.755,430.388z"/>
<g>
	<rect x="123.51" y="262.775" style="fill:#334F55;" width="105.866" height="17.644"/>
	<rect x="282.309" y="262.775" style="fill:#334F55;" width="105.866" height="17.644"/>
	<path style="fill:#334F55;" d="M255.843,360.406l-49.112-30.378l-9.283,15.004l53.756,33.251c1.421,0.879,3.028,1.318,4.639,1.318
		s3.218-0.439,4.639-1.318l53.756-33.251l-9.283-15.004L255.843,360.406z"/>
</g>
<g>
</g>
<g>
</g>
<g>
</g>
<g>
</g>
<g>
</g>
<g>
</g>
<g>
</g>
<g>
</g>
<g>
</g>
<g>
</g>
<g>
</g>
<g>
</g>
<g>
</g>
<g>
</g>
<g>
</g>
</svg>
