<?xml version="1.0" encoding="iso-8859-1"?>
<!-- Generator: Adobe Illustrator 19.0.0, SVG Export Plug-In . SVG Version: 6.00 Build 0)  -->
<svg version="1.1" id="Layer_1" xmlns="http://www.w3.org/2000/svg" xmlns:xlink="http://www.w3.org/1999/xlink" x="0px" y="0px"
	 viewBox="0 0 512 512" style="enable-background:new 0 0 512 512;" xml:space="preserve">
<path style="fill:#334F55;" d="M467.579,401.567V256c0-89.997-73.24-163.211-163.263-163.211h-96.941
	c-90.023,0-163.263,73.214-163.263,163.211v145.567H0v17.644h52.933h405.823H512v-17.644H467.579z"/>
<path style="fill:#83A6E2;" d="M61.756,401.567V256c0-80.266,65.323-145.567,145.619-145.567h96.941
	c80.296,0,145.619,65.301,145.619,145.567v145.567H61.756z"/>
<path style="fill:#334F55;" d="M255.845,304.522c34.048,0,61.756-27.677,61.756-61.695V216.24c0-34.018-27.707-61.695-61.756-61.695
	s-61.756,27.677-61.756,61.695v26.587C194.089,276.845,221.797,304.522,255.845,304.522z"/>
<path style="fill:#C59A83;" d="M273.489,260.329c0,9.774-7.918,17.726-17.644,17.726c-9.727,0-17.644-7.952-17.644-17.726v-8.659
	c0-9.774,7.918-17.726,17.644-17.726c9.727,0,17.644,7.952,17.644,17.726V260.329z"/>
<path style="fill:#E4AD4B;" d="M211.734,216.24c0-24.291,19.79-44.051,44.111-44.051s44.111,19.76,44.111,44.051v26.587
	c0,10.907-4.138,20.772-10.735,28.474c1.141-3.476,1.913-7.119,1.913-10.972v-8.659c0-19.505-15.827-35.371-35.289-35.371
	s-35.289,15.865-35.289,35.371v8.659c0,3.853,0.772,7.496,1.913,10.972c-6.598-7.702-10.735-17.567-10.735-28.474V216.24z"/>
<path style="fill:#334F55;" d="M340.983,296.88c-19.91,26.88-51.736,42.931-85.138,42.931s-65.228-16.051-85.138-42.931l-5.255-7.09
	l-14.172,10.502l5.247,7.09c23.219,31.356,60.351,50.073,99.319,50.073s76.1-18.717,99.319-50.073l5.247-7.09l-14.172-10.502
	L340.983,296.88z"/>
<g>
</g>
<g>
</g>
<g>
</g>
<g>
</g>
<g>
</g>
<g>
</g>
<g>
</g>
<g>
</g>
<g>
</g>
<g>
</g>
<g>
</g>
<g>
</g>
<g>
</g>
<g>
</g>
<g>
</g>
</svg>
