<?xml version="1.0" encoding="iso-8859-1"?>
<!-- Generator: Adobe Illustrator 19.0.0, SVG Export Plug-In . SVG Version: 6.00 Build 0)  -->
<svg version="1.1" id="Layer_1" xmlns="http://www.w3.org/2000/svg" xmlns:xlink="http://www.w3.org/1999/xlink" x="0px" y="0px"
	 viewBox="0 0 512 512" style="enable-background:new 0 0 512 512;" xml:space="preserve">
<path style="fill:#334F55;" d="M467.862,384V238.345c0-90.052-73.28-163.31-163.358-163.31h-97.009
	c-90.078,0-163.358,73.259-163.358,163.31V384H0v17.655h52.966h70.621h44.138h26.483h132.858c2.22,19.805,18.88,35.31,39.28,35.31
	s37.06-15.505,39.28-35.31h35.754h17.655H512V384H467.862z"/>
<path style="fill:#E6D764;" d="M441.379,384h-35.31v-52.966h-17.655V384v13.263c0,12.155-9.901,22.047-22.069,22.047
	c-12.168,0-22.069-9.892-22.069-22.047V384v-52.966h-17.655V384H194.207h-26.483h-44.138H61.793V238.345
	c0-80.315,65.362-145.655,145.703-145.655h97.009c80.341,0,145.703,65.34,145.703,145.655V384H441.379z"/>
<g>
	<path style="fill:#334F55;" d="M189.793,209.655c-19.47,0-35.31,15.84-35.31,35.31c0,4.875,3.953,8.828,8.828,8.828
		s8.828-3.953,8.828-8.828c0-9.737,7.918-17.655,17.655-17.655c9.737,0,17.655,7.918,17.655,17.655c0,4.875,3.953,8.828,8.828,8.828
		s8.828-3.953,8.828-8.828C225.103,225.496,209.263,209.655,189.793,209.655z"/>
	<path style="fill:#334F55;" d="M361.931,229.517c-4.875,0-8.828,3.953-8.828,8.828c0,12.168-9.901,22.069-22.069,22.069
		s-22.069-9.901-22.069-22.069c0-2.435,1.978-4.414,4.414-4.414s4.414,1.978,4.414,4.414c0,4.875,3.953,8.828,8.828,8.828
		s8.828-3.953,8.828-8.828c0-12.168-9.901-22.069-22.069-22.069c-12.168,0-22.069,9.901-22.069,22.069
		c0,21.905,17.819,39.724,39.724,39.724s39.724-17.819,39.724-39.724C370.759,233.47,366.806,229.517,361.931,229.517z"/>
</g>
<g>
</g>
<g>
</g>
<g>
</g>
<g>
</g>
<g>
</g>
<g>
</g>
<g>
</g>
<g>
</g>
<g>
</g>
<g>
</g>
<g>
</g>
<g>
</g>
<g>
</g>
<g>
</g>
<g>
</g>
</svg>
