<?xml version="1.0" encoding="iso-8859-1"?>
<!-- Generator: Adobe Illustrator 19.0.0, SVG Export Plug-In . SVG Version: 6.00 Build 0)  -->
<svg version="1.1" id="Layer_1" xmlns="http://www.w3.org/2000/svg" xmlns:xlink="http://www.w3.org/1999/xlink" x="0px" y="0px"
	 viewBox="0 0 512 512" style="enable-background:new 0 0 512 512;" xml:space="preserve">
<path style="fill:#334F55;" d="M497.35,201.957l-71.204-58.234C387.923,85.02,323.461,50.02,253.431,50.02
	c-73.056,0-141.092,39.116-177.957,102.194l-60.819,49.743C-0.96,214.722-0.838,226.464,0.62,232.331
	c1.462,5.859,6.864,16.277,26.644,20.224l20.186,4.031c0.314,113.308,92.597,205.394,205.98,205.394
	c113.035,0,205.1-91.533,205.976-204.371l25.329-5.054c19.78-3.948,25.182-14.366,26.644-20.224
	C512.838,226.464,512.96,214.722,497.35,201.957z"/>
<path style="fill:#E6D764;" d="M494.722,228.174c-0.591,2.372-4.438,5.775-13.347,7.552l-32.302,6.445
	c-4.103,0.813-7.015,4.476-6.898,8.658c0.046,1.718,0.071,3.445,0.071,5.171c0,104.113-84.702,188.815-188.815,188.815
	S64.616,360.113,64.616,256c0-2.062,0.033-4.124,0.096-6.169c0.13-4.191-2.787-7.862-6.898-8.683l-27.189-5.423
	c-8.909-1.777-12.756-5.18-13.347-7.552c-0.591-2.372,1.211-7.183,8.243-12.924l62.031-50.732c0.809-0.662,1.488-1.467,2.007-2.372
	c33.626-58.578,96.415-94.961,163.872-94.961c64.616,0,124.061,32.511,159.02,86.965c0.486,0.763,1.09,1.442,1.785,2.012
	l72.247,59.089C493.511,220.991,495.313,225.802,494.722,228.174z"/>
<g>
	<path style="fill:#334F55;" d="M176.276,238.927c9.467,0,17.165-7.702,17.165-17.165c0-9.463-7.698-17.165-17.165-17.165
		c-9.467,0-17.165,7.702-17.165,17.165C159.111,231.225,166.81,238.927,176.276,238.927z"/>
	<path style="fill:#334F55;" d="M330.762,204.597c-9.467,0-17.165,7.702-17.165,17.165c0,9.463,7.698,17.165,17.165,17.165
		s17.165-7.702,17.165-17.165C347.927,212.299,340.228,204.597,330.762,204.597z"/>
	<path style="fill:#334F55;" d="M330.762,324.752c0,18.933-15.401,34.33-34.33,34.33s-34.33-15.397-34.33-34.33v-0.695
		c19.562-3.19,34.33-17.054,34.33-33.635c0-18.933-19.252-34.33-42.913-34.33s-42.913,15.397-42.913,34.33
		c0,16.581,14.768,30.446,34.33,33.635v0.695c0,18.933-15.401,34.33-34.33,34.33s-34.33-15.397-34.33-34.33v-8.583h-17.165v8.583
		c0,28.396,23.099,51.495,51.495,51.495c17.902,0,33.682-9.191,42.913-23.091c9.23,13.9,25.011,23.091,42.913,23.091
		c28.396,0,51.495-23.099,51.495-51.495v-8.583h-17.165V324.752z"/>
</g>
<path style="fill:#C5D35E;" d="M227.771,290.422c0-9.303,11.793-17.165,25.748-17.165c13.955,0,25.748,7.862,25.748,17.165
	s-11.793,17.165-25.748,17.165C239.564,307.587,227.771,299.725,227.771,290.422z"/>
<g>
</g>
<g>
</g>
<g>
</g>
<g>
</g>
<g>
</g>
<g>
</g>
<g>
</g>
<g>
</g>
<g>
</g>
<g>
</g>
<g>
</g>
<g>
</g>
<g>
</g>
<g>
</g>
<g>
</g>
</svg>
