<?xml version="1.0" encoding="iso-8859-1"?>
<!-- Generator: Adobe Illustrator 19.0.0, SVG Export Plug-In . SVG Version: 6.00 Build 0)  -->
<svg version="1.1" id="Layer_1" xmlns="http://www.w3.org/2000/svg" xmlns:xlink="http://www.w3.org/1999/xlink" x="0px" y="0px"
	 viewBox="0 0 512 512" style="enable-background:new 0 0 512 512;" xml:space="preserve">
<path style="fill:#334F55;" d="M467.575,401.566V256c0-89.996-73.235-163.21-163.257-163.21h-96.949
	c-90.022,0-163.257,73.214-163.257,163.21v145.566H0v17.644h52.933h405.82H512v-17.644H467.575z"/>
<path style="fill:#63CB6B;" d="M61.755,401.566V256c0-80.265,65.322-145.566,145.613-145.566h96.949
	c80.291,0,145.613,65.3,145.613,145.566v145.566H61.755z"/>
<path style="fill:#334F55;" d="M141.155,242.767c-24.321,0-44.111,19.79-44.111,44.111s19.79,44.111,44.111,44.111
	s44.111-19.79,44.111-44.111S165.476,242.767,141.155,242.767z"/>
<path style="fill:#D8D8D8;" d="M141.155,313.344c-14.595,0-26.466-11.872-26.466-26.466c0-9.561,5.143-17.877,12.76-22.529
	c-2.449,4.011-3.938,8.673-3.938,13.707c0,4.872,3.95,8.822,8.822,8.822c4.872,0,8.822-3.95,8.822-8.822
	c0-4.863,3.959-8.822,8.822-8.822c4.863,0,8.822,3.959,8.822,8.822c0,4.863-3.959,8.822-8.822,8.822
	c-4.872,0-8.822,3.95-8.822,8.822s3.95,8.822,8.822,8.822c5.034,0,9.696-1.488,13.707-3.938
	C159.032,308.201,150.715,313.344,141.155,313.344z"/>
<path style="fill:#334F55;" d="M370.531,242.767c-24.321,0-44.111,19.79-44.111,44.111s19.79,44.111,44.111,44.111
	c24.321,0,44.111-19.79,44.111-44.111S394.852,242.767,370.531,242.767z"/>
<path style="fill:#D8D8D8;" d="M370.531,313.344c-14.595,0-26.466-11.872-26.466-26.466c0-9.561,5.143-17.877,12.76-22.529
	c-2.449,4.011-3.938,8.673-3.938,13.707c0,4.872,3.95,8.822,8.822,8.822s8.822-3.95,8.822-8.822c0-4.863,3.959-8.822,8.822-8.822
	c4.863,0,8.822,3.959,8.822,8.822c0,4.863-3.959,8.822-8.822,8.822c-4.872,0-8.822,3.95-8.822,8.822s3.95,8.822,8.822,8.822
	c5.034,0,9.696-1.488,13.707-3.938C388.408,308.201,380.091,313.344,370.531,313.344z"/>
<g>
</g>
<g>
</g>
<g>
</g>
<g>
</g>
<g>
</g>
<g>
</g>
<g>
</g>
<g>
</g>
<g>
</g>
<g>
</g>
<g>
</g>
<g>
</g>
<g>
</g>
<g>
</g>
<g>
</g>
</svg>
