<?xml version="1.0" encoding="iso-8859-1"?>
<!-- Generator: Adobe Illustrator 19.0.0, SVG Export Plug-In . SVG Version: 6.00 Build 0)  -->
<svg version="1.1" id="Layer_1" xmlns="http://www.w3.org/2000/svg" xmlns:xlink="http://www.w3.org/1999/xlink" x="0px" y="0px"
	 viewBox="0 0 512 512" style="enable-background:new 0 0 512 512;" xml:space="preserve">
<path style="fill:#334F55;" d="M451.617,189.742c-5.358-44.596-43.467-78.808-88.95-78.808c-15.067,0-29.675,3.721-42.742,10.829
	c-24.308-38.475-66.017-62.029-110.858-62.029c-58.358,0-109.642,39.454-126.525,96.604C34.392,167.425,0,210.292,0,260.267
	c0,47.358,31.892,89.317,76.8,102.425c0.017,39.983,32.55,72.508,72.533,72.508c20.375,0,39.492-8.467,53.1-23.108
	c20.15,25.35,50.558,40.175,83.433,40.175c41.65,0,79.683-24.667,96.942-62.117c7.367,1.583,14.908,2.383,22.525,2.383
	c58.817,0,106.667-47.85,106.667-106.667C512,244.658,488.467,207.475,451.617,189.742z"/>
<path style="fill:#E4AD4B;" d="M405.333,375.467c-8.575,0-17.042-1.208-25.158-3.583c-4.3-1.267-8.817,1.017-10.392,5.192
	c-13.042,34.767-46.767,58.125-83.917,58.125c-30.967,0-59.325-15.658-75.858-41.883c-1.542-2.45-4.233-3.95-7.133-3.983
	c-0.025,0-0.058,0-0.083,0c-2.867,0-5.542,1.442-7.125,3.833c-10.308,15.633-27.625,24.967-46.333,24.967
	c-30.583,0-55.467-24.883-55.467-55.467c0-1.908,0.092-3.8,0.283-5.658c0.433-4.317-2.433-8.275-6.675-9.192
	c-40.8-8.9-70.408-45.717-70.408-87.55c0-43.517,31.042-80.617,73.808-88.217c3.3-0.583,5.95-3.05,6.775-6.3
	c13.308-52.371,59.117-88.95,111.417-88.95c41.508,0,79.983,23.317,100.408,60.846c1.15,2.121,3.15,3.65,5.492,4.217
	c2.342,0.575,4.825,0.108,6.817-1.25c12.067-8.25,26.2-12.613,40.883-12.613c38.242,0,70.042,29.867,72.392,67.992
	c0.2,3.229,2.208,6.071,5.192,7.333c33.217,14.071,54.683,46.471,54.683,82.542C494.933,335.275,454.742,375.467,405.333,375.467z"
	/>
<path style="fill:#334F55;" d="M307.2,298.667h-34.133H256h-25.6h-17.067H179.2c-4.717,0-8.533,3.817-8.533,8.533v42.667
	c0,4.717,3.817,8.533,8.533,8.533h34.133H230.4H256h17.067H307.2c4.717,0,8.533-3.817,8.533-8.533V307.2
	C315.733,302.483,311.917,298.667,307.2,298.667z"/>
<g>
	<rect x="187.733" y="315.733" style="fill:#FFFFFF;" width="25.6" height="25.6"/>
	<rect x="230.4" y="315.733" style="fill:#FFFFFF;" width="25.6" height="25.6"/>
	<rect x="273.067" y="315.733" style="fill:#FFFFFF;" width="25.6" height="25.6"/>
</g>
<path style="fill:#334F55;" d="M204.8,221.867c0-23.525-19.142-42.667-42.667-42.667s-42.667,19.142-42.667,42.667
	s19.142,42.667,42.667,42.667S204.8,245.392,204.8,221.867z"/>
<path style="fill:#C5D35E;" d="M136.533,221.867c0-14.117,11.483-25.6,25.6-25.6s25.6,11.483,25.6,25.6
	c0,0.771-0.16,1.497-0.228,2.25c-2.469-1.391-5.276-2.25-8.306-2.25c-9.408,0-17.067,7.654-17.067,17.067
	c0,3.03,0.86,5.836,2.25,8.306c-0.754,0.067-1.48,0.228-2.25,0.228C148.017,247.467,136.533,235.983,136.533,221.867z"/>
<path style="fill:#334F55;" d="M332.8,179.2c-23.525,0-42.667,19.142-42.667,42.667s19.142,42.667,42.667,42.667
	s42.667-19.142,42.667-42.667S356.325,179.2,332.8,179.2z"/>
<path style="fill:#C5D35E;" d="M307.2,221.867c0-14.117,11.483-25.6,25.6-25.6s25.6,11.483,25.6,25.6c0,0.771-0.16,1.497-0.228,2.25
	c-2.469-1.391-5.276-2.25-8.306-2.25c-9.408,0-17.067,7.654-17.067,17.067c0,3.03,0.86,5.836,2.25,8.306
	c-0.753,0.067-1.48,0.228-2.25,0.228C318.683,247.467,307.2,235.983,307.2,221.867z"/>
<g>
</g>
<g>
</g>
<g>
</g>
<g>
</g>
<g>
</g>
<g>
</g>
<g>
</g>
<g>
</g>
<g>
</g>
<g>
</g>
<g>
</g>
<g>
</g>
<g>
</g>
<g>
</g>
<g>
</g>
</svg>
