<?xml version="1.0" encoding="iso-8859-1"?>
<!-- Generator: Adobe Illustrator 19.0.0, SVG Export Plug-In . SVG Version: 6.00 Build 0)  -->
<svg version="1.1" id="Layer_1" xmlns="http://www.w3.org/2000/svg" xmlns:xlink="http://www.w3.org/1999/xlink" x="0px" y="0px"
	 viewBox="0 0 512 512" style="enable-background:new 0 0 512 512;" xml:space="preserve">
<path style="fill:#334F55;" d="M457.196,420.571H329.143v-48.761c38.389-24.329,64-67.072,64-115.775v-19.153
	c20.839-3.823,36.571-20.441,36.571-40.311s-15.732-36.488-36.571-40.311v-0.832v-0.027V45.714h27.429v91.429h18.286V45.714h27.429
	c5.049,0,9.143-4.089,9.143-9.143V9.143c0-5.053-4.094-9.143-9.143-9.143H91.429c-5.049,0-9.143,4.089-9.143,9.143v27.429
	c0,5.053,4.094,9.143,9.143,9.143h27.429v109.688v0.027v0.832c-20.839,3.823-36.571,20.441-36.571,40.311
	s15.732,36.488,36.571,40.311v19.153c0,48.704,25.611,91.446,64,115.775v48.761H54.804c-25.179,0-45.661,20.509-45.661,45.714
	v36.571c0,5.053,4.094,9.143,9.143,9.143h475.429c5.049,0,9.143-4.089,9.143-9.143v-36.571
	C502.857,441.08,482.375,420.571,457.196,420.571z"/>
<rect x="137.143" y="45.714" style="fill:#D8D8D8;" width="237.714" height="100.544"/>
<rect x="155.429" y="54.857" style="fill:#334F55;" width="18.286" height="73.897"/>
<path style="fill:#EAE8D2;" d="M137.143,256.036v-18.321v-18.286v-45.714v-9.143h237.714v9.143v45.714v18.286v18.321
	c0,65.518-53.317,118.821-118.857,118.821S137.143,321.554,137.143,256.036z"/>
<g>
	<rect x="228.571" y="320" style="fill:#334F55;" width="54.857" height="18.286"/>
	<path style="fill:#334F55;" d="M210.286,210.286c-10.085,0-18.286,8.205-18.286,18.286s8.201,18.286,18.286,18.286
		s18.286-8.205,18.286-18.286S220.371,210.286,210.286,210.286z"/>
</g>
<path style="fill:#EAE8D2;" d="M411.429,196.571c0,9.922-7.666,18.299-18.286,21.454v-42.907
	C403.762,178.272,411.429,186.65,411.429,196.571z"/>
<polygon style="fill:#D8D8D8;" points="100.571,18.286 457.143,18.286 457.143,27.429 384,27.429 128,27.429 100.571,27.429 "/>
<g>
	<path style="fill:#EAE8D2;" d="M100.571,196.571c0-9.922,7.666-18.299,18.286-21.454v42.907
		C108.238,214.871,100.571,206.493,100.571,196.571z"/>
	<path style="fill:#EAE8D2;" d="M201.143,381.615c16.816,7.372,35.35,11.528,54.857,11.528s38.041-4.156,54.857-11.528v38.957
		H201.143V381.615z"/>
</g>
<polygon style="fill:#E987A6;" points="285.603,438.857 256,463.527 226.397,438.857 "/>
<path style="fill:#D8D8D8;" d="M484.571,493.714H27.429v-27.429c0-15.125,12.281-27.429,27.375-27.429H192h5.829l52.318,43.598
	c1.696,1.411,3.772,2.116,5.853,2.116c2.08,0,4.156-0.705,5.853-2.116l52.318-43.598H320h137.196
	c15.094,0,27.375,12.304,27.375,27.429V493.714z"/>
<path style="fill:#334F55;" d="M301.714,246.857c10.085,0,18.286-8.205,18.286-18.286s-8.201-18.286-18.286-18.286
	s-18.286,8.205-18.286,18.286S291.629,246.857,301.714,246.857z"/>
<g>
</g>
<g>
</g>
<g>
</g>
<g>
</g>
<g>
</g>
<g>
</g>
<g>
</g>
<g>
</g>
<g>
</g>
<g>
</g>
<g>
</g>
<g>
</g>
<g>
</g>
<g>
</g>
<g>
</g>
</svg>
