<?xml version="1.0" encoding="iso-8859-1"?>
<!-- Generator: Adobe Illustrator 19.0.0, SVG Export Plug-In . SVG Version: 6.00 Build 0)  -->
<svg version="1.1" id="Layer_1" xmlns="http://www.w3.org/2000/svg" xmlns:xlink="http://www.w3.org/1999/xlink" x="0px" y="0px"
	 viewBox="0 0 512 512" style="enable-background:new 0 0 512 512;" xml:space="preserve">
<path style="fill:#334F55;" d="M442.091,418.909H311.855v-34.458c2.659-0.945,5.291-1.936,7.853-3.072
	c0.494,0.081,0.939,0.294,1.456,0.294h116.364c3.286,0,6.327-1.736,8.005-4.554c1.677-2.827,1.741-6.327,0.168-9.209
	l-54.609-100.115c18.76-5.406,32.472-21.065,32.472-39.721c0-20.231-16.018-37.151-37.236-41.044v-19.465V46.545h18.618v93.091
	h18.618V46.545h9.309c5.141,0,9.309-4.164,9.309-9.309V9.309c0-5.145-4.168-9.309-9.309-9.309H97.745
	c-5.141,0-9.309,4.164-9.309,9.309v27.927c0,5.145,4.168,9.309,9.309,9.309h27.927v121.018v19.465
	c-21.218,3.893-37.236,20.813-37.236,41.044c0,18.656,13.712,34.315,32.472,39.721L66.3,367.909
	c-1.573,2.882-1.509,6.382,0.168,9.209c1.677,2.818,4.718,4.555,8.004,4.555h116.364c0.516,0,0.962-0.213,1.456-0.294
	c2.563,1.136,5.194,2.127,7.853,3.072v34.458H69.909c-25.714,0-46.636,20.882-46.636,46.545v37.236c0,5.145,4.168,9.309,9.309,9.309
	h446.836c5.141,0,9.309-4.164,9.309-9.309v-37.236C488.727,439.791,467.805,418.909,442.091,418.909z"/>
<path style="fill:#EAE8D2;" d="M144.291,279.318v-9.354v-18.618V204.8v-18.618v-9.309h223.418v9.309V204.8v46.545v18.618v9.354
	c0,51.309-41.791,93.046-93.159,93.046h-37.1C186.082,372.364,144.291,330.627,144.291,279.318z"/>
<g>
	<path style="fill:#334F55;" d="M293.236,307.2v-9.309h-18.618v9.309c0,10.264-8.35,18.618-18.618,18.618
		c-10.268,0-18.618-8.354-18.618-18.618v-9.309h-18.618v9.309c0,20.536,16.704,37.236,37.236,37.236
		C276.532,344.436,293.236,327.736,293.236,307.2z"/>
	<path style="fill:#334F55;" d="M190.836,204.8c-10.268,0-18.618,8.354-18.618,18.618c0,10.264,8.35,18.618,18.618,18.618
		c10.268,0,18.618-8.354,18.618-18.618C209.455,213.154,201.105,204.8,190.836,204.8z"/>
</g>
<path style="fill:#E6D764;" d="M348.251,363.055c19.433-17.09,32.839-40.762,36.762-67.529l36.833,67.529H348.251z"/>
<path style="fill:#EAE8D2;" d="M404.945,228.073c0,10.102-7.806,18.632-18.618,21.844v-43.688
	C397.14,209.441,404.945,217.971,404.945,228.073z"/>
<g>
	<polygon style="fill:#D8D8D8;" points="107.055,18.618 423.564,18.618 423.564,27.927 377.018,27.927 134.982,27.927 
		107.055,27.927 	"/>
	<rect x="144.291" y="46.545" style="fill:#D8D8D8;" width="223.418" height="111.709"/>
</g>
<path style="fill:#EAE8D2;" d="M107.055,228.073c0-10.102,7.806-18.632,18.618-21.844v43.688
	C114.86,246.705,107.055,238.175,107.055,228.073z"/>
<path style="fill:#E6D764;" d="M90.155,363.055l36.833-67.529c3.923,26.766,17.328,50.439,36.762,67.529H90.155z"/>
<path style="fill:#EAE8D2;" d="M218.764,389.292c6.09,1.031,12.307,1.69,18.686,1.69h37.1c6.38,0,12.596-0.659,18.686-1.69v29.617
	h-74.473V389.292z"/>
<polygon style="fill:#E987A6;" points="286.141,437.527 256,462.646 225.859,437.527 "/>
<path style="fill:#D8D8D8;" d="M470.109,493.382H41.891v-27.927c0-15.4,12.568-27.927,28.018-27.927h126.862l53.269,44.391
	c1.727,1.436,3.841,2.155,5.959,2.155c2.118,0,4.232-0.718,5.959-2.155l53.269-44.391h126.862c15.45,0,28.018,12.527,28.018,27.927
	V493.382z"/>
<g>
	<path style="fill:#334F55;" d="M321.164,242.036c10.268,0,18.618-8.354,18.618-18.618c0-10.264-8.35-18.618-18.618-18.618
		c-10.268,0-18.618,8.354-18.618,18.618C302.545,233.682,310.895,242.036,321.164,242.036z"/>
	<rect x="162.909" y="65.164" style="fill:#334F55;" width="18.618" height="75.241"/>
</g>
<g>
</g>
<g>
</g>
<g>
</g>
<g>
</g>
<g>
</g>
<g>
</g>
<g>
</g>
<g>
</g>
<g>
</g>
<g>
</g>
<g>
</g>
<g>
</g>
<g>
</g>
<g>
</g>
<g>
</g>
</svg>
