<?xml version="1.0" encoding="iso-8859-1"?>
<!-- Generator: Adobe Illustrator 19.0.0, SVG Export Plug-In . SVG Version: 6.00 Build 0)  -->
<svg version="1.1" id="Layer_1" xmlns="http://www.w3.org/2000/svg" xmlns:xlink="http://www.w3.org/1999/xlink" x="0px" y="0px"
	 viewBox="0 0 512 512" style="enable-background:new 0 0 512 512;" xml:space="preserve">
<path style="fill:#334F55;" d="M451.625,189.742c-5.363-44.592-43.471-78.808-88.958-78.808c-15.071,0-29.679,3.725-42.746,10.833
	c-24.308-38.483-66.017-62.033-110.854-62.033c-58.35,0-109.642,39.458-126.521,96.608C34.396,167.433,0,210.292,0,260.267
	c0,47.358,31.892,89.317,76.8,102.425c0.017,39.983,32.55,72.508,72.533,72.508c20.371,0,39.492-8.467,53.1-23.108
	c20.154,25.35,50.563,40.175,83.433,40.175c41.65,0,79.687-24.667,96.942-62.117c7.363,1.583,14.912,2.383,22.525,2.383
	c58.817,0,106.667-47.85,106.667-106.667C512,244.658,488.471,207.475,451.625,189.742z"/>
<path style="fill:#E4AD4B;" d="M405.333,375.467c-8.575,0-17.042-1.208-25.167-3.583c-4.296-1.242-8.817,1.008-10.383,5.192
	c-13.046,34.767-46.767,58.125-83.917,58.125c-30.958,0-59.317-15.658-75.858-41.883c-1.546-2.45-4.229-3.95-7.129-3.983
	c-0.029,0-0.058,0-0.087,0c-2.867,0-5.542,1.442-7.125,3.833c-10.313,15.633-27.633,24.967-46.333,24.967
	c-30.583,0-55.467-24.883-55.467-55.467c0-1.908,0.096-3.8,0.288-5.658c0.433-4.317-2.438-8.275-6.675-9.192
	c-40.8-8.9-70.413-45.717-70.413-87.55c0-43.517,31.042-80.617,73.812-88.217c3.304-0.583,5.954-3.05,6.779-6.3
	c13.3-52.375,59.117-88.95,111.408-88.95c41.508,0,79.979,23.317,100.4,60.842c1.154,2.125,3.15,3.658,5.5,4.225
	c2.329,0.55,4.817,0.108,6.813-1.258c12.063-8.25,26.2-12.608,40.887-12.608c38.242,0,70.042,29.867,72.396,67.992
	c0.2,3.233,2.208,6.067,5.187,7.333c33.221,14.067,54.684,46.467,54.684,82.542C494.933,335.275,454.738,375.467,405.333,375.467z"
	/>
<g>
	<path style="fill:#334F55;" d="M304.408,324.733c-9.908,3.433-38.688,12.333-52.675,12.333c-13.967,0-42.762-8.9-52.675-12.333
		l-8.067-2.783l-5.579,16.125l8.063,2.792c1.566,0.542,38.562,13.267,58.258,13.267s56.692-12.725,58.258-13.267l8.063-2.792
		l-5.583-16.133L304.408,324.733z"/>
	<path style="fill:#334F55;" d="M119.467,213.333C95.942,213.333,76.8,232.475,76.8,256v8.533h17.067V256
		c0-14.117,11.483-25.6,25.6-25.6c3.351,0,6.536,0.688,9.472,1.864c-5.591,2.806-9.472,8.535-9.472,15.203
		c0,9.408,7.654,17.067,17.067,17.067c3.122,0,6.013-0.904,8.533-2.374v2.374h17.067V256
		C162.133,232.475,142.992,213.333,119.467,213.333z"/>
	<path style="fill:#334F55;" d="M384,213.333c-23.525,0-42.667,19.142-42.667,42.667v8.533H358.4v-2.374
		c2.52,1.47,5.411,2.374,8.533,2.374c9.412,0,17.067-7.658,17.067-17.067c0-6.668-3.882-12.396-9.472-15.203
		c2.936-1.176,6.12-1.864,9.472-1.864c14.117,0,25.6,11.483,25.6,25.6v8.533h17.067V256
		C426.667,232.475,407.525,213.333,384,213.333z"/>
</g>
<g>
</g>
<g>
</g>
<g>
</g>
<g>
</g>
<g>
</g>
<g>
</g>
<g>
</g>
<g>
</g>
<g>
</g>
<g>
</g>
<g>
</g>
<g>
</g>
<g>
</g>
<g>
</g>
<g>
</g>
</svg>
