<?xml version="1.0" encoding="iso-8859-1"?>
<!-- Generator: Adobe Illustrator 19.0.0, SVG Export Plug-In . SVG Version: 6.00 Build 0)  -->
<svg version="1.1" id="Layer_1" xmlns="http://www.w3.org/2000/svg" xmlns:xlink="http://www.w3.org/1999/xlink" x="0px" y="0px"
	 viewBox="0 0 512 512" style="enable-background:new 0 0 512 512;" xml:space="preserve">
<path style="fill:#334F55;" d="M467.579,401.567V256c0-89.997-73.24-163.211-163.263-163.211h-96.941
	c-90.023,0-163.263,73.214-163.263,163.211v145.567H0v17.644h52.933h405.823H512v-17.644H467.579z"/>
<path style="fill:#83A6E2;" d="M61.756,401.567V256c0-80.266,65.323-145.567,145.619-145.567h96.941
	c80.296,0,145.619,65.301,145.619,145.567v145.567H61.756z"/>
<path style="fill:#334F55;" d="M247.023,220.711c0-24.489-15.215-39.7-39.7-39.7c-9.839,0-19.264,3.722-26.467,10.136
	c-7.202-6.414-16.628-10.136-26.467-10.136c-24.485,0-39.7,15.211-39.7,39.7c0,25.407,50.538,74.989,66.167,74.989
	S247.023,246.118,247.023,220.711z"/>
<path style="fill:#E987A6;" d="M180.856,277.689c-10.873-5.393-48.522-41.66-48.522-56.978c0-14.84,7.211-22.056,22.056-22.056
	c7.806,0,14.879,3.998,18.911,10.696c3.188,5.298,11.924,5.298,15.112,0c4.032-6.699,11.105-10.696,18.911-10.696
	c14.845,0,22.056,7.215,22.056,22.056C229.378,236.029,191.729,272.296,180.856,277.689z"/>
<g>
	<path style="fill:#334F55;" d="M276.703,338.299c-13.759,13.746-36.133,13.755-49.909,0l-6.238-6.238l-12.475,12.475l6.238,6.238
		c10.321,10.317,23.873,15.478,37.434,15.478c13.552,0,27.104-5.161,37.426-15.478l6.238-6.238l-12.475-12.475L276.703,338.299z"/>
	<path style="fill:#334F55;" d="M357.301,181.011c-9.839,0-19.264,3.722-26.467,10.136c-7.202-6.414-16.628-10.136-26.467-10.136
		c-24.485,0-39.7,15.211-39.7,39.7c0,25.407,50.538,74.989,66.167,74.989c15.628,0,66.167-49.582,66.167-74.989
		C397.001,196.222,381.786,181.011,357.301,181.011z"/>
</g>
<path style="fill:#E987A6;" d="M330.834,277.689c-10.873-5.393-48.522-41.66-48.522-56.978c0-14.84,7.211-22.056,22.056-22.056
	c7.806,0,14.879,3.998,18.911,10.696c3.188,5.298,11.924,5.298,15.112,0c4.032-6.699,11.105-10.696,18.911-10.696
	c14.845,0,22.056,7.215,22.056,22.056C379.356,236.029,341.707,272.296,330.834,277.689z"/>
<g>
</g>
<g>
</g>
<g>
</g>
<g>
</g>
<g>
</g>
<g>
</g>
<g>
</g>
<g>
</g>
<g>
</g>
<g>
</g>
<g>
</g>
<g>
</g>
<g>
</g>
<g>
</g>
<g>
</g>
</svg>
