<?xml version="1.0" encoding="iso-8859-1"?>
<!-- Generator: Adobe Illustrator 19.0.0, SVG Export Plug-In . SVG Version: 6.00 Build 0)  -->
<svg version="1.1" id="Layer_1" xmlns="http://www.w3.org/2000/svg" xmlns:xlink="http://www.w3.org/1999/xlink" x="0px" y="0px"
	 viewBox="0 0 512 512" style="enable-background:new 0 0 512 512;" xml:space="preserve">
<path style="fill:#334F55;" d="M435.048,422.432h-17.826h-44.784h-62.697v-31.785c3.585-1.148,7.063-2.523,10.465-4.042h110.451
	c3.158,0,6.088-1.671,7.706-4.382c1.609-2.72,1.671-6.088,0.157-8.86l-52.542-96.326c18.05-5.201,31.243-20.268,31.243-38.218
	c0-19.465-15.412-35.745-35.827-39.49v-0.815v-26.454l10.12-103.97c2.379-24.404-4.767-44.565-20.1-56.776
	C356.099-0.898,334.87-3.321,311.446,4.516c-18.727,6.752-48.3,16.26-55.446,16.26s-36.614-9.473-55.481-16.278
	c-23.415-7.75-44.758-5.266-60.065,6.98c-15.246,12.184-22.34,32.285-19.969,56.61l10.12,103.971v26.454v0.815
	c-20.415,3.745-35.827,20.025-35.827,39.49c0,17.95,13.193,33.017,31.243,38.218l-52.542,96.326c-1.513,2.773-1.452,6.14,0.157,8.86
	c1.618,2.711,4.548,4.382,7.706,4.382h110.451c3.402,1.519,6.881,2.893,10.465,4.042v31.785h-62.697H94.778H76.952
	c-24.745,0-44.871,20.092-44.871,44.784v35.827c0,4.951,4.006,8.957,8.957,8.957h53.741h44.784h232.876h44.784h53.741
	c4.951,0,8.957-4.006,8.957-8.957v-35.827C479.919,442.524,459.793,422.432,435.048,422.432z"/>
<path style="fill:#EAE8D2;" d="M148.519,292.559v-13.435V261.21v-44.784v-8.957h214.963v8.957v44.784v17.914v13.435
	c0,46.918-38.171,85.089-85.089,85.089h-44.784C186.69,377.648,148.519,339.477,148.519,292.559z"/>
<g>
	<path style="fill:#334F55;" d="M291.827,314.951v-8.957h-17.914v8.957c0,9.875-8.038,17.914-17.914,17.914
		c-9.875,0-17.914-8.038-17.914-17.914v-8.957h-17.914v8.957c0,19.759,16.068,35.827,35.827,35.827S291.827,334.71,291.827,314.951z
		"/>
	<path style="fill:#334F55;" d="M193.303,216.426c-9.875,0-17.914,8.038-17.914,17.914c0,9.875,8.038,17.914,17.914,17.914
		c9.875,0,17.914-8.038,17.914-17.914C211.216,224.465,203.178,216.426,193.303,216.426z"/>
</g>
<polygon style="fill:#EAEAEA;" points="211.216,440.346 300.784,440.346 363.481,440.346 363.481,494.086 148.519,494.086 
	148.519,440.346 "/>
<rect x="148.519" y="180.591" style="fill:#E4AD4B;" width="214.963" height="8.957"/>
<path style="fill:#C59A83;" d="M347.524,368.692c17.935-16.302,30.13-38.763,33.101-64.066l34.944,64.066H347.524z"/>
<path style="fill:#EAE8D2;" d="M399.308,238.818c0,9.72-7.51,17.927-17.914,21.017v-42.034
	C391.798,220.892,399.308,229.098,399.308,238.818z"/>
<path style="fill:#EAEAEA;" d="M151.632,25.474c10.435-8.336,25.803-9.735,43.035-4.05C202.653,24.311,243.142,38.69,256,38.69
	c12.849,0,53.504-14.432,61.324-17.257c17.284-5.79,32.521-4.391,42.93,3.892c10.435,8.301,15.202,22.873,13.435,41.031
	l-9.377,96.329H147.688l-9.377-96.329C136.553,48.26,141.285,33.74,151.632,25.474z"/>
<path style="fill:#EAE8D2;" d="M112.692,238.818c0-9.72,7.51-17.927,17.914-21.017v42.034
	C120.202,256.745,112.692,248.538,112.692,238.818z"/>
<path style="fill:#C59A83;" d="M96.431,368.692l34.944-64.066c2.971,25.303,15.165,47.764,33.101,64.066H96.431z"/>
<g>
	<path style="fill:#EAEAEA;" d="M220.173,394.582c4.409,0.578,8.871,0.98,13.435,0.98h44.784c4.564,0,9.026-0.401,13.435-0.98v27.85
		h-71.654V394.582z"/>
	<path style="fill:#EAEAEA;" d="M49.994,467.216c0-14.817,12.097-26.87,26.958-26.87h8.869v53.741H49.994V467.216z"/>
</g>
<g>
	<rect x="103.735" y="440.337" style="fill:#E4AD4B;" width="26.87" height="53.741"/>
	<rect x="381.395" y="440.337" style="fill:#E4AD4B;" width="26.87" height="53.741"/>
</g>
<path style="fill:#EAEAEA;" d="M462.006,494.086h-35.827v-53.741h8.869c14.861,0,26.958,12.053,26.958,26.87V494.086z"/>
<path style="fill:#334F55;" d="M318.697,252.253c9.875,0,17.914-8.038,17.914-17.914c0-9.875-8.038-17.914-17.914-17.914
	s-17.914,8.038-17.914,17.914C300.784,244.215,308.822,252.253,318.697,252.253z"/>
<g>
</g>
<g>
</g>
<g>
</g>
<g>
</g>
<g>
</g>
<g>
</g>
<g>
</g>
<g>
</g>
<g>
</g>
<g>
</g>
<g>
</g>
<g>
</g>
<g>
</g>
<g>
</g>
<g>
</g>
</svg>
