<?xml version="1.0" encoding="iso-8859-1"?>
<!-- Generator: Adobe Illustrator 19.0.0, SVG Export Plug-In . SVG Version: 6.00 Build 0)  -->
<svg version="1.1" id="Layer_1" xmlns="http://www.w3.org/2000/svg" xmlns:xlink="http://www.w3.org/1999/xlink" x="0px" y="0px"
	 viewBox="0 0 512 512" style="enable-background:new 0 0 512 512;" xml:space="preserve">
<path style="fill:#334F55;" d="M512,112.626c0-53.533-43.552-97.085-97.085-97.085c-42.578,0-80.037,28.003-92.612,67.875
	c-42.647-14.084-89.932-14.092-132.613-0.026C177.114,43.535,139.655,15.54,97.085,15.54C43.552,15.54,0,59.093,0,112.626
	c0,39.622,24.47,75.296,60.601,89.983C49.663,228.57,44.13,256.116,44.13,284.637c0,116.797,95.025,211.823,211.823,211.823
	s211.823-95.025,211.823-211.823c0-28.512-5.533-56.041-16.454-81.994C487.504,187.974,512,152.291,512,112.626z"/>
<path style="fill:#C59A83;" d="M436.893,188.982c-2.491,0.715-4.542,2.491-5.611,4.853c-1.06,2.37-1.034,5.077,0.078,7.421
	c12.454,26.15,18.764,54.205,18.764,83.381c0,107.066-87.105,194.171-194.171,194.171S61.782,391.703,61.782,284.637
	c0-29.176,6.318-57.239,18.781-83.407c1.112-2.336,1.138-5.051,0.078-7.412c-1.069-2.362-3.112-4.146-5.602-4.861
	c-33.787-9.739-57.386-41.13-57.386-76.331c0-43.802,35.631-79.434,79.434-79.434c37.622,0,70.358,26.702,77.839,63.497
	c0.509,2.543,2.12,4.723,4.396,5.973c2.267,1.241,4.965,1.439,7.395,0.517c44.216-16.893,94.37-16.876,138.552,0.026
	c2.413,0.922,5.128,0.733,7.404-0.517c2.276-1.25,3.887-3.43,4.396-5.973c7.49-36.803,40.225-63.523,77.848-63.523
	c43.802,0,79.434,35.631,79.434,79.434C494.348,147.861,470.723,179.26,436.893,188.982z"/>
<g>
	<path style="fill:#334F55;" d="M194.266,249.428c0-9.731-7.921-17.652-17.652-17.652c-9.731,0-17.652,7.921-17.652,17.652
		s7.921,17.652,17.652,17.652C186.345,267.08,194.266,259.159,194.266,249.428z"/>
	<path style="fill:#334F55;" d="M335.481,231.776c-9.731,0-17.652,7.921-17.652,17.652s7.921,17.652,17.652,17.652
		c9.731,0,17.652-7.921,17.652-17.652S345.212,231.776,335.481,231.776z"/>
	<path style="fill:#334F55;" d="M309.003,355.339c0,14.601-9.895,26.478-22.065,26.478c-11.403,0-20.699-10.466-21.839-23.791
		c12.598-4.453,21.839-17.732,21.839-33.578c0-19.471-13.859-35.304-30.891-35.304s-30.891,15.833-30.891,35.304
		c0,15.846,9.24,29.125,21.839,33.578c-1.14,13.325-10.436,23.791-21.839,23.791c-12.17,0-22.065-11.877-22.065-26.478v-8.826
		H185.44v8.826c0,24.332,17.816,44.13,39.717,44.13c12.541,0,23.607-6.619,30.891-16.736c7.284,10.117,18.35,16.736,30.891,16.736
		c21.901,0,39.717-19.798,39.717-44.13v-8.826h-17.652V355.339z"/>
</g>
<path style="fill:#C5D35E;" d="M256.047,306.797c7.18,0,13.239,8.085,13.239,17.652c0,9.567-6.059,17.652-13.239,17.652
	c-7.18,0-13.239-8.085-13.239-17.652C242.809,314.881,248.868,306.797,256.047,306.797z"/>
<g>
</g>
<g>
</g>
<g>
</g>
<g>
</g>
<g>
</g>
<g>
</g>
<g>
</g>
<g>
</g>
<g>
</g>
<g>
</g>
<g>
</g>
<g>
</g>
<g>
</g>
<g>
</g>
<g>
</g>
</svg>
