<?xml version="1.0" encoding="iso-8859-1"?>
<!-- Generator: Adobe Illustrator 19.0.0, SVG Export Plug-In . SVG Version: 6.00 Build 0)  -->
<svg version="1.1" id="Layer_1" xmlns="http://www.w3.org/2000/svg" xmlns:xlink="http://www.w3.org/1999/xlink" x="0px" y="0px"
	 viewBox="0 0 512 512" style="enable-background:new 0 0 512 512;" xml:space="preserve">
<path style="fill:#334F55;" d="M445.537,417.185h-85.241h-47.407v-33.648c3.794-1.215,7.474-2.67,11.076-4.278h116.924
	c3.347,0,6.445-1.769,8.153-4.639c1.708-2.88,1.773-6.445,0.171-9.38l-55.62-101.969c19.108-5.506,33.073-21.455,33.073-40.457
	c0-20.605-16.315-37.839-37.926-41.804v-0.863V56.796C388.741,25.481,363.232,0,331.875,0h-151.75
	c-31.356,0-56.866,25.481-56.866,56.796v123.352v0.863c-21.611,3.965-37.926,21.198-37.926,41.804
	c0,19.002,13.966,34.951,33.074,40.457l-55.62,101.969c-1.602,2.935-1.537,6.5,0.171,9.38c1.708,2.871,4.805,4.639,8.153,4.639
	h116.92c3.603,1.608,7.284,3.064,11.08,4.279v33.646h-47.407H66.463c-26.19,0-47.5,21.269-47.5,47.407v37.926
	c0,5.241,4.245,9.481,9.481,9.481h455.111c5.236,0,9.481-4.241,9.481-9.481v-37.926
	C493.037,438.454,471.727,417.185,445.537,417.185z"/>
<path style="fill:#EAE8D2;" d="M142.222,279.704v-14.222v-18.963v-47.407v-9.481h227.556v9.481v47.407v18.963v14.222
	c0,49.667-40.407,90.074-90.079,90.074h-47.403C182.63,369.778,142.222,329.37,142.222,279.704z"/>
<g>
	<path style="fill:#334F55;" d="M293.926,303.407v-9.481h-18.963v9.481c0,10.454-8.505,18.963-18.963,18.963
		s-18.963-8.509-18.963-18.963v-9.481h-18.963v9.481c0,20.917,17.014,37.926,37.926,37.926S293.926,324.324,293.926,303.407z"/>
	<path style="fill:#334F55;" d="M189.63,199.111c-10.458,0-18.963,8.509-18.963,18.963s8.505,18.963,18.963,18.963
		c10.458,0,18.963-8.509,18.963-18.963S200.088,199.111,189.63,199.111z"/>
</g>
<path style="fill:#E4AD4B;" d="M352.885,360.296c18.987-17.257,31.895-41.034,35.04-67.819l36.991,67.819H352.885z"/>
<path style="fill:#EAE8D2;" d="M407.704,222.815c0,10.289-7.95,18.977-18.963,22.248v-44.497
	C399.753,203.838,407.704,212.526,407.704,222.815z"/>
<path style="fill:#EAEAEA;" d="M142.222,56.796c0-20.861,17.005-37.833,37.903-37.833h151.75c20.898,0,37.903,16.972,37.903,37.833
	v113.87H142.222V56.796z"/>
<path style="fill:#EAE8D2;" d="M104.296,222.815c0-10.289,7.95-18.977,18.963-22.248v44.497
	C112.247,241.792,104.296,233.104,104.296,222.815z"/>
<path style="fill:#E4AD4B;" d="M87.083,360.296l36.991-67.819c3.144,26.785,16.052,50.563,35.038,67.819H87.083z"/>
<g>
	<path style="fill:#EAE8D2;" d="M218.074,387.704c4.667,0.612,9.391,1.037,14.222,1.037h47.403c4.833,0,9.559-0.425,14.227-1.038
		v29.482h-75.852V387.704z"/>
	<polygon style="fill:#EAE8D2;" points="208.593,436.148 303.407,436.148 331.139,436.148 256,490.796 180.861,436.148 	"/>
</g>
<g>
	<path style="fill:#EAEAEA;" d="M37.926,464.593c0-15.685,12.801-28.444,28.537-28.444h82.158l78.222,56.889H37.926V464.593z"/>
	<path style="fill:#EAEAEA;" d="M474.074,493.037H285.157l78.222-56.889h82.158c15.736,0,28.537,12.759,28.537,28.444V493.037z"/>
</g>
<g>
	<path style="fill:#334F55;" d="M322.37,237.037c10.458,0,18.963-8.509,18.963-18.963s-8.505-18.963-18.963-18.963
		c-10.458,0-18.963,8.509-18.963,18.963S311.912,237.037,322.37,237.037z"/>
	<path style="fill:#334F55;" d="M303.407,66.37h-18.963V47.407c0-5.241-4.245-9.481-9.482-9.481h-37.926
		c-5.236,0-9.481,4.241-9.481,9.481V66.37h-18.963c-5.236,0-9.481,4.241-9.481,9.481v37.926c0,5.241,4.245,9.481,9.481,9.481h18.963
		v18.963c0,5.241,4.245,9.481,9.481,9.481h37.926c5.236,0,9.482-4.241,9.482-9.481v-18.963h18.963c5.236,0,9.481-4.241,9.481-9.481
		V75.852C312.889,70.611,308.644,66.37,303.407,66.37z"/>
</g>
<path style="fill:#E6D764;" d="M293.926,104.296h-18.963c-5.236,0-9.481,4.241-9.481,9.481v18.963h-18.963v-18.963
	c0-5.241-4.245-9.481-9.481-9.481h-18.963V85.333h18.963c5.236,0,9.481-4.241,9.481-9.481V56.889h18.963v18.963
	c0,5.241,4.245,9.481,9.481,9.481h18.963V104.296z"/>
<g>
</g>
<g>
</g>
<g>
</g>
<g>
</g>
<g>
</g>
<g>
</g>
<g>
</g>
<g>
</g>
<g>
</g>
<g>
</g>
<g>
</g>
<g>
</g>
<g>
</g>
<g>
</g>
<g>
</g>
</svg>
