<?xml version="1.0" encoding="iso-8859-1"?>
<!-- Generator: Adobe Illustrator 19.0.0, SVG Export Plug-In . SVG Version: 6.00 Build 0)  -->
<svg version="1.1" id="Layer_1" xmlns="http://www.w3.org/2000/svg" xmlns:xlink="http://www.w3.org/1999/xlink" x="0px" y="0px"
	 viewBox="0 0 512 512" style="enable-background:new 0 0 512 512;" xml:space="preserve">
<path style="fill:#334F55;" d="M450.079,160.979L402.364,6.723c-1.24-4-4.937-6.723-9.124-6.723c-4.186,0-7.883,2.723-9.124,6.723
	l-22.494,72.737C329.142,62.583,292.876,53.706,256,53.706c-37.702,0-74.681,9.249-107.688,26.835L125.478,6.723
	c-1.24-4-4.937-6.723-9.124-6.723s-7.883,2.723-9.124,6.723L56.97,169.221c-19.706,34.452-30.117,73.716-30.117,113.632
	C26.853,409.203,129.65,512,256,512s229.147-102.797,229.147-229.147C485.147,239.571,473.026,197.455,450.079,160.979z"/>
<path style="fill:#C59A83;" d="M256,492.904c-115.823,0-210.051-94.229-210.051-210.051c0-36.933,9.716-73.24,28.093-105.007
	c0.359-0.625,0.643-1.277,0.858-1.958l41.455-134.033l17.221,55.674c0.872,2.807,2.979,5.054,5.725,6.098
	c2.737,1.044,5.813,0.765,8.331-0.746C180.233,83.198,217.706,72.802,256,72.802c37.492,0,74.294,10.005,106.429,28.923
	c2.522,1.483,5.58,1.744,8.289,0.681c2.723-1.054,4.816-3.291,5.678-6.079l16.844-54.471l38.97,125.986
	c0.252,0.811,0.615,1.585,1.072,2.303c21.436,33.65,32.769,72.625,32.769,112.709C466.051,398.676,371.823,492.904,256,492.904z"/>
<path style="fill:#334F55;" d="M256.098,302.051c-57.911,0-105.026,36.41-105.026,81.156s47.114,81.156,105.026,81.156
	s105.026-36.41,105.026-81.156S314.009,302.051,256.098,302.051z"/>
<path style="fill:#F1854C;" d="M256.098,445.268c-47.38,0-85.93-27.842-85.93-62.061s38.55-62.061,85.93-62.061
	s85.93,27.842,85.93,62.061S303.478,445.268,256.098,445.268z"/>
<path style="fill:#334F55;" d="M217.907,340.242c-15.795,0-28.643,12.848-28.643,28.643c0,15.795,12.848,28.643,28.643,28.643
	s28.643-12.848,28.643-28.643C246.55,353.091,233.702,340.242,217.907,340.242z"/>
<circle style="fill:#F1854C;" cx="217.904" cy="368.879" r="9.548"/>
<g>
	<path style="fill:#334F55;" d="M170.168,263.86c10.531,0,19.096-8.569,19.096-19.096s-8.564-19.096-19.096-19.096
		s-19.096,8.569-19.096,19.096S159.636,263.86,170.168,263.86z"/>
	<path style="fill:#334F55;" d="M342.028,225.669c-10.531,0-19.096,8.569-19.096,19.096s8.564,19.096,19.096,19.096
		c10.531,0,19.096-8.569,19.096-19.096S352.559,225.669,342.028,225.669z"/>
	<path style="fill:#334F55;" d="M294.289,340.242c-15.795,0-28.643,12.848-28.643,28.643c0,15.795,12.848,28.643,28.643,28.643
		c15.795,0,28.643-12.848,28.643-28.643C322.932,353.091,310.084,340.242,294.289,340.242z"/>
</g>
<circle style="fill:#F1854C;" cx="294.287" cy="368.879" r="9.548"/>
<g>
</g>
<g>
</g>
<g>
</g>
<g>
</g>
<g>
</g>
<g>
</g>
<g>
</g>
<g>
</g>
<g>
</g>
<g>
</g>
<g>
</g>
<g>
</g>
<g>
</g>
<g>
</g>
<g>
</g>
</svg>
