<?xml version="1.0" encoding="iso-8859-1"?>
<!-- Generator: Adobe Illustrator 19.0.0, SVG Export Plug-In . SVG Version: 6.00 Build 0)  -->
<svg version="1.1" id="Layer_1" xmlns="http://www.w3.org/2000/svg" xmlns:xlink="http://www.w3.org/1999/xlink" x="0px" y="0px"
	 viewBox="0 0 512 512" style="enable-background:new 0 0 512 512;" xml:space="preserve">
<path style="fill:#334F55;" d="M446.966,425.22h-88.96l-16.626-58.175c21.145-18.438,36.366-43.496,42.17-71.994h63.366
	c4.797,0,8.678-3.881,8.678-8.678v-95.458c0-4.797-3.881-8.678-8.678-8.678h-0.22C442.14,80.98,358.361,0,256,0
	S69.86,80.98,65.305,182.237h-0.22c-4.797,0-8.678,3.881-8.678,8.678v95.458c0,4.797,3.881,8.678,8.678,8.678h26.034v34.712
	c0,4.525,3.475,8.288,7.983,8.653l49.445,3.953c6.27,9.155,13.732,17.403,22.074,24.676l-16.626,58.175h-88.96
	c-23.898,0-43.339,19.466-43.339,43.39v34.712c0,4.797,3.881,8.678,8.678,8.678h86.78h277.695h86.78
	c4.797,0,8.678-3.881,8.678-8.678V468.61C490.305,444.687,470.864,425.22,446.966,425.22z M108.475,321.754v-26.703h19.976
	c2.077,10.199,5.469,19.898,9.787,29.084L108.475,321.754z"/>
<path style="fill:#C5D35E;" d="M256,17.356c92.788,0,168.814,73.195,173.347,164.881h-43.178v-8.703v-8.653
	c0-4.322-3.178-7.983-7.449-8.593l-121.492-17.356c-0.814-0.119-1.644-0.119-2.458,0L133.28,156.288
	c-4.271,0.61-7.449,4.271-7.449,8.593v8.653v8.703H82.653C87.186,90.551,163.212,17.356,256,17.356z"/>
<path style="fill:#EAE8D2;" d="M158.65,325.767c-9.766-16.686-15.464-36.028-15.464-56.717v-8.712h78.102
	c1.347,0,2.678-0.314,3.881-0.915L256,244.009l30.83,15.415c1.203,0.602,2.534,0.915,3.881,0.915h78.102v8.712
	c0,62.187-50.61,112.78-112.814,112.78c-33.287,0-63.16-14.574-83.828-37.573l44.057,3.522l1.381-17.297L158.65,325.767z"/>
<g>
	<path style="fill:#334F55;" d="M139.61,104.542c12.915-18.068,29.474-32.551,49.229-43.051l7.661-4.076l-8.153-15.322l-7.661,4.076
		c-22.136,11.771-40.704,28.017-55.195,48.288l-5.051,7.059l14.127,10.093L139.61,104.542z"/>
	
		<rect x="229.593" y="325.405" transform="matrix(-0.9864 0.1641 -0.1641 -0.9864 580.5591 620.2011)" style="fill:#334F55;" width="70.137" height="17.353"/>
</g>
<g>
	<path style="fill:#C5D35E;" d="M339.949,425.22h-75.271v-26.473c22.695-1.507,43.802-8.786,61.858-20.482L339.949,425.22z"/>
	<polygon style="fill:#C5D35E;" points="438.237,277.695 386.169,277.695 386.169,269.051 386.169,260.339 386.169,242.983 
		386.169,199.593 438.237,199.593 	"/>
</g>
<g>
	<polygon style="fill:#83A6E2;" points="247.322,228.941 219.237,242.983 143.186,242.983 143.186,190.915 143.186,173.534 
		143.186,172.407 247.322,157.528 	"/>
	<polygon style="fill:#83A6E2;" points="264.678,157.528 368.814,172.407 368.814,173.534 368.814,190.915 368.814,242.983 
		292.763,242.983 264.678,228.941 	"/>
</g>
<g>
	<polygon style="fill:#C5D35E;" points="73.763,277.695 73.763,199.593 125.831,199.593 125.831,242.983 125.831,260.339 
		125.831,269.051 125.831,277.695 108.475,277.695 91.119,277.695 	"/>
	<path style="fill:#C5D35E;" d="M185.464,378.265c18.055,11.695,39.162,18.975,61.858,20.482v26.474h-75.271L185.464,378.265z"/>
</g>
<g>
	<rect x="125.831" y="477.288" style="fill:#E6D764;" width="260.339" height="17.356"/>
	<path style="fill:#E6D764;" d="M472.949,494.644h-69.424V468.61c0-4.797-3.881-8.678-8.678-8.678H117.153
		c-4.797,0-8.678,3.881-8.678,8.678v26.034H39.051V468.61c0-14.356,11.653-26.034,25.983-26.034h95.508H256h95.458h95.508
		c14.331,0,25.983,11.678,25.983,26.034V494.644z"/>
</g>
<g>
</g>
<g>
</g>
<g>
</g>
<g>
</g>
<g>
</g>
<g>
</g>
<g>
</g>
<g>
</g>
<g>
</g>
<g>
</g>
<g>
</g>
<g>
</g>
<g>
</g>
<g>
</g>
<g>
</g>
</svg>
