<?xml version="1.0" encoding="iso-8859-1"?>
<!-- Generator: Adobe Illustrator 19.0.0, SVG Export Plug-In . SVG Version: 6.00 Build 0)  -->
<svg version="1.1" id="Layer_1" xmlns="http://www.w3.org/2000/svg" xmlns:xlink="http://www.w3.org/1999/xlink" x="0px" y="0px"
	 viewBox="0 0 512 512" style="enable-background:new 0 0 512 512;" xml:space="preserve">
<path style="fill:#334F55;" d="M446.967,425.22h-0.051v-17.356H429.56v17.356h-17.356v-17.356h-17.356v17.356h-17.356v-17.356
	h-17.356v17.356h-26.034h-8.678v-26.037c33.502-0.033,60.746-27.263,60.746-60.726v-52.875c19.78-3.629,34.712-19.402,34.712-38.261
	s-14.932-34.633-34.712-38.261v-44.18v-26.034h22.089c1.78,0,3.517-0.551,4.975-1.568l47.335-33.136
	c2.314-1.619,3.691-4.254,3.703-7.076c0.013-2.822-1.347-5.466-3.648-7.102l-97.204-69.17c-1.026-0.729-2.195-1.229-3.432-1.458
	L257.598,0.149c-1.059-0.203-2.161-0.195-3.229,0L154.063,19.336c-1.195,0.229-2.33,0.712-3.331,1.407l-99.289,69.17
	c-2.326,1.618-3.712,4.271-3.716,7.11c-0.004,2.831,1.377,5.491,3.703,7.119l47.335,33.136c1.458,1.017,3.195,1.568,4.975,1.568
	h22.089v26.034v44.18c-19.78,3.629-34.712,19.402-34.712,38.261s14.932,34.633,34.712,38.261v52.875
	c0,33.463,27.244,60.693,60.746,60.726v26.037h-8.678h-26.034v-17.356h-17.356v17.356h-17.356v-17.356H99.796v17.356H82.44v-17.356
	H65.084v17.356h-0.051c-23.898,0-43.339,19.466-43.339,43.39v34.712c0,4.797,3.886,8.678,8.678,8.678h451.257
	c4.792,0,8.678-3.881,8.678-8.678V468.61C490.306,444.686,470.866,425.22,446.967,425.22z"/>
<path style="fill:#EAE8D2;" d="M143.186,338.457v-52.085v-17.356v-43.39V208.27v-25.941c20.093,13.534,59.903,34.619,112.814,34.619
	s92.721-21.085,112.814-34.619v25.941v17.356v43.39v17.356v52.085c0,23.915-19.492,43.373-43.449,43.373h-17.297H203.932h-17.297
	C162.677,381.83,143.186,362.372,143.186,338.457z"/>
<g>
	<rect x="212.61" y="329.765" style="fill:#334F55;" width="86.78" height="17.356"/>
	<rect x="238.644" y="303.731" style="fill:#334F55;" width="34.712" height="17.356"/>
	<path style="fill:#334F55;" d="M212.61,242.981c0-9.568-7.784-17.356-17.356-17.356c-9.572,0-17.356,7.788-17.356,17.356
		c0,9.568,7.784,17.356,17.356,17.356C204.826,260.337,212.61,252.549,212.61,242.981z"/>
</g>
<g>
	<polygon style="fill:#FFFFFF;" points="247.322,462.542 211.385,442.576 247.322,442.576 	"/>
	<polygon style="fill:#FFFFFF;" points="264.678,442.576 300.615,442.576 264.678,462.542 	"/>
</g>
<path style="fill:#EAE8D2;" d="M403.526,247.32c0,9.417-7.277,17.369-17.356,20.363v-40.726
	C396.25,229.952,403.526,237.903,403.526,247.32z"/>
<polygon style="fill:#C5D35E;" points="71.562,97.048 159.139,36.039 256.017,17.506 354.916,36.039 440.543,96.972 
	405.522,121.489 377.492,121.489 134.508,121.489 106.478,121.489 "/>
<rect x="143.186" y="138.844" style="fill:#E6D764;" width="225.628" height="17.356"/>
<path style="fill:#FFFFFF;" d="M349.975,173.557c-19.985,11.742-52.708,26.034-93.975,26.034c-41.08,0-73.835-14.291-93.88-26.034
	H349.975z"/>
<g>
	<path style="fill:#EAE8D2;" d="M108.474,247.32c0-9.417,7.277-17.369,17.356-20.363v40.726
		C115.75,264.689,108.474,256.738,108.474,247.32z"/>
	<polygon style="fill:#EAE8D2;" points="203.932,399.186 308.068,399.186 308.068,425.22 256,425.22 203.932,425.22 	"/>
</g>
<path style="fill:#C5D35E;" d="M472.95,494.644H39.049V468.61c0-14.356,11.657-26.034,25.983-26.034h0.051v17.356H82.44v-17.356
	h17.356v17.356h17.356v-17.356h17.356v17.356h17.356v-17.356h23.786l75.94,42.189c0,0,0.005,0.005,0.008,0.006
	c0.004,0.003,0.01,0.003,0.01,0.003l0.177,0.098c0.377,0.209,0.783,0.322,1.18,0.47c0.281,0.105,0.546,0.257,0.833,0.332
	c0.723,0.19,1.463,0.291,2.203,0.291c0.74,0,1.48-0.101,2.203-0.291c0.288-0.075,0.552-0.227,0.833-0.332
	c0.396-0.149,0.803-0.261,1.18-0.47l0.173-0.096c0,0,0.01-0.003,0.014-0.006c0.003-0.002,0.005-0.005,0.005-0.005l75.943-42.19
	h23.786v17.356h17.356v-17.356h17.356v17.356h17.356v-17.356h17.356v17.356h17.356v-17.356h0.051
	c14.326,0,25.983,11.678,25.983,26.034V494.644z"/>
<g>
	<path style="fill:#334F55;" d="M316.746,260.337c9.572,0,17.356-7.788,17.356-17.356c0-9.568-7.784-17.356-17.356-17.356
		c-9.572,0-17.356,7.788-17.356,17.356C299.39,252.549,307.174,260.337,316.746,260.337z"/>
	<path style="fill:#334F55;" d="M230.169,77.811l-3.127,18.229c-0.555,3.254,0.784,6.542,3.453,8.483
		c2.686,1.949,6.233,2.203,9.14,0.661L256,96.582l16.365,8.602c1.271,0.67,2.657,1,4.038,1c1.797,0,3.589-0.559,5.102-1.661
		c2.67-1.941,4.009-5.229,3.453-8.483l-3.127-18.229l13.242-12.907c2.364-2.305,3.216-5.754,2.195-8.898
		c-1.021-3.136-3.737-5.424-7.009-5.898l-18.292-2.661L263.78,30.87c-2.924-5.932-12.636-5.932-15.559,0l-8.186,16.576
		l-18.292,2.661c-3.271,0.475-5.987,2.763-7.009,5.898c-1.021,3.144-0.169,6.593,2.195,8.898L230.169,77.811z"/>
</g>
<path style="fill:#E6D764;" d="M247.042,63.963c2.826-0.407,5.271-2.186,6.534-4.746L256,54.311l2.424,4.907
	c1.263,2.559,3.708,4.339,6.534,4.746l5.411,0.788l-3.919,3.822c-2.042,1.992-2.975,4.864-2.496,7.678l0.924,5.39l-4.839-2.542
	c-1.263-0.67-2.653-1-4.038-1s-2.775,0.33-4.038,1l-4.839,2.542l0.924-5.39c0.479-2.814-0.453-5.686-2.496-7.678l-3.919-3.822
	L247.042,63.963z"/>
<g>
</g>
<g>
</g>
<g>
</g>
<g>
</g>
<g>
</g>
<g>
</g>
<g>
</g>
<g>
</g>
<g>
</g>
<g>
</g>
<g>
</g>
<g>
</g>
<g>
</g>
<g>
</g>
<g>
</g>
</svg>
