<?xml version="1.0" encoding="iso-8859-1"?>
<!-- Generator: Adobe Illustrator 19.0.0, SVG Export Plug-In . SVG Version: 6.00 Build 0)  -->
<svg version="1.1" id="Layer_1" xmlns="http://www.w3.org/2000/svg" xmlns:xlink="http://www.w3.org/1999/xlink" x="0px" y="0px"
	 viewBox="0 0 512 512" style="enable-background:new 0 0 512 512;" xml:space="preserve">
<path style="fill:#334F55;" d="M446.916,428.925v-21.062H429.56v17.365c-0.029,0-0.056-0.008-0.085-0.008h-17.271v-17.356h-17.356
	v17.356h-17.356v-17.356h-17.356v17.356h-34.712h-17.356v-32.129c2.473-0.88,4.923-1.802,7.307-2.86
	c0.465,0.077,0.885,0.277,1.371,0.277H429.56c3.034,0,5.843-1.585,7.419-4.178c1.572-2.585,1.678-5.814,0.28-8.5l-49.648-95.473
	c14.494-6.33,24.593-19.589,24.593-35.036c0-18.859-14.932-34.633-34.712-38.261v-44.18v-26.034h30.767
	c1.78,0,3.517-0.551,4.975-1.568l47.335-33.136c2.314-1.619,3.691-4.254,3.703-7.076c0.013-2.822-1.347-5.466-3.648-7.102
	l-97.204-69.17c-1.026-0.729-2.195-1.229-3.432-1.458L257.598,0.149c-1.059-0.203-2.161-0.195-3.229,0L154.063,19.336
	c-1.195,0.229-2.33,0.712-3.331,1.407l-99.289,69.17c-2.326,1.618-3.712,4.271-3.716,7.11c-0.004,2.831,1.377,5.491,3.703,7.119
	l47.335,33.136c1.458,1.017,3.195,1.568,4.975,1.568h30.767v26.034v44.18c-19.78,3.629-34.712,19.402-34.712,38.261
	s14.932,34.633,34.712,38.261v9.4c0,45.25,29.041,83.746,69.424,98.109v32.129h-17.356h-34.712v-17.356h-17.356v17.356h-17.356
	v-17.356H99.796v17.356H82.524c-0.029,0-0.056,0.008-0.085,0.008v-17.365H65.084v21.062c-15.298,6.727-26.034,21.958-26.034,39.685
	v34.712c0,4.797,3.886,8.678,8.678,8.678h416.545c4.792,0,8.678-3.881,8.678-8.678V468.61
	C472.95,450.884,462.215,435.652,446.916,428.925z"/>
<path style="fill:#EAE8D2;" d="M151.864,294.982v-8.61v-17.356v-43.39v-17.356v-25.754c19.585,13.534,57.394,34.432,104.136,34.432
	s84.551-20.898,104.136-34.432v25.754v17.356v43.39v17.356v8.61c0,47.89-38.958,86.848-86.844,86.848h-34.585
	C190.822,381.83,151.864,342.872,151.864,294.982z"/>
<g>
	<rect x="221.288" y="329.765" style="fill:#334F55;" width="69.424" height="17.356"/>
	<path style="fill:#334F55;" d="M195.254,225.625c-9.572,0-17.356,7.788-17.356,17.356c0,9.568,7.784,17.356,17.356,17.356
		c9.572,0,17.356-7.788,17.356-17.356C212.61,233.413,204.826,225.625,195.254,225.625z"/>
</g>
<g>
	<polygon style="fill:#FFFFFF;" points="247.322,461.627 216.835,442.576 247.322,442.576 	"/>
	<polygon style="fill:#FFFFFF;" points="264.678,442.576 295.165,442.576 264.678,461.627 	"/>
</g>
<path style="fill:#E4AD4B;" d="M341.966,373.152c20.539-18.068,33.87-44.034,35.271-73.134l38.031,73.134H341.966z"/>
<path style="fill:#EAE8D2;" d="M394.848,247.32c0,9.417-7.277,17.369-17.356,20.363v-40.726
	C387.572,229.952,394.848,237.903,394.848,247.32z"/>
<polygon style="fill:#C5D35E;" points="71.562,97.048 159.139,36.039 256.017,17.506 354.916,36.039 440.543,96.972 
	405.522,121.489 368.814,121.489 143.186,121.489 106.478,121.489 "/>
<rect x="151.864" y="138.844" style="fill:#E6D764;" width="208.272" height="17.356"/>
<path style="fill:#FFFFFF;" d="M341.847,173.557C322.687,185.3,292.036,199.591,256,199.591s-66.687-14.291-85.848-26.034H341.847z"
	/>
<g>
	<path style="fill:#EAE8D2;" d="M117.152,247.32c0-9.417,7.277-17.369,17.356-20.363v40.726
		C124.428,264.689,117.152,256.738,117.152,247.32z"/>
	<path style="fill:#EAE8D2;" d="M221.288,397.609c5.677,0.962,11.473,1.577,17.42,1.577h34.585c5.947,0,11.742-0.615,17.42-1.577
		v27.611H256h-34.712V397.609z"/>
</g>
<path style="fill:#C5D35E;" d="M455.594,494.644H56.406V468.61c0-7.651,3.389-14.472,8.678-19.24v10.562H82.44v-17.348
	c0.029,0,0.056-0.008,0.085-0.008h17.271v17.356h17.356v-17.356h17.356v17.356h17.356v-17.356h32.23l67.309,42.068
	c0.056,0.036,0.122,0.046,0.179,0.079c0.077,0.046,0.133,0.114,0.211,0.158c0.409,0.225,0.848,0.351,1.279,0.506
	c0.225,0.082,0.435,0.2,0.665,0.263c0.742,0.201,1.501,0.316,2.264,0.316c0.763,0,1.522-0.115,2.264-0.316
	c0.229-0.062,0.44-0.181,0.665-0.263c0.431-0.155,0.87-0.282,1.279-0.506c0.078-0.043,0.135-0.112,0.211-0.158
	c0.057-0.034,0.122-0.044,0.179-0.079l67.309-42.068h32.23v17.356h17.356v-17.356h17.356v17.356h17.356v-17.356h17.271
	c0.029,0,0.056,0.008,0.085,0.008v17.348h17.356V449.37c5.289,4.767,8.678,11.589,8.678,19.24V494.644z"/>
<g>
	<path style="fill:#334F55;" d="M316.746,260.337c9.572,0,17.356-7.788,17.356-17.356c0-9.568-7.784-17.356-17.356-17.356
		c-9.572,0-17.356,7.788-17.356,17.356C299.39,252.549,307.174,260.337,316.746,260.337z"/>
	<path style="fill:#334F55;" d="M230.169,77.811l-3.127,18.229c-0.555,3.254,0.784,6.542,3.453,8.483
		c2.682,1.949,6.225,2.203,9.14,0.661L256,96.582l16.365,8.602c1.271,0.67,2.657,1,4.038,1c1.797,0,3.589-0.559,5.102-1.661
		c2.67-1.941,4.009-5.229,3.453-8.483l-3.127-18.229l13.242-12.907c2.364-2.305,3.216-5.754,2.195-8.898
		c-1.021-3.136-3.737-5.424-7.009-5.898l-18.292-2.661L263.78,30.87c-2.924-5.932-12.636-5.932-15.559,0l-8.186,16.576
		l-18.292,2.661c-3.271,0.475-5.987,2.763-7.009,5.898c-1.021,3.144-0.169,6.593,2.195,8.898L230.169,77.811z"/>
</g>
<path style="fill:#E6D764;" d="M247.042,63.963c2.826-0.407,5.271-2.186,6.534-4.746L256,54.311l2.424,4.907
	c1.263,2.559,3.708,4.339,6.534,4.746l5.411,0.788l-3.919,3.822c-2.042,1.992-2.975,4.864-2.496,7.678l0.924,5.39l-4.839-2.542
	c-1.263-0.67-2.653-1-4.038-1s-2.775,0.33-4.038,1l-4.839,2.542l0.924-5.39c0.479-2.814-0.453-5.686-2.496-7.678l-3.919-3.822
	L247.042,63.963z"/>
<g>
</g>
<g>
</g>
<g>
</g>
<g>
</g>
<g>
</g>
<g>
</g>
<g>
</g>
<g>
</g>
<g>
</g>
<g>
</g>
<g>
</g>
<g>
</g>
<g>
</g>
<g>
</g>
<g>
</g>
</svg>
