<?xml version="1.0" encoding="iso-8859-1"?>
<!-- Generator: Adobe Illustrator 19.0.0, SVG Export Plug-In . SVG Version: 6.00 Build 0)  -->
<svg version="1.1" id="Layer_1" xmlns="http://www.w3.org/2000/svg" xmlns:xlink="http://www.w3.org/1999/xlink" x="0px" y="0px"
	 viewBox="0 0 512 512" style="enable-background:new 0 0 512 512;" xml:space="preserve">
<path style="fill:#334F55;" d="M467.579,445.678V300.111c0-89.997-73.24-163.211-163.263-163.211h-13.378l8.958-78.401
	c0.293-2.494-0.508-4.997-2.18-6.871c-1.671-1.878-4.067-2.951-6.582-2.951h-70.578c-2.516,0-4.911,1.073-6.582,2.951
	c-1.671,1.874-2.473,4.377-2.18,6.871l8.958,78.401h-13.378c-90.023,0-163.263,73.214-163.263,163.211v145.567H0v17.644h52.933
	h405.823H512v-17.644H467.579z"/>
<polygon style="fill:#E4AD4B;" points="230.447,66.322 281.243,66.322 273.179,136.9 238.511,136.9 "/>
<path style="fill:#F1854C;" d="M61.756,445.678V300.111c0-80.266,65.323-145.567,145.619-145.567h23.262h50.418h23.262
	c80.296,0,145.619,65.301,145.619,145.567v145.567H61.756z"/>
<path style="fill:#334F55;" d="M194.012,339.811h-70.423c-14.638,0-26.544,11.872-26.544,26.467
	c0,14.595,11.906,26.467,26.544,26.467h70.423c14.638,0,26.544-11.872,26.544-26.467
	C220.556,351.683,208.65,339.811,194.012,339.811z"/>
<g>
	<path style="fill:#EAEAEA;" d="M114.689,366.278c0-4.863,3.989-8.822,8.9-8.822h26.389V375.1h-26.389
		C118.6,375.1,114.689,371.223,114.689,366.278z"/>
	<path style="fill:#EAEAEA;" d="M194.012,375.1h-26.389v-17.645h26.389c4.989,0,8.9,3.877,8.9,8.822
		C202.912,371.141,198.923,375.1,194.012,375.1z"/>
</g>
<path style="fill:#334F55;" d="M379.279,339.811h-70.423c-14.638,0-26.544,11.872-26.544,26.467
	c0,14.595,11.907,26.467,26.544,26.467h70.423c14.638,0,26.544-11.872,26.544-26.467
	C405.823,351.683,393.917,339.811,379.279,339.811z"/>
<g>
	<path style="fill:#EAEAEA;" d="M299.956,366.278c0-4.863,3.989-8.822,8.9-8.822h26.389V375.1h-26.389
		C303.868,375.1,299.956,371.223,299.956,366.278z"/>
	<path style="fill:#EAEAEA;" d="M379.279,375.1H352.89v-17.645h26.389c4.988,0,8.9,3.877,8.9,8.822
		C388.179,371.141,384.19,375.1,379.279,375.1z"/>
</g>
<g>
</g>
<g>
</g>
<g>
</g>
<g>
</g>
<g>
</g>
<g>
</g>
<g>
</g>
<g>
</g>
<g>
</g>
<g>
</g>
<g>
</g>
<g>
</g>
<g>
</g>
<g>
</g>
<g>
</g>
</svg>
