<?xml version="1.0" encoding="iso-8859-1"?>
<!-- Generator: Adobe Illustrator 19.0.0, SVG Export Plug-In . SVG Version: 6.00 Build 0)  -->
<svg version="1.1" id="Layer_1" xmlns="http://www.w3.org/2000/svg" xmlns:xlink="http://www.w3.org/1999/xlink" x="0px" y="0px"
	 viewBox="0 0 512 512" style="enable-background:new 0 0 512 512;" xml:space="preserve">
<path style="fill:#334F55;" d="M438.892,227.99V54.85c0-30.247-24.612-54.85-54.868-54.85c-30.256,0-54.868,24.603-54.868,54.85
	v101.859c-43.732-12.886-92.652-13.77-137.071-2.527V54.886C192.086,24.621,167.474,0,137.218,0S82.351,24.621,82.351,54.886
	v162.388c-29.577,31.855-45.821,71.443-45.821,111.888C36.529,429.976,134.986,512,256,512s219.471-82.025,219.471-182.839
	C475.471,292.896,462.835,257.987,438.892,227.99z"/>
<path style="fill:#77C9C9;" d="M256,493.711c-110.932,0-201.181-73.818-201.181-164.549c0-37.364,14.958-72.594,43.249-101.895
	c1.652-1.697,2.572-3.983,2.572-6.349V54.886c0-20.182,16.405-36.596,36.578-36.596s36.578,16.414,36.578,36.596v111.343
	c0,2.902,1.375,5.626,3.706,7.35c2.322,1.715,5.313,2.25,8.118,1.393c22.477-6.876,46.151-10.368,70.379-10.368
	c27.523,0,54.189,4.474,79.265,13.288c2.813,0.991,5.912,0.554,8.323-1.161c2.42-1.715,3.858-4.501,3.858-7.466V54.85
	c0-20.156,16.405-36.561,36.578-36.561c20.173,0,36.578,16.405,36.578,36.561v176.391c0,2.125,0.741,4.188,2.099,5.832
	c22.558,27.237,34.48,59.083,34.48,92.089C457.182,419.893,366.932,493.711,256,493.711z"/>
<g>
	<path style="fill:#334F55;" d="M173.797,274.338c10.082,0,18.289-8.207,18.289-18.289c0-10.082-8.207-18.289-18.289-18.289
		s-18.289,8.207-18.289,18.289C155.508,266.132,163.715,274.338,173.797,274.338z"/>
	<path style="fill:#334F55;" d="M338.4,237.76c-10.082,0-18.289,8.207-18.289,18.289c0,10.082,8.207,18.289,18.289,18.289
		s18.289-8.207,18.289-18.289C356.689,245.967,348.482,237.76,338.4,237.76z"/>
	<path style="fill:#334F55;" d="M338.4,384.074c0,20.173-16.405,36.578-36.578,36.578c-20.173,0-36.578-16.405-36.578-36.578v-0.627
		c21.111-2.89,36.578-15.63,36.578-31.379c0-17.95-20.084-32.006-45.723-32.006c-25.639,0-45.723,14.056-45.723,32.006
		c0,15.75,15.468,28.489,36.578,31.379v0.627c0,20.173-16.405,36.578-36.578,36.578s-36.578-16.405-36.578-36.578v-9.145h-18.289
		v9.145c0,30.256,24.612,54.868,54.868,54.868c19.074,0,35.888-9.793,45.723-24.603c9.835,14.81,26.649,24.603,45.723,24.603
		c30.256,0,54.868-24.612,54.868-54.868v-9.145H338.4V384.074z"/>
</g>
<path style="fill:#C5D35E;" d="M228.665,352.068c0-6.474,11.734-13.717,27.434-13.717c15.699,0,27.434,7.243,27.434,13.717
	c0,6.474-11.734,13.717-27.434,13.717C240.399,365.784,228.665,358.542,228.665,352.068z"/>
<g>
</g>
<g>
</g>
<g>
</g>
<g>
</g>
<g>
</g>
<g>
</g>
<g>
</g>
<g>
</g>
<g>
</g>
<g>
</g>
<g>
</g>
<g>
</g>
<g>
</g>
<g>
</g>
<g>
</g>
</svg>
