<?xml version="1.0" encoding="iso-8859-1"?>
<!-- Generator: Adobe Illustrator 19.0.0, SVG Export Plug-In . SVG Version: 6.00 Build 0)  -->
<svg version="1.1" id="Layer_1" xmlns="http://www.w3.org/2000/svg" xmlns:xlink="http://www.w3.org/1999/xlink" x="0px" y="0px"
	 viewBox="0 0 512 512" style="enable-background:new 0 0 512 512;" xml:space="preserve">
<path style="fill:#334F55;" d="M451.617,189.742c-5.358-44.596-43.467-78.808-88.95-78.808c-15.067,0-29.675,3.721-42.742,10.829
	c-24.308-38.475-66.017-62.029-110.858-62.029c-58.358,0-109.642,39.454-126.525,96.604C34.392,167.425,0,210.292,0,260.267
	c0,47.358,31.892,89.317,76.8,102.425c0.017,39.983,32.55,72.508,72.533,72.508c20.375,0,39.492-8.467,53.1-23.108
	c20.15,25.35,50.558,40.175,83.433,40.175c41.65,0,79.683-24.667,96.942-62.117c7.367,1.583,14.908,2.383,22.525,2.383
	c58.817,0,106.667-47.85,106.667-106.667C512,244.658,488.467,207.475,451.617,189.742z"/>
<path style="fill:#83A6E2;" d="M477.807,338.341l-2.015-13.607l-8.442,1.25c-5.517,0.817-10.917,1.325-16.042,1.508l-8.525,0.3
	l0.608,17.058l8.533-0.308c5.75-0.2,11.775-0.767,17.925-1.675l5.14-0.761c-16.439,20.322-41.541,33.361-69.656,33.361
	c-8.575,0-17.042-1.208-25.158-3.583c-4.3-1.267-8.817,1.017-10.392,5.192c-13.042,34.767-46.767,58.125-83.917,58.125
	c-30.967,0-59.325-15.658-75.858-41.883c-1.542-2.45-4.233-3.95-7.133-3.983c-0.025,0-0.058,0-0.083,0
	c-2.867,0-5.542,1.442-7.125,3.833c-10.308,15.633-27.625,24.967-46.333,24.967c-30.583,0-55.467-24.883-55.467-55.467
	c0-1.908,0.092-3.8,0.283-5.658c0.433-4.317-2.433-8.275-6.675-9.192c-40.8-8.9-70.408-45.717-70.408-87.55
	c0-43.517,31.042-80.617,73.808-88.217c3.3-0.583,5.95-3.05,6.775-6.3c13.308-52.371,59.117-88.95,111.417-88.95
	c41.508,0,79.983,23.317,100.408,60.846c1.15,2.121,3.15,3.65,5.492,4.217c2.35,0.575,4.825,0.108,6.817-1.25
	c12.067-8.25,26.2-12.613,40.883-12.613c38.242,0,70.042,29.867,72.392,67.992c0.2,3.229,2.208,6.071,5.192,7.333
	c33.217,14.071,54.683,46.471,54.683,82.542C494.933,305.474,488.53,323.572,477.807,338.341z"/>
<g>
	<rect x="187.733" y="315.733" style="fill:#334F55;" width="128" height="17.067"/>
	<path style="fill:#334F55;" d="M341.333,238.933c-9.408,0-17.067,7.654-17.067,17.067c0,9.408,7.658,17.067,17.067,17.067
		c9.408,0,17.067-7.658,17.067-17.067C358.4,246.588,350.742,238.933,341.333,238.933z"/>
	<path style="fill:#334F55;" d="M213.333,256v-17.067H128V256h51.2c0,9.408,7.658,17.067,17.067,17.067S213.333,265.408,213.333,256
		z"/>
	<path style="fill:#334F55;" d="M374.917,287.108l-0.681-1.818c11.316-12.188,18.298-28.454,18.298-46.357
		c0-37.642-30.625-68.267-68.267-68.267S256,201.292,256,238.933s30.625,68.267,68.267,68.267c13.328,0,25.737-3.898,36.258-10.529
		c1.526,3.095,4.223,7.895,8.509,13.346l5.275,6.708l13.417-10.55l-5.275-6.708C377.217,292.808,375.033,287.417,374.917,287.108z"
		/>
</g>
<path style="fill:#C5D35E;" d="M273.067,238.933c0-28.233,22.967-51.2,51.2-51.2s51.2,22.967,51.2,51.2s-22.967,51.2-51.2,51.2
	S273.067,267.167,273.067,238.933z"/>
<path style="fill:#334F55;" d="M405.842,318.567l-7.608-3.867l-7.733,15.217l7.608,3.867c5.458,2.775,11.333,5.05,17.442,6.758
	l8.217,2.3l4.6-16.433l-8.217-2.3C415.117,322.7,410.3,320.833,405.842,318.567z"/>
<g>
</g>
<g>
</g>
<g>
</g>
<g>
</g>
<g>
</g>
<g>
</g>
<g>
</g>
<g>
</g>
<g>
</g>
<g>
</g>
<g>
</g>
<g>
</g>
<g>
</g>
<g>
</g>
<g>
</g>
</svg>
