<?xml version="1.0" encoding="iso-8859-1"?>
<!-- Generator: Adobe Illustrator 19.0.0, SVG Export Plug-In . SVG Version: 6.00 Build 0)  -->
<svg version="1.1" id="Layer_1" xmlns="http://www.w3.org/2000/svg" xmlns:xlink="http://www.w3.org/1999/xlink" x="0px" y="0px"
	 viewBox="0 0 512 512" style="enable-background:new 0 0 512 512;" xml:space="preserve">
<path style="fill:#334F55;" d="M445.78,62.259c0.168-3.19-1.401-6.224-4.099-7.931L357.819,1.362C356.405,0.474,354.772,0,353.103,0
	H163.31c-1.599,0-3.168,0.435-4.543,1.259L70.491,54.224c-2.802,1.681-4.444,4.772-4.271,8.034l8.828,167.724
	c0.246,4.685,4.121,8.362,8.815,8.362v61.793c0,1.125,0.216,2.237,0.629,3.28l25.741,64.349l-4.284,66.423
	c-0.172,2.677,0.879,5.284,2.862,7.091l75.034,68.414c1.625,1.483,3.746,2.306,5.948,2.306h141.241c2.202,0,4.323-0.823,5.948-2.306
	l75.034-68.414c1.983-1.806,3.034-4.414,2.862-7.091l-4.284-66.423l25.741-64.349c0.414-1.043,0.629-2.155,0.629-3.28v-70.401
	L445.78,62.259z"/>
<path style="fill:#C59A83;" d="M165.754,17.655h184.793l77.332,48.841l-8.117,154.194h-18.108V105.931
	c0-2.944-1.47-5.694-3.914-7.332l-65.879-44.138c-1.453-0.974-3.164-1.496-4.914-1.496H190.121c-1.647,0-3.263,0.461-4.664,1.332
	l-70.948,44.138c-2.591,1.612-4.164,4.444-4.164,7.496V220.69H92.69h-0.453l-8.108-154.06L165.754,17.655z"/>
<polygon style="fill:#83A6E2;" points="227.039,291.31 126.966,291.31 120.345,238.345 240.28,238.345 "/>
<path style="fill:#EAE8D2;" d="M282.948,131.483c1.267,0.634,2.616,0.931,3.94,0.931c3.242,0,6.358-1.785,7.905-4.879l26.483-52.966
	c0.637-1.274,0.846-2.615,0.843-3.948h2.144l14.37,9.627l-42.115,92.653c-2.017,4.435-0.056,9.668,4.384,11.685
	c1.181,0.539,2.423,0.793,3.647,0.793c3.353,0,6.56-1.922,8.039-5.177l40.908-89.998L384,110.642V220.69H260.414h-8.828H128V110.836
	l64.642-40.216h110.866L279,119.638C276.819,124,278.586,129.302,282.948,131.483z"/>
<circle style="fill:#D45D57;" cx="331.035" cy="247.172" r="8.828"/>
<path style="fill:#83A6E2;" d="M306.178,238.345c-0.989,2.775-1.627,5.718-1.627,8.828c0,14.604,11.879,26.483,26.483,26.483
	c14.603,0,26.483-11.879,26.483-26.483c0-3.11-0.637-6.053-1.627-8.828h35.764l-6.621,52.965H284.961l-13.241-52.965H306.178z"/>
<path style="fill:#EAE8D2;" d="M419.31,298.44l-25.853,64.625c-0.487,1.224-0.694,2.534-0.612,3.849l4.142,64.181l-69.371,63.25
	H193.211l-69.371-63.25l4.142-64.181c0.082-1.315-0.125-2.625-0.612-3.849l-25.853-64.625v-60.095h1.035l7.861,62.888
	c0.552,4.418,4.306,7.733,8.759,7.733h101.175l-9.808,22.069h-1.384v3.116l-0.944,2.125c-1.216,2.733-0.966,5.892,0.664,8.397
	c0.09,0.138,0.181,0.271,0.28,0.405v3.612h60.086v-17.655h-39.384l15.724-35.379l-1.287-0.571L256,248.263l13.504,54.017
	c0.983,3.927,4.513,6.685,8.565,6.685h114.759c4.453,0,8.207-3.315,8.759-7.733l7.861-62.888h9.863V298.44z"/>
<g>
	<path style="fill:#334F55;" d="M262.181,374.289L256,382.53l-6.181-8.241c-1.996-2.668-5.328-3.978-8.638-3.388l-57.237,10.405
		l3.155,17.371l51.871-9.431l9.97,13.293c1.664,2.224,4.28,3.53,7.06,3.53c2.78,0,5.397-1.306,7.06-3.53l9.97-13.293l51.871,9.431
		l3.155-17.371l-57.237-10.405C267.526,370.31,264.185,371.621,262.181,374.289z"/>
	<rect x="233.932" y="423.724" style="fill:#334F55;" width="44.138" height="17.655"/>
</g>
<g>
</g>
<g>
</g>
<g>
</g>
<g>
</g>
<g>
</g>
<g>
</g>
<g>
</g>
<g>
</g>
<g>
</g>
<g>
</g>
<g>
</g>
<g>
</g>
<g>
</g>
<g>
</g>
<g>
</g>
</svg>
