<?xml version="1.0" encoding="iso-8859-1"?>
<!-- Generator: Adobe Illustrator 19.0.0, SVG Export Plug-In . SVG Version: 6.00 Build 0)  -->
<svg version="1.1" id="Layer_1" xmlns="http://www.w3.org/2000/svg" xmlns:xlink="http://www.w3.org/1999/xlink" x="0px" y="0px"
	 viewBox="0 0 512 512" style="enable-background:new 0 0 512 512;" xml:space="preserve">
<path style="fill:#334F55;" d="M303.329,0h-94.657C124.977,0,56.889,68.055,56.889,151.704v142.222c0,5.236,4.245,9.481,9.481,9.481
	h28.444v94.815c0,62.736,51,113.778,113.685,113.778h95c62.685,0,113.685-51.042,113.685-113.778v-94.815h28.444
	c5.236,0,9.481-4.245,9.481-9.481V151.704C455.111,68.055,387.023,0,303.329,0z"/>
<g>
	<path style="fill:#83A6E2;" d="M208.671,18.963h94.657c60.046,0,110.85,40.055,127.226,94.815H81.446
		C97.821,59.018,148.626,18.963,208.671,18.963z"/>
	<path style="fill:#83A6E2;" d="M434.633,132.741c0.451,3.131,0.807,6.285,1.035,9.481H76.332c0.228-3.197,0.584-6.351,1.035-9.481
		H434.633z"/>
	<path style="fill:#83A6E2;" d="M398.222,398.222c0,52.282-42.491,94.815-94.722,94.815h-95c-52.231,0-94.722-42.533-94.722-94.815
		v-94.815h0.543l6.174,104.991c1.824,30.986,28.574,56.194,59.63,56.194h47.431c5.236,0,9.481-4.245,9.481-9.481v-28.444h47.407
		v28.444c0,5.236,4.245,9.481,9.481,9.481h37.949c31.056,0,57.806-25.208,59.63-56.194l6.174-104.991h0.543V398.222z"/>
</g>
<path style="fill:#EAE8D2;" d="M265.481,322.37v-18.963h113.204l-6.107,103.88c-1.245,21.143-19.505,38.343-40.703,38.343h-28.468
	v-28.444c0-5.236-4.245-9.481-9.481-9.481h-66.37c-5.236,0-9.481,4.245-9.481,9.481v28.444h-37.949
	c-21.199,0-39.458-17.199-40.704-38.343l-6.106-103.88h113.204v18.963H265.481z"/>
<polygon style="fill:#83A6E2;" points="436.148,284.444 407.704,284.444 388.741,284.444 265.481,284.444 246.519,284.444 
	123.259,284.444 104.296,284.444 75.852,284.444 75.852,161.185 436.148,161.185 "/>
<path style="fill:#334F55;" d="M142.139,265.481h227.722c15.639,0,28.361-12.759,28.361-28.444s-12.722-28.444-28.361-28.444
	H142.139c-15.639,0-28.361,12.759-28.361,28.444S126.5,265.481,142.139,265.481z"/>
<path style="fill:#C5D35E;" d="M142.139,227.556h227.722c5.269,0,9.398,4.167,9.398,9.481c0,5.227-4.218,9.481-9.398,9.481H142.139
	c-5.268,0-9.398-4.167-9.398-9.481C132.741,231.81,136.958,227.556,142.139,227.556z"/>
<g>
	<rect x="199.111" y="350.815" style="fill:#334F55;" width="113.778" height="18.963"/>
	<rect x="237.037" y="379.259" style="fill:#334F55;" width="47.407" height="18.963"/>
</g>
<g>
</g>
<g>
</g>
<g>
</g>
<g>
</g>
<g>
</g>
<g>
</g>
<g>
</g>
<g>
</g>
<g>
</g>
<g>
</g>
<g>
</g>
<g>
</g>
<g>
</g>
<g>
</g>
<g>
</g>
</svg>
