<?xml version="1.0" encoding="iso-8859-1"?>
<!-- Generator: Adobe Illustrator 19.0.0, SVG Export Plug-In . SVG Version: 6.00 Build 0)  -->
<svg version="1.1" id="Layer_1" xmlns="http://www.w3.org/2000/svg" xmlns:xlink="http://www.w3.org/1999/xlink" x="0px" y="0px"
	 viewBox="0 0 512 512" style="enable-background:new 0 0 512 512;" xml:space="preserve">
<path style="fill:#334F55;" d="M505.925,233.266l-9.07-25.428c1.806-3.74,1.838-7.132,1.211-9.837
	c-3.821-16.563-31.781-16.298-54.583-11.045c-22.784,5.257-48.034,17.284-44.213,33.856c0.811,3.513,2.781,6.211,5.484,8.324
	l2.987,26.792c0.446,3.997,1.497,8.376,2.97,12.859l-18.234,9.946c-4.027-35.795-9.622-85.132-12.952-112.819h63.9
	c4.042,0,7.616-2.633,8.808-6.499c1.193-3.862-0.27-8.052-3.61-10.33l-50.258-34.315l1.733-37.335
	c0.914-19.678-5.896-38.488-19.174-52.963C367.877,10.253,350.135,1.909,330.87,0.923c-4.015-0.81-17.09-2.516-40.995,2.732
	C262.843,9.592,174.021,53.638,170.34,55.465c-10.685,5.171-20.146,14.894-26.218,26.704L89.21,76.368
	c-17.54-1.809-25.624,5.838-28.896,10.586c-5.658,8.196-5.523,19.124,0.369,30.769l20.099,39.725L62.963,287.247
	c-6.207-3.561-13.186-5.695-20.517-5.695c-22.874,0-41.481,18.607-41.481,41.481c0,13.015,6.118,25.108,16.398,32.942
	c-4.673,11.799-7.18,24.264-7.18,37.056C10.183,458.632,75.055,512,154.789,512c34.851,0,67.96-10.109,94.151-28.608
	C270.175,501.657,299.431,512,330.506,512c62.266,0,112.92-41.71,112.92-92.976c0-11.106-2.491-21.962-7.051-32.141
	c11.064-7.707,18.101-20.829,18.101-35.314c0-23.36-17.945-42.363-40.004-42.363c-6.335,0-12.519,1.627-18.062,4.599
	c-0.433-3.881-1.02-9.127-1.709-15.282l23.482-12.807c3.693,6.668,8.018,12.803,12.56,17.351l13.012,13.017
	c4.636,4.645,12.319,7.346,19.782,7.346c2.566,0,5.109-0.32,7.494-0.99l16.253-4.555c9.456-2.655,17.905-11.207,19.647-19.899
	l2.584-12.886C512.519,270.093,510.944,247.327,505.925,233.266z"/>
<path style="fill:#EAE8D2;" d="M377.347,309.224c-0.005,0.396,0.018,0.801,0.068,1.206l0.761,6.198
	c0.482,4.321,0.761,6.842,0.783,7.013c0.045,0.432,0.126,0.86,0.23,1.269l3.38,27.618c0.347,2.84,1.994,5.356,4.456,6.814
	c24.13,14.272,37.965,36.026,37.965,59.682c0,41.102-42.385,74.54-94.484,74.54c-29.189,0-56.302-10.447-74.391-28.657
	c-3.304-3.335-8.592-3.637-12.274-0.72c-23.837,18.944-55.461,29.378-89.051,29.378c-69.571,0-126.17-45.099-126.17-100.533
	c0-30.035,16.73-58.287,45.896-77.511c2.219-1.463,3.7-3.812,4.06-6.445l0.72-5.241l0.739-0.628l-0.562-0.66l18.758-136.632h262.725
	c3.509,29.005,9.891,85.402,14.042,122.355l-58.141,31.715c-0.986-1.186-2.048-2.302-3.109-3.418
	c0.372-1.008,0.628-2.061,0.628-3.164v-23.036c0-1.618-0.175-3.193-0.493-4.717c0.173,0.009,0.318,0.099,0.493,0.099
	c5.091,0,9.218-4.127,9.218-9.218c0-20.331-14.475-36.872-32.263-36.872c-17.788,0-32.263,16.541-32.263,36.872
	c0,5.091,4.127,9.218,9.218,9.218c0.174,0,0.32-0.09,0.491-0.099c-0.317,1.521-0.491,3.094-0.491,4.708v4.843
	c-1.53-0.102-3.053-0.234-4.609-0.234c-5.091,0-9.218,4.127-9.218,9.218c0,5.091,4.127,9.218,9.218,9.218
	c27.955,0,50.699,22.743,50.699,50.699s-22.743,50.699-50.699,50.699c-27.955,0-50.699-22.743-50.699-50.699
	c0-5.091-4.127-9.218-9.218-9.218c-5.091,0-9.218,4.127-9.218,9.218c0,6.729,1.013,13.219,2.814,19.374
	c-34.863-22.24-63.066-29.058-83.993-20.176c-25.439,10.816-29.22,39.946-29.369,41.179c-0.612,5.055,2.993,9.645,8.048,10.253
	c0.374,0.045,0.747,0.068,1.116,0.068c4.595,0,8.574-3.434,9.137-8.115c0.027-0.198,2.799-19.836,18.283-26.42
	c12.738-5.392,38.118-4.127,86.846,32.672c2.576,1.951,5.798,2.169,8.627,1.153c12.411,11.83,29.164,19.146,47.626,19.146
	c38.123,0,69.134-31.011,69.134-69.134c0-10.144-2.25-19.754-6.191-28.439l50.597-27.6
	C377.258,308.427,377.307,308.866,377.347,309.224z"/>
<path style="fill:#334F55;" d="M166.887,243.343c5.091,0,9.218-4.127,9.218-9.218c0-7.116,6.202-12.904,13.827-12.904
	s13.827,5.788,13.827,12.904v58.25l-25.417-6.354c-4.933-1.224-9.938,1.769-11.18,6.706c-1.233,4.942,1.769,9.947,6.706,11.18
	l36.872,9.218c0.752,0.189,1.503,0.274,2.246,0.274c4.127,0,7.886-2.795,8.934-6.981c0.617-2.473,0.173-4.962-1.044-6.985
	c0.764-1.344,1.318-2.814,1.318-4.47v-60.839c0-17.279-14.475-31.34-32.263-31.34s-32.263,14.061-32.263,31.34
	C157.67,239.216,161.797,243.343,166.887,243.343z"/>
<path style="fill:#F1854C;" d="M75.487,97.419c1.571-2.278,6.09-3.317,11.788-2.714l51.959,5.487v10.415
	c0,5.091,4.127,9.218,9.218,9.218s9.218-4.127,9.218-9.218V96.568c0.241-0.414,0.554-0.774,0.729-1.233
	c3.947-10.307,11.599-19.224,20.056-23.315c25.102-12.472,94.763-45.833,115.373-50.361c22.887-5.027,33.338-2.683,33.365-2.678
	c0.68,0.189,1.382,0.297,2.088,0.324c14.651,0.585,28.162,6.846,38.056,17.63c9.933,10.829,15.029,24.908,14.344,39.644
	l-1.971,42.475c-0.149,3.196,1.368,6.238,4.01,8.039l29.855,20.385H97.75c-0.688-0.842-1.487-1.592-2.44-2.149L77.13,109.395
	C74.546,104.287,73.916,99.701,75.487,97.419z"/>
<g>
	<path style="fill:#EAE8D2;" d="M19.401,323.033c0-12.706,10.339-23.045,23.045-23.045c5.442,0,10.592,1.989,14.709,5.426
		c-12.909,9.727-23.38,21.112-31.139,33.655C21.855,334.801,19.401,329.116,19.401,323.033z"/>
	<path style="fill:#EAE8D2;" d="M414.471,327.642c11.892,0,21.569,10.735,21.569,23.927c0,7.863-3.448,15.007-8.984,19.417
		c-6.969-9.52-15.917-18.08-26.722-25.084l-1.322-10.79C403.071,330.413,408.539,327.642,414.471,327.642z"/>
	<path style="fill:#EAE8D2;" d="M291.329,267.311c-4.926,0-9.473,1.584-13.223,4.229c1.686-7.645,7.028-13.447,13.223-13.447
		c6.196,0,11.538,5.802,13.223,13.449C300.802,268.896,296.256,267.311,291.329,267.311z"/>
</g>
<path style="fill:#334F55;" d="M295.938,290.365v10.249l-9.218-3.074v-7.184c0-2.584,2.025-4.609,4.609-4.609
	C293.828,285.747,295.938,287.862,295.938,290.365z"/>
<path style="fill:#FFFFFF;" d="M447.634,204.919c13.498-3.124,23.945-3.047,29.499-2.084c-4.582,3.313-13.93,7.949-27.424,11.059
	h-0.005c-13.498,3.119-23.927,3.056-29.499,2.084C424.791,212.67,434.14,208.034,447.634,204.919z"/>
<path style="fill:#C59A83;" d="M491.437,281.475l-2.584,12.886c-0.288,1.427-3.25,4.843-6.549,5.77l-16.253,4.555
	c-3.281,0.918-7.949-0.32-9.254-1.634l-13.012-13.017c-8.354-8.363-16.469-24.917-17.725-36.152l-2.116-18.98
	c1.374,0.077,2.756,0.144,4.182,0.144c8.304,0,17.365-1.26,25.727-3.191c10.751-2.478,20.603-6.193,28.252-10.494l6.455,18.096
	C492.481,250.446,493.8,269.688,491.437,281.475z"/>
<g>
</g>
<g>
</g>
<g>
</g>
<g>
</g>
<g>
</g>
<g>
</g>
<g>
</g>
<g>
</g>
<g>
</g>
<g>
</g>
<g>
</g>
<g>
</g>
<g>
</g>
<g>
</g>
<g>
</g>
</svg>
