<?xml version="1.0" encoding="iso-8859-1"?>
<!-- Generator: Adobe Illustrator 19.0.0, SVG Export Plug-In . SVG Version: 6.00 Build 0)  -->
<svg version="1.1" id="Layer_1" xmlns="http://www.w3.org/2000/svg" xmlns:xlink="http://www.w3.org/1999/xlink" x="0px" y="0px"
	 viewBox="0 0 512 512" style="enable-background:new 0 0 512 512;" xml:space="preserve">
<path style="fill:#334F55;" d="M467.862,404.088V258.433c0-30.94-8.683-60.7-25.002-86.67l13.696-13.696
	c7.5-7.496,11.621-17.474,11.616-28.095c-0.009-10.608-4.142-20.578-11.634-28.065c-7.5-7.504-17.47-11.642-28.069-11.651
	c-0.009,0-0.017,0-0.026,0c-10.599,0-20.565,4.134-28.065,11.634l-14.795,14.795c-24.598-14.08-52.572-21.562-81.08-21.562h-97.009
	c-30.656,0-59.261,8.64-83.8,23.386l-16.618-16.619c-7.5-7.504-17.465-11.633-28.065-11.633c-0.009,0-0.017,0-0.026,0
	c-10.599,0.009-20.569,4.147-28.069,11.651c-7.491,7.487-11.625,17.457-11.634,28.065c-0.004,10.621,4.116,20.599,11.616,28.095
	l16.615,16.614c-14.74,24.526-23.378,53.115-23.378,83.752v145.655H0v17.655h52.966h70.621h44.138h26.483h247.172h17.655H512
	v-17.655L467.862,404.088L467.862,404.088z"/>
<g>
	<path style="fill:#83A6E2;" d="M428.444,107.912h0.013c5.888,0.004,11.427,2.306,15.599,6.478c4.16,4.16,6.457,9.698,6.461,15.599
		c0.004,5.897-2.285,11.435-6.444,15.595l-11.648,11.649c-9.174-11.553-19.809-21.985-31.721-30.703l12.158-12.157
		C417.03,110.205,422.56,107.912,428.444,107.912z"/>
	<path style="fill:#83A6E2;" d="M63.384,145.584c-4.16-4.16-6.448-9.698-6.444-15.595c0.004-5.901,2.302-11.44,6.461-15.599
		c4.172-4.172,9.711-6.474,15.599-6.478c0.004,0,0.009,0,0.013,0c5.884,0,11.414,2.297,15.582,6.461l14.22,14.22
		c-11.766,8.959-22.254,19.446-31.213,31.209L63.384,145.584z"/>
	<path style="fill:#83A6E2;" d="M441.379,404.088H194.207h-26.483h-44.138H61.793V258.433c0-80.315,65.362-145.655,145.703-145.655
		h97.009c26.03,0,51.578,6.944,73.875,20.078c17.927,10.565,33.707,25.168,45.642,42.237c17.129,24.508,26.186,53.327,26.186,83.34
		v145.655L441.379,404.088L441.379,404.088z"/>
</g>
<g>
	<path style="fill:#334F55;" d="M370.759,227.537h-52.966c-4.875,0-8.828,3.953-8.828,8.828c0,4.875,3.953,8.828,8.828,8.828h52.966
		c4.875,0,8.828-3.953,8.828-8.828C379.586,231.489,375.634,227.537,370.759,227.537z"/>
	<path style="fill:#334F55;" d="M370.759,254.02h-52.966c-4.875,0-8.828,3.953-8.828,8.828s3.953,8.828,8.828,8.828h52.966
		c4.875,0,8.828-3.953,8.828-8.828S375.634,254.02,370.759,254.02z"/>
	<path style="fill:#334F55;" d="M141.241,245.192h52.966c4.875,0,8.828-3.953,8.828-8.828c0-4.875-3.953-8.828-8.828-8.828h-52.966
		c-4.875,0-8.828,3.953-8.828,8.828C132.414,241.239,136.366,245.192,141.241,245.192z"/>
	<path style="fill:#334F55;" d="M203.034,262.847c0-4.875-3.953-8.828-8.828-8.828h-52.966c-4.875,0-8.828,3.953-8.828,8.828
		s3.953,8.828,8.828,8.828h52.966C199.082,271.675,203.034,267.722,203.034,262.847z"/>
	<rect x="176.552" y="333.479" style="fill:#334F55;" width="158.897" height="17.655"/>
</g>
<g>
</g>
<g>
</g>
<g>
</g>
<g>
</g>
<g>
</g>
<g>
</g>
<g>
</g>
<g>
</g>
<g>
</g>
<g>
</g>
<g>
</g>
<g>
</g>
<g>
</g>
<g>
</g>
<g>
</g>
</svg>
