<?xml version="1.0" encoding="iso-8859-1"?>
<!-- Generator: Adobe Illustrator 19.0.0, SVG Export Plug-In . SVG Version: 6.00 Build 0)  -->
<svg version="1.1" id="Layer_1" xmlns="http://www.w3.org/2000/svg" xmlns:xlink="http://www.w3.org/1999/xlink" x="0px" y="0px"
	 viewBox="0 0 512 512" style="enable-background:new 0 0 512 512;" xml:space="preserve">
<path style="fill:#334F55;" d="M450.062,423.813H326.549v-50.778c35.68-26.713,59.756-72.896,61.45-125.596h0.28
	c24.312,0,44.093-17.801,44.093-39.684c0-20.19-16.9-36.718-38.6-39.184l3.325-43.922c0-62.609-48.976-119.655-106.961-124.564
	c-0.241-0.026-0.482-0.034-0.732-0.034L222.921,0c-58.553,4.237-108.02,61.317-107.994,125.322l3.292,43.251
	c-21.696,2.469-38.593,18.996-38.593,39.183c0,21.883,19.782,39.684,44.093,39.684h0.283c1.879,52.836,25.906,98.906,61.448,125.565
	v50.808H61.938c-24.286,0-44.042,19.782-44.042,44.093v35.275c0,4.874,3.944,8.819,8.819,8.819h458.571
	c4.874,0,8.819-3.944,8.819-8.819v-35.275C494.104,443.595,474.348,423.813,450.062,423.813z"/>
<path style="fill:#63CB6B;" d="M141.331,240.154l-1.459-19.17h19.122v26.404c0,14.615,11.859,26.508,26.439,26.508h35.309
	c14.58,0,26.439-11.893,26.439-26.508v-44.042c0-4.874-3.944-8.819-8.819-8.819h-70.549c-4.874,0-8.819,3.944-8.819,8.819h-20.465
	l-5.991-78.696c0-47.504,37.643-103.154,91.011-107.038l65.46,0.078c43.749,3.918,90.452,47.719,90.478,106.289l-6.008,79.368
	h-20.474c0-4.874-3.944-8.819-8.819-8.819h-70.549c-4.874,0-8.819,3.944-8.819,8.819v44.042c0,14.615,11.859,26.508,26.439,26.508
	h35.309c14.58,0,26.439-11.893,26.439-26.508v-26.404h19.139l-1.502,19.842c0,76.586-51.431,138.894-114.643,138.894
	S141.357,317.412,141.331,240.154z"/>
<g>
	<path style="fill:#334F55;" d="M158.995,97.522v8.819h17.637v-8.819c0-24.312,19.782-44.093,44.093-44.093h8.819V35.791h-8.819
		C186.691,35.791,158.995,63.488,158.995,97.522z"/>
	<path style="fill:#334F55;" d="M289.923,325.249l4.694-7.467l-14.942-9.378l-4.685,7.475c-4.134,6.588-11.23,10.515-18.989,10.515
		h-8.819v17.637H256C269.865,344.032,282.551,337.013,289.923,325.249z"/>
</g>
<g>
	<path style="fill:#63CB6B;" d="M414.736,207.756c0,11.913-11.41,21.584-25.591,21.974l3.305-43.67
		C405.051,187.74,414.736,196.785,414.736,207.756z"/>
	<path style="fill:#63CB6B;" d="M97.264,207.756c0-10.97,9.685-20.016,22.287-21.696l3.325,43.671
		C108.685,229.35,97.264,219.675,97.264,207.756z"/>
</g>
<g>
	<path style="fill:#FFFFFF;" d="M176.632,212.165h20.092c-1.52,2.605-2.454,5.592-2.454,8.819c0,9.723,7.914,17.637,17.637,17.637
		s17.637-7.914,17.637-17.637c0-3.226-0.934-6.214-2.454-8.819h2.454v8.819v26.404c0,4.892-3.944,8.87-8.801,8.87h-35.309
		c-4.935,0-8.801-3.893-8.801-8.87v-26.404V212.165z"/>
	<path style="fill:#FFFFFF;" d="M300.093,238.621c9.723,0,17.637-7.914,17.637-17.637c0-3.226-0.934-6.214-2.454-8.819h20.092v8.819
		v26.404c0,4.892-3.944,8.87-8.801,8.87h-35.309c-4.935,0-8.802-3.893-8.802-8.87v-26.404v-8.819h2.454
		c-1.52,2.605-2.454,5.592-2.454,8.819C282.456,230.706,290.37,238.621,300.093,238.621z"/>
</g>
<path style="fill:#63CB6B;" d="M203.088,384.196c16.22,8.415,34.097,13.161,52.912,13.161s36.693-4.744,52.912-13.148v39.604
	H203.088V384.196z"/>
<g>
	<polygon style="fill:#C59A83;" points="284.557,441.451 256,465.245 227.443,441.451 	"/>
	<path style="fill:#C59A83;" d="M476.467,494.363H35.533v-26.456c0-14.589,11.841-26.456,26.404-26.456h132.332h5.618l50.463,42.052
		c1.636,1.361,3.643,2.041,5.649,2.041c2.007,0,4.013-0.68,5.649-2.041l50.463-42.052h5.618h132.332
		c14.563,0,26.404,11.867,26.404,26.456V494.363z"/>
</g>
<g>
</g>
<g>
</g>
<g>
</g>
<g>
</g>
<g>
</g>
<g>
</g>
<g>
</g>
<g>
</g>
<g>
</g>
<g>
</g>
<g>
</g>
<g>
</g>
<g>
</g>
<g>
</g>
<g>
</g>
</svg>
