<?xml version="1.0" encoding="iso-8859-1"?>
<!-- Generator: Adobe Illustrator 19.0.0, SVG Export Plug-In . SVG Version: 6.00 Build 0)  -->
<svg version="1.1" id="Layer_1" xmlns="http://www.w3.org/2000/svg" xmlns:xlink="http://www.w3.org/1999/xlink" x="0px" y="0px"
	 viewBox="0 0 512 512" style="enable-background:new 0 0 512 512;" xml:space="preserve">
<path style="fill:#334F55;" d="M457.643,264.393c-12-7.996-18.786-13.179-18.786-26.679v-80.612c0.088-0.795,0.088-1.565-0.04-2.371
	C438.392,69.343,368.854,0,283.384,0h-54.768C142.884,0,73.143,69.732,73.143,155.446v82.268c0,14.875-8.696,22.411-19.705,31.951
	c-12.187,10.567-26.009,22.54-26.009,45.763c0,39.429,44.491,149.621,46.384,154.29c1.402,3.451,4.75,5.71,8.473,5.71h54.857v9.143
	c0,4.196,2.857,7.853,6.928,8.871C147.098,494.201,218.732,512,256,512s108.902-17.799,111.929-18.558
	c4.071-1.018,6.928-4.674,6.928-8.871v-9.143h54.857c3.813,0,7.223-2.366,8.563-5.933c1.893-5.04,46.295-123.906,46.295-163.21
	C484.571,282.348,469.643,272.393,457.643,264.393z"/>
<path style="fill:#D8D8D8;" d="M334.426,348.547c-0.238-0.189-0.379-0.454-0.64-0.623l-77.393-49.96
	c-3.018-1.947-6.893-1.947-9.911,0l-77.384,49.96c-1.336,0.862-2.251,2.06-2.959,3.365c-18.208,4.557-33.343,9.252-42.131,12.148
	L83.074,265.21c4.932-7.194,8.354-15.952,8.354-27.496v-6.988l11.045,22.086c3.375,6.755,9.089,11.504,16.098,13.371
	c2.053,0.545,4.152,0.813,6.259,0.813c4.991,0,10-1.513,14.357-4.415l93.03-62.022c7.885,0.385,15.819,0.585,23.782,0.585
	c7.964,0,15.892-0.209,23.772-0.593l93.041,62.03c4.357,2.902,9.366,4.415,14.357,4.415c2.107,0,4.205-0.268,6.259-0.813
	c7.009-1.866,12.723-6.616,16.098-13.366l11.045-22.087v6.985c0,11.779,3.632,20.147,8.732,26.589l-41.312,99.134
	C377.417,359.953,357.708,353.864,334.426,348.547z"/>
<path style="fill:#C59A83;" d="M288.416,340.402c-10.914-1.304-21.858-2.116-32.416-2.116c-14.294,0-29.292,1.462-43.962,3.681
	l39.399-25.435L288.416,340.402z"/>
<g>
	<path style="fill:#E6D764;" d="M202.902,198.125l-73.858,49.241c-1.839,1.228-3.884,1.656-5.768,1.143
		c-1.875-0.496-3.446-1.871-4.446-3.871l-27.402-54.799v-19.652C124.411,184.118,162.544,193.655,202.902,198.125z"/>
	<path style="fill:#E6D764;" d="M420.571,189.839l-27.402,54.804c-1,1.995-2.571,3.371-4.446,3.866
		c-1.866,0.504-3.92,0.089-5.768-1.143l-73.841-49.23c40.355-4.468,78.456-13.996,111.457-27.932V189.839z"/>
</g>
<path style="fill:#D8D8D8;" d="M228.616,18.286h54.768c73.909,0,134.194,58.81,136.927,132.085
	C374.154,171.28,316.176,182.857,256,182.857c-60.096,0-118.197-11.556-164.316-32.451C94.367,77.122,154.675,18.286,228.616,18.286
	z"/>
<path style="fill:#EAEAEA;" d="M356.571,477.371c-18.928,4.464-71.991,16.344-100.571,16.344c-28.58,0-81.643-11.88-100.571-16.344
	v-1.942v-18.286v-18.286h45.714c13.536,0,24.232-13.366,34.571-26.29c6.187-7.732,15.536-19.424,20.286-19.424
	c4.75,0,14.098,11.692,20.286,19.424c10.339,12.924,21.036,26.29,34.571,26.29h45.714v18.286v18.286V477.371z"/>
<path style="fill:#D8D8D8;" d="M423.357,457.143h-48.5v-27.429c0-5.049-4.089-9.143-9.143-9.143h-54.857
	c-4.75,0-14.098-11.692-20.286-19.424c-10.339-12.924-21.036-26.29-34.571-26.29c-13.536,0-24.232,13.366-34.571,26.29
	c-6.187,7.732-15.536,19.424-20.286,19.424h-54.857c-5.053,0-9.143,4.094-9.143,9.143v27.429h-48.67
	c-13.786-34.746-42.759-113.594-42.759-141.714c0-14.871,8.696-22.406,19.705-31.947c1.32-1.145,2.661-2.317,4-3.507l41,98.4
	c1.455,3.496,4.848,5.625,8.437,5.625c1.027,0,2.071-0.174,3.098-0.54c0.75-0.268,75.366-26.888,134.045-26.888
	c58.607,0,133.304,26.621,134.045,26.888c4.607,1.638,9.67-0.589,11.536-5.085l42.2-101.281c1.254,0.862,2.507,1.71,3.719,2.518
	c12,7.995,18.786,13.178,18.786,26.674C466.286,334.558,437.134,419.688,423.357,457.143z"/>
<g>
</g>
<g>
</g>
<g>
</g>
<g>
</g>
<g>
</g>
<g>
</g>
<g>
</g>
<g>
</g>
<g>
</g>
<g>
</g>
<g>
</g>
<g>
</g>
<g>
</g>
<g>
</g>
<g>
</g>
</svg>
