<?xml version="1.0" encoding="iso-8859-1"?>
<!-- Generator: Adobe Illustrator 19.0.0, SVG Export Plug-In . SVG Version: 6.00 Build 0)  -->
<svg version="1.1" id="Layer_1" xmlns="http://www.w3.org/2000/svg" xmlns:xlink="http://www.w3.org/1999/xlink" x="0px" y="0px"
	 viewBox="0 0 512 512" style="enable-background:new 0 0 512 512;" xml:space="preserve">
<path style="fill:#334F55;" d="M450.129,423.724H345.978l45.711-18.285c3.354-1.345,5.552-4.586,5.552-8.198V185.319
	c0-62.09-46.139-113.482-105.931-122.109V8.828c0-4.879-3.948-8.828-8.828-8.828h-52.966c-4.879,0-8.828,3.948-8.828,8.828v54.382
	c-59.793,8.628-105.931,60.019-105.931,122.109v211.923c0,3.612,2.198,6.854,5.552,8.198l45.711,18.285H61.793
	c-24.336,0-44.138,19.802-44.138,44.138v35.31c0,4.879,3.948,8.828,8.828,8.828h459.034c4.879,0,8.828-3.948,8.828-8.828v-35.31
	C494.345,443.526,474.509,423.724,450.129,423.724z"/>
<polygon style="fill:#E65F58;" points="238.345,61.793 238.345,17.655 273.655,17.655 273.655,61.793 273.604,61.793 
	238.396,61.793 "/>
<path style="fill:#E6D764;" d="M132.414,391.267V185.319c0-58.379,47.543-105.871,105.983-105.871h35.207
	c58.44,0,105.983,47.491,105.983,105.871v205.948l-114.759,45.9v-94.642h-17.655v94.642l-31.966-12.786v-0.658h-1.645
	L132.414,391.267z"/>
<path style="fill:#E4AD4B;" d="M476.69,494.345h-97.103v-35.31h-17.655v35.31H158.897v-35.31h-17.655v35.31H35.31v-26.483
	c0-14.603,11.879-26.483,26.483-26.483h148.366l42.565,17.026c1.052,0.422,2.164,0.629,3.276,0.629s2.224-0.207,3.276-0.629
	l44.974-17.99v0.964h145.879c14.646,0,26.56,11.879,26.56,26.483V494.345z"/>
<path style="fill:#334F55;" d="M361.931,273.655v-44.138c0-4.879-3.948-8.828-8.828-8.828H158.897c-4.879,0-8.828,3.948-8.828,8.828
	v44.138c0,4.879,3.948,8.828,8.828,8.828h194.207C357.983,282.483,361.931,278.534,361.931,273.655z"/>
<path style="fill:#EAE8D2;" d="M344.276,264.828H167.724v-26.483h17.655c0,9.733,7.922,17.655,17.655,17.655
	c9.733,0,17.655-7.922,17.655-17.655h70.621c0,9.733,7.922,17.655,17.655,17.655s17.655-7.922,17.655-17.655h17.655V264.828z"/>
<g>
</g>
<g>
</g>
<g>
</g>
<g>
</g>
<g>
</g>
<g>
</g>
<g>
</g>
<g>
</g>
<g>
</g>
<g>
</g>
<g>
</g>
<g>
</g>
<g>
</g>
<g>
</g>
<g>
</g>
</svg>
