<?xml version="1.0" encoding="iso-8859-1"?>
<!-- Generator: Adobe Illustrator 19.0.0, SVG Export Plug-In . SVG Version: 6.00 Build 0)  -->
<svg version="1.1" id="Layer_1" xmlns="http://www.w3.org/2000/svg" xmlns:xlink="http://www.w3.org/1999/xlink" x="0px" y="0px"
	 viewBox="0 0 512 512" style="enable-background:new 0 0 512 512;" xml:space="preserve">
<path style="fill:#334F55;" d="M438.767,420.572h-36.482h-91.428v-33.851c42.545-15.133,73.142-55.69,73.142-103.363v-9.903
	c20.839-3.823,36.571-20.441,36.571-40.311s-15.732-36.488-36.571-40.311v-37.403c5.053,0,9.143-4.089,9.143-9.143v-64
	c0-5.053-4.089-9.143-9.143-9.143h-9.143v-64c0-2.911-1.384-5.652-3.741-7.375c-2.339-1.714-5.366-2.196-8.152-1.348
	C362.249,0.655,291.419,22.86,256,22.86c-34.098,0-106.285-22.223-107.008-22.446c-2.75-0.866-5.777-0.357-8.134,1.375
	c-2.33,1.723-3.714,4.455-3.714,7.357v64h-9.143c-5.053,0-9.143,4.089-9.143,9.143v64c0,5.053,4.089,9.143,9.143,9.143v37.403
	c-20.839,3.823-36.571,20.441-36.571,40.311c0,18.323,13.467,33.702,31.892,39.011l-53.633,98.327
	c-1.545,2.83-1.482,6.268,0.161,9.045c1.652,2.768,4.643,4.473,7.866,4.473H192c0.514,0,0.957-0.21,1.448-0.292
	c2.511,1.114,5.09,2.085,7.695,3.012v33.851h-91.428H73.233c-25.259,0-45.803,20.509-45.803,45.714v36.571
	c0,5.053,4.089,9.143,9.143,9.143h438.854c5.053,0,9.143-4.089,9.143-9.143v-36.571C484.57,441.081,464.025,420.572,438.767,420.572
	z"/>
<path style="fill:#C59A83;" d="M365.713,283.359c0,50.455-41.044,91.499-91.499,91.499h-36.429
	c-50.455,0-91.499-41.044-91.499-91.499v-9.072v-18.286v-45.714v-18.286v-27.134c20.634,14.259,60.473,36.277,109.714,36.277
	s89.08-22.018,109.714-36.277v27.134v18.286v45.714v18.286V283.359z"/>
<g>
	<path style="fill:#334F55;" d="M268.803,312.68c-4.759,3.562-10.973,7.053-12.58,7.33c-2.053-0.277-8.268-3.768-13.027-7.33
		l-7.321-5.464l-10.955,14.616l7.312,5.482c4.393,3.304,15.509,10.973,23.768,10.973c8.259,0,19.375-7.67,23.768-10.973l7.312-5.482
		l-10.955-14.616L268.803,312.68z"/>
	<path style="fill:#334F55;" d="M192,210.288c-10.08,0-18.286,8.205-18.286,18.286s8.205,18.286,18.286,18.286
		s18.286-8.205,18.286-18.286S202.081,210.288,192,210.288z"/>
</g>
<polygon style="fill:#FCFCFC;" points="265.143,438.858 301.714,438.858 342.374,438.858 265.143,462.991 "/>
<path style="fill:#C59A83;" d="M402.285,233.145c0,9.922-7.666,18.299-18.286,21.454v-42.907
	C394.618,214.846,402.285,223.223,402.285,233.145z"/>
<path style="fill:#77C9C9;" d="M155.429,21.396c22.67,6.518,72.187,19.75,100.571,19.75c29.33,0,78.107-13.152,100.571-19.696
	v51.696h-65.298c-4.088-15.73-18.279-27.428-35.273-27.428s-31.186,11.698-35.273,27.428h-65.298V21.396z"/>
<path style="fill:#C5D35E;" d="M256,64.003c10.08,0,18.286,8.205,18.286,18.286S266.08,100.574,256,100.574
	c-10.08,0-18.286-8.205-18.286-18.286S245.919,64.003,256,64.003z"/>
<path style="fill:#77C9C9;" d="M137.143,91.431h9.143h74.44c4.088,15.73,18.279,27.428,35.273,27.428s31.186-11.698,35.273-27.428
	h74.44h9.143v45.714H137.143V91.431z"/>
<path style="fill:#FFFFFF;" d="M346.443,155.431c-20.186,12.372-52.477,27.428-90.443,27.428s-70.257-15.056-90.443-27.428H346.443z
	"/>
<path style="fill:#C59A83;" d="M109.715,233.145c0-9.922,7.666-18.299,18.286-21.454v42.907
	C117.381,251.444,109.715,243.067,109.715,233.145z"/>
<path style="fill:#F1854C;" d="M93.117,365.715l36.187-66.345c3.87,26.298,17.043,49.556,36.129,66.345H93.117z"/>
<path style="fill:#C59A83;" d="M219.429,391.482c5.983,1.013,12.09,1.662,18.357,1.662h36.428c6.267,0,12.374-0.648,18.357-1.662
	v29.09H256h-36.571V391.482z"/>
<polygon style="fill:#FCFCFC;" points="210.286,438.858 246.857,438.858 246.857,462.991 169.625,438.858 "/>
<path style="fill:#77C9C9;" d="M466.284,493.714H45.715v-27.428c0-15.125,12.348-27.428,27.518-27.428h35.101l144.802,45.25
	c0.021,0.007,0.041,0.013,0.062,0.019l0.079,0.024c0.893,0.286,1.813,0.42,2.723,0.42s1.83-0.134,2.723-0.42l0.079-0.024
	c0.021-0.007,0.041-0.013,0.062-0.019l144.802-45.25h35.101c15.17,0,27.518,12.303,27.518,27.428V493.714z"/>
<path style="fill:#334F55;" d="M319.999,210.288c-10.08,0-18.286,8.205-18.286,18.286s8.205,18.286,18.286,18.286
	c10.08,0,18.286-8.205,18.286-18.286S330.08,210.288,319.999,210.288z"/>
<g>
</g>
<g>
</g>
<g>
</g>
<g>
</g>
<g>
</g>
<g>
</g>
<g>
</g>
<g>
</g>
<g>
</g>
<g>
</g>
<g>
</g>
<g>
</g>
<g>
</g>
<g>
</g>
<g>
</g>
</svg>
