<?xml version="1.0" encoding="iso-8859-1"?>
<!-- Generator: Adobe Illustrator 19.0.0, SVG Export Plug-In . SVG Version: 6.00 Build 0)  -->
<svg version="1.1" id="Layer_1" xmlns="http://www.w3.org/2000/svg" xmlns:xlink="http://www.w3.org/1999/xlink" x="0px" y="0px"
	 viewBox="0 0 512 512" style="enable-background:new 0 0 512 512;" xml:space="preserve">
<path style="fill:#334F55;" d="M507.25,33.781c-3.218-1.818-7.236-1.564-10.191,0.7l-72.22,54.811
	C395.02,36.856,340.15,4.659,279.281,4.659h-37.254c-61.954,0-119.472,35.043-148.261,89.646L14.94,34.481
	c-2.945-2.25-6.964-2.514-10.191-0.7c-3.236,1.818-5.082,5.386-4.7,9.072l18.618,179.529c0.336,3.2,2.3,6,5.191,7.409l50.904,24.79
	c-0.077,0.482-0.286,0.916-0.286,1.418v27.927c0,0.505,0.045,1.009,0.118,1.505l23.272,141.961c0.345,2.068,1.373,3.964,2.918,5.373
	l79.126,72.144c1.718,1.564,3.954,2.432,6.272,2.432h148.943c2.318,0,4.554-0.868,6.273-2.432l79.126-72.144
	c1.546-1.409,2.573-3.304,2.918-5.373l23.272-141.961c0.073-0.495,0.118-1,0.118-1.505V256c0-1.975-0.753-3.706-1.802-5.213
	l43.11-20.995c2.891-1.409,4.855-4.209,5.191-7.409L511.95,42.853C512.332,39.167,510.487,35.599,507.25,33.781z"/>
<path style="fill:#EAE8D2;" d="M331.517,488.723H189.792l-74.071-67.535l-6.264-38.209c0.205-0.242,0.444-0.441,0.627-0.709
	l56.701-82.871l59.468,28.962l21.855,34.969c1.7,2.723,4.682,4.377,7.891,4.377s6.191-1.654,7.891-4.377l21.855-34.969
	l65.263-31.785l58.825,85.976c0.506,0.741,1.116,1.36,1.776,1.905l-6.021,36.731L331.517,488.723z"/>
<path style="fill:#334F55;" d="M308.117,381.08c-1.736-2.541-4.609-4.064-7.691-4.064h-88.853c-3.082,0-5.954,1.523-7.691,4.064
	l-25.391,37.236c-1.945,2.85-2.155,6.545-0.536,9.595c1.609,3.05,4.773,4.959,8.227,4.959h139.634c3.455,0,6.618-1.909,8.227-4.959
	c1.618-3.05,1.409-6.745-0.536-9.595L308.117,381.08z"/>
<polygon style="fill:#EAE8D2;" points="203.801,414.252 216.491,395.634 295.508,395.634 308.199,414.252 "/>
<path style="fill:#E6D764;" d="M242.027,23.276h37.254c54.927,0,104.331,29.524,130.556,77.4l-131.066,99.47h-45.544
	l-124.441-94.442C133.861,55.585,185.918,23.276,242.027,23.276z"/>
<polygon style="fill:#C5D35E;" points="242.036,218.764 269.963,218.764 269.963,318.494 256,340.835 242.036,318.494 "/>
<polygon style="fill:#E6D764;" points="20.786,62.289 223.419,216.073 223.419,306.276 36.658,215.319 "/>
<g>
	<polygon style="fill:#EAE8D2;" points="93.093,263.51 149.869,291.161 105.125,356.555 93.093,283.168 	"/>
	<polygon style="fill:#EAE8D2;" points="428.215,283.168 415.878,358.423 367.925,288.338 428.215,258.977 	"/>
</g>
<polygon style="fill:#E6D764;" points="475.341,215.319 288.581,306.276 288.581,216.073 491.214,62.289 "/>
<path style="fill:#334F55;" d="M324.417,272.377c1.745,1.495,3.9,2.241,6.055,2.241c2.245,0,4.491-0.809,6.264-2.423l51.199-46.545
	c3.118-2.836,3.945-7.423,2-11.173c-1.945-3.736-6.145-5.714-10.282-4.8l-83.78,18.618c-3.445,0.764-6.154,3.409-7.009,6.827
	c-0.855,3.423,0.291,7.032,2.973,9.327L324.417,272.377z"/>
<polygon style="fill:#EAE8D2;" points="349.471,235.455 330.29,252.891 318.081,242.432 "/>
<path style="fill:#334F55;" d="M216.128,228.296l-83.78-18.618c-4.145-0.923-8.336,1.059-10.282,4.8
	c-1.945,3.75-1.118,8.336,2,11.173l51.199,46.545c1.773,1.614,4.018,2.423,6.264,2.423c2.155,0,4.309-0.745,6.055-2.241
	l32.581-27.927c2.682-2.295,3.827-5.904,2.973-9.327C222.282,231.705,219.573,229.059,216.128,228.296z"/>
<polygon style="fill:#EAE8D2;" points="181.71,252.891 162.529,235.455 193.919,242.432 "/>
<g>
</g>
<g>
</g>
<g>
</g>
<g>
</g>
<g>
</g>
<g>
</g>
<g>
</g>
<g>
</g>
<g>
</g>
<g>
</g>
<g>
</g>
<g>
</g>
<g>
</g>
<g>
</g>
<g>
</g>
</svg>
