<?xml version="1.0" encoding="iso-8859-1"?>
<!-- Generator: Adobe Illustrator 19.0.0, SVG Export Plug-In . SVG Version: 6.00 Build 0)  -->
<svg version="1.1" id="Layer_1" xmlns="http://www.w3.org/2000/svg" xmlns:xlink="http://www.w3.org/1999/xlink" x="0px" y="0px"
	 viewBox="0 0 512 512" style="enable-background:new 0 0 512 512;" xml:space="preserve">
<path style="fill:#334F55;" d="M256,0C133.85,0,74.473,83.736,74.473,256c0,103.699,59.149,192.993,118.965,233.217l-0.302,0.965
	l3.254,1.017C217.105,504.564,237.784,512,256,512c71.686,0,181.527-114.686,181.527-256C437.527,83.736,378.15,0,256,0z"/>
<g>
	<polygon style="fill:#E65F58;" points="251.345,238.741 240.28,186.182 262.411,186.182 	"/>
	<polygon style="fill:#E65F58;" points="266.33,167.564 236.361,167.564 226.48,120.632 276.211,120.632 	"/>
	<path style="fill:#E65F58;" d="M218.376,172.51l-27.215,20.41c-8.13-15.62-15.344-31.214-21.609-45.928l39.013-21.084
		L218.376,172.51z"/>
	<path style="fill:#E65F58;" d="M222.607,192.609l15.281,72.583c-14.016-16.859-26.614-36.039-37.755-55.73L222.607,192.609z"/>
	<path style="fill:#E65F58;" d="M280.251,191.815l27.011,18.008c-16.227,28.439-31.903,47.679-43.349,59.595L280.251,191.815z"/>
	<path style="fill:#E65F58;" d="M316.131,193.36l-31.749-21.166l9.313-44.235l42.447,20.394
		C329.698,165.184,322.936,180.029,316.131,193.36z"/>
	<path style="fill:#E65F58;" d="M342.487,130.747l-44.844-21.546l17.087-81.163c18.325,6.531,34.133,16.613,47.576,30.105
		C356.594,85.133,349.848,109.277,342.487,130.747z"/>
	<path style="fill:#E65F58;" d="M296.79,22.88l-16.66,79.134h-57.569l-16.169-76.8c15.056-4.264,31.488-6.595,49.608-6.595
		C270.622,18.618,284.165,20.106,296.79,22.88z"/>
	<path style="fill:#E65F58;" d="M188.686,31.484l15.879,75.421l-42.138,22.776c-11.388-28.669-18.66-51.86-21.604-61.75
		C154.003,51.794,169.94,39.65,188.686,31.484z"/>
	<path style="fill:#E65F58;" d="M127.344,87.489c14.262,44.502,53.732,152.393,117.619,212.524c1.777,1.673,4.073,2.532,6.386,2.532
		c1.786,0,3.586-0.514,5.159-1.564c3.429-2.287,81.763-56.243,120.961-224.974c27.719,39.366,41.439,99.115,41.439,179.993
		c0,64.035-23.367,120.016-53.949,161.514l-107.482-94.046c-3.508-3.063-8.648-2.952-12.132,0.03l-0.109-0.034l-0.043,0.136
		c-0.132,0.118-0.303,0.164-0.43,0.291l-78.955,78.955l-6.736,6.064l0.319,0.354l-10.584,10.584
		C117.366,378.124,93.091,321.256,93.091,256C93.091,182.541,104.508,126.659,127.344,87.489z"/>
	<polygon style="fill:#E65F58;" points="263.409,404.945 239.282,404.945 251.345,366.342 	"/>
	<polygon style="fill:#E65F58;" points="268.089,357.494 297.448,383.182 280.01,395.639 	"/>
	<polygon style="fill:#E65F58;" points="222.667,395.685 210.982,384 233.29,361.692 	"/>
	<polygon style="fill:#E65F58;" points="197.818,397.164 216.398,415.744 209.665,437.292 185.044,409.937 	"/>
	<polygon style="fill:#E65F58;" points="233.463,423.564 269.228,423.564 276.5,446.836 226.19,446.836 	"/>
	<polygon style="fill:#E65F58;" points="285.855,414.344 311.845,395.779 324.612,406.951 293.323,438.241 	"/>
	<path style="fill:#E65F58;" d="M160.566,434.416l11.297-11.297l31.346,34.829l-3.861,12.357
		C186.306,460.896,173.072,448.816,160.566,434.416z"/>
	<path style="fill:#E65F58;" d="M215.608,480.699l4.764-15.245h61.947l6.053,19.37c-11.76,5.555-22.828,8.557-32.372,8.557
		C244.31,493.382,230.352,488.924,215.608,480.699z"/>
	<path style="fill:#E65F58;" d="M304.989,475.571l-5.397-17.272l39.063-39.063l14.725,12.884
		C337.861,450.405,321.132,465.154,304.989,475.571z"/>
</g>
<path style="fill:#334F55;" d="M162.914,377.018c1.95,0,3.909-0.609,5.582-1.864l74.473-55.855c2.505-1.877,3.891-4.891,3.7-8.018
	c-0.191-3.123-1.945-5.945-4.659-7.504c-0.941-0.541-94.2-55.127-111.818-156.427c-0.741-4.259-4.318-7.445-8.632-7.7
	c-4.295-0.25-8.241,2.505-9.468,6.65c-1.577,5.327-37.732,131.609,43.727,227.436C157.65,375.895,160.268,377.018,162.914,377.018z"
	/>
<path style="fill:#C5D35E;" d="M123.105,191.277c24.855,64.814,75.118,105.341,97.986,121.159l-56.6,42.45
	C121.532,299.373,119.091,232.745,123.105,191.277z"/>
<path style="fill:#334F55;" d="M264.377,319.3l74.473,55.855c1.673,1.255,3.632,1.864,5.582,1.864c2.641,0,5.264-1.123,7.095-3.282
	c81.459-95.827,45.305-222.109,43.727-227.436c-1.232-4.145-5.227-6.886-9.468-6.65c-4.314,0.255-7.891,3.441-8.632,7.7
	c-17.618,101.3-110.877,155.886-111.818,156.427c-2.714,1.559-4.468,4.382-4.659,7.505
	C260.486,314.409,261.873,317.423,264.377,319.3z"/>
<path style="fill:#C5D35E;" d="M384.241,191.277c4.014,41.468,1.573,108.096-41.386,163.609l-56.6-42.45
	C309.123,296.618,359.386,256.091,384.241,191.277z"/>
<g>
</g>
<g>
</g>
<g>
</g>
<g>
</g>
<g>
</g>
<g>
</g>
<g>
</g>
<g>
</g>
<g>
</g>
<g>
</g>
<g>
</g>
<g>
</g>
<g>
</g>
<g>
</g>
<g>
</g>
</svg>
