<?xml version="1.0" encoding="iso-8859-1"?>
<!-- Generator: Adobe Illustrator 19.0.0, SVG Export Plug-In . SVG Version: 6.00 Build 0)  -->
<svg version="1.1" id="Layer_1" xmlns="http://www.w3.org/2000/svg" xmlns:xlink="http://www.w3.org/1999/xlink" x="0px" y="0px"
	 viewBox="0 0 512 512" style="enable-background:new 0 0 512 512;" xml:space="preserve">
<path style="fill:#334F55;" d="M465.251,0.363c-4.436-1.261-9.092,0.853-11.055,5l-36.839,77.431
	C386.449,34.202,333.353,4.702,274.794,4.702h-37.587c-58.077,0-112.375,30.459-143.081,78.944L57.847,5.445
	c-1.94-4.179-6.619-6.335-11.06-5.092c-4.436,1.248-7.316,5.523-6.798,10.101l28.124,248.429v27.651c0,1.197,0.229,2.381,0.67,3.491
	l27.394,68.481l-4.56,70.688c-0.183,2.849,0.936,5.624,3.046,7.546l79.852,72.807c1.729,1.578,3.986,2.454,6.33,2.454h150.31
	c2.344,0,4.601-0.876,6.33-2.454l79.852-72.807c2.11-1.922,3.229-4.697,3.046-7.546l-4.56-70.688l27.394-68.481
	c0.44-1.11,0.67-2.294,0.67-3.491v-22.968l28.123-253.13C472.521,5.876,469.664,1.62,465.251,0.363z"/>
<path style="fill:#EAE8D2;" d="M425.1,284.727l-27.513,68.775c-0.518,1.303-0.739,2.697-0.651,4.096l4.408,68.302l-73.825,67.311
	H184.483L110.658,425.9l4.408-68.302c0.087-1.399-0.133-2.794-0.651-4.096l-27.513-68.775v-8.119l83.788,59.848
	c2.445,1.748,5.573,2.207,8.431,1.266l37.229-12.408l28.839,24.72c3.523,3.018,8.706,3.018,12.229,0l28.142-24.124l32,16
	c3.005,1.5,6.605,1.284,9.413-0.587l98.127-65.417L425.1,284.727L425.1,284.727z"/>
<path style="fill:#C59A83;" d="M426.205,252.585l-105.118,70.082l-32.701-16.353c-3.381-1.679-7.445-1.188-10.316,1.271
	l-26.766,22.945l-26.766-22.945c-1.729-1.482-3.904-2.261-6.115-2.261c-0.995,0-2,0.156-2.972,0.482l-37.734,12.578L86.369,253.14
	L65.172,65.885l19.665,42.389c1.528,3.293,4.817,5.413,8.445,5.44c3.592,0.372,6.954-2.037,8.537-5.303
	c24.954-51.587,78.1-84.921,135.389-84.921h37.587c57.614,0,109.288,32.128,134.847,83.848c1.582,3.206,4.849,5.234,8.422,5.234
	c0.023,0,0.046,0,0.069,0c3.601-0.027,6.867-2.11,8.413-5.358l20.628-43.362L426.205,252.585z"/>
<g>
	<path style="fill:#334F55;" d="M265.395,380.478h-28.183c-0.564,0-1.124,0.051-1.679,0.151l-60.912,11.073l3.358,18.486
		l60.082-10.922h26.486l60.082,10.922l3.358-18.486l-60.912-11.073C266.519,380.529,265.959,380.478,265.395,380.478z"/>
	<rect x="227.817" y="427.445" style="fill:#334F55;" width="46.972" height="18.789"/>
	<path style="fill:#334F55;" d="M366.697,220.998l-84.55,18.789c-3.477,0.771-6.216,3.44-7.078,6.89
		c-0.862,3.454,0.298,7.096,3,9.413l32.88,28.183c1.761,1.509,3.94,2.261,6.115,2.261c2.266,0,4.532-0.817,6.321-2.445
		l51.669-46.972c3.151-2.862,3.982-7.491,2.018-11.275C375.114,222.063,370.816,220.09,366.697,220.998z"/>
</g>
<polygon style="fill:#E6D764;" points="316.881,264.608 304.564,254.053 336.238,247.012 "/>
<path style="fill:#334F55;" d="M220.46,239.787l-84.55-18.789c-4.124-0.908-8.417,1.064-10.376,4.844
	c-1.963,3.784-1.133,8.413,2.018,11.275l51.669,46.972c1.789,1.629,4.055,2.445,6.321,2.445c2.174,0,4.353-0.752,6.115-2.261
	l32.88-28.183c2.702-2.316,3.862-5.959,3-9.413C226.675,243.227,223.937,240.558,220.46,239.787z"/>
<polygon style="fill:#E6D764;" points="185.726,264.608 166.368,247.012 198.043,254.053 "/>
<g>
</g>
<g>
</g>
<g>
</g>
<g>
</g>
<g>
</g>
<g>
</g>
<g>
</g>
<g>
</g>
<g>
</g>
<g>
</g>
<g>
</g>
<g>
</g>
<g>
</g>
<g>
</g>
<g>
</g>
</svg>
