<?xml version="1.0" encoding="iso-8859-1"?>
<!-- Generator: Adobe Illustrator 19.0.0, SVG Export Plug-In . SVG Version: 6.00 Build 0)  -->
<svg version="1.1" id="Layer_1" xmlns="http://www.w3.org/2000/svg" xmlns:xlink="http://www.w3.org/1999/xlink" x="0px" y="0px"
	 viewBox="0 0 512 512" style="enable-background:new 0 0 512 512;" xml:space="preserve">
<path style="fill:#334F55;" d="M498.055,116.996c-3.039-6.079-7.981-10.167-14.299-11.83c9.892-11.511,17.807-24.859,14.984-36.149
	c-1.73-6.915-5.703-12.334-11.489-15.661c-0.867-0.5-1.752-0.942-2.65-1.327c7.202-7.866,13.724-17.829,13.401-27.898
	c-0.177-5.552-2.469-13.445-12.37-19.528C455.9-13.638,391.957,51.759,372.261,73.149c-20.277-12.644-43.763-20.055-68.043-20.055
	h-18.13v-9.061c0-14.989-12.215-27.182-27.226-27.182h-8.972c-15.011,0-27.226,12.193-27.226,27.182v9.061h-9.069
	c-25.414,0-49.908,8.196-70.813,21.939l-2.53-2.756C121.101,51.413,56.279-15.236,26.368,3.182
	c-9.901,6.083-12.193,13.976-12.37,19.528c-0.323,10.069,6.198,20.032,13.401,27.898c-0.898,0.385-1.783,0.827-2.65,1.327
	c-5.787,3.327-9.76,8.746-11.489,15.661c-2.823,11.29,5.092,24.638,14.984,36.149c-6.318,1.664-11.259,5.751-14.299,11.83
	c-10.759,21.519,31.013,58.814,56.872,79.129l7.123,5.596l0.64-0.815l-9.873,78.997c-0.323,2.579,0.478,5.172,2.199,7.118
	c1.717,1.951,4.194,3.066,6.791,3.066v27.182c0,1.155,0.221,2.296,0.646,3.367l26.421,66.047l-4.398,68.175
	c-0.177,2.747,0.902,5.424,2.938,7.278l10.069,9.18C142.536,496.485,185.348,512,223.289,512c12.657,0,24.775-1.73,35.654-5.344
	c37.472,11.905,105.997-0.743,145.499-36.76l10.069-9.18c2.035-1.854,3.115-4.53,2.938-7.278l-4.398-68.175l26.421-66.047
	c0.425-1.071,0.646-2.212,0.646-3.367v-27.182c2.597,0,5.074-1.115,6.791-3.066c1.721-1.947,2.522-4.539,2.199-7.118l-10.084-80.661
	l2.161-1.698C467.042,175.81,508.814,138.514,498.055,116.996z"/>
<path style="fill:#EAE8D2;" d="M421.996,314.106l-26.536,66.33c-0.5,1.256-0.712,2.601-0.628,3.951l4.252,65.875l-6.853,6.247
	c-34.804,31.743-99.648,43.502-130.143,32.066c-2.053-0.77-4.309-0.77-6.362,0c-37.096,13.927-95.489-0.469-130.143-32.066
	l-6.853-6.247l4.252-65.875c0.084-1.349-0.128-2.694-0.628-3.951l-26.536-66.33v-25.439h46.589
	c4.053,15.587,18.118,27.182,34.955,27.182s30.903-11.595,34.955-27.182h84.118c4.053,15.587,18.118,27.182,34.955,27.182
	s30.903-11.595,34.955-27.182h55.65L421.996,314.106L421.996,314.106z"/>
<g>
	<path style="fill:#334F55;" d="M249.846,361.152h27.182v-18.121h-18.121v-27.182h-18.121v36.242
		C240.786,357.095,244.842,361.152,249.846,361.152z"/>
	<path style="fill:#334F55;" d="M265.251,401.017l-6.344,8.459l-6.344-8.459c-1.708-2.283-4.393-3.623-7.247-3.623h-58.893v18.121
		h54.363l10.874,14.498c1.708,2.283,4.393,3.623,7.247,3.623c2.853,0,5.539-1.341,7.247-3.623l10.874-14.498h54.363v-18.121h-58.893
		C269.644,397.394,266.959,398.735,265.251,401.017z"/>
	<rect x="113.937" y="225.245" style="fill:#334F55;" width="289.937" height="18.121"/>
</g>
<g>
	<path style="fill:#E6D764;" d="M240.786,44.034c0-4.995,4.083-9.061,9.105-9.061h8.972c5.105,0,9.105,3.982,9.105,9.061v9.061
		h-27.182L240.786,44.034L240.786,44.034z"/>
	<path style="fill:#E6D764;" d="M231.725,71.215h45.303h27.19c55.54,0,106.328,44.856,113.217,99.993l12.418,99.338h-62.22h-18.121
		H313.27h-18.121h-81.545h-18.121h-36.242H141.12H87.96l12.414-99.338c6.897-55.137,57.686-99.993,113.221-99.993
		C213.595,71.215,231.725,71.215,231.725,71.215z"/>
</g>
<g>
	<path style="fill:#EAE8D2;" d="M346.992,288.668c-3.143,5.39-8.922,9.06-15.601,9.06s-12.458-3.67-15.601-9.061L346.992,288.668
		L346.992,288.668z"/>
	<path style="fill:#EAE8D2;" d="M192.963,288.668c-3.143,5.39-8.922,9.06-15.601,9.06s-12.458-3.67-15.601-9.061L192.963,288.668
		L192.963,288.668z"/>
</g>
<g>
	<path style="fill:#E6D764;" d="M30.155,123.68c0.814-1.628,1.672-2.141,2.716-2.416c5.437-1.398,16.369,3.606,22.05,7.45
		c4.039,2.743,9.538,1.779,12.405-2.163c2.876-3.942,2.119-9.45-1.725-12.463c-19.815-15.533-36.384-35.596-34.76-42.095
		c0.681-2.739,1.916-3.756,2.915-4.34c4.097-2.389,11.481-1.137,13.697-0.518c4.256,1.225,8.769-0.796,10.684-4.774
		c1.916-3.986,0.673-8.777-2.938-11.33c-9.83-6.946-23.324-20.448-23.089-27.743c0.022-0.721,0.075-2.416,3.743-4.667
		c11.511-7.061,57.208,29.066,91.048,65.91l1.318,1.434c-24.458,21.066-41.756,50.462-45.824,82.995l-1.341,10.727
		C53.004,157.46,28.886,130.836,30.155,123.68z"/>
	<path style="fill:#E6D764;" d="M435.414,168.961c-4.202-33.64-22.587-63.884-48.376-85.071
		c33.605-36.118,77.781-70.786,89.108-63.848c3.663,2.252,3.721,3.942,3.743,4.663c0.239,7.251-13.259,20.776-23.094,27.752
		c-3.606,2.562-4.844,7.348-2.924,11.33c1.92,3.986,6.442,6.021,10.675,4.769c2.655-0.774,9.804-1.725,13.666,0.504
		c1.013,0.58,2.261,1.601,2.946,4.353c1.619,6.477-14.949,26.545-34.765,42.099c-3.84,3.013-4.597,8.516-1.721,12.463
		c2.884,3.942,8.357,4.902,12.405,2.159c5.685-3.845,16.674-8.853,22.05-7.45c1.044,0.274,1.902,0.788,2.637,2.199
		c1.259,6.888-19.732,30.601-45.383,51.821L435.414,168.961z"/>
</g>
<g>
</g>
<g>
</g>
<g>
</g>
<g>
</g>
<g>
</g>
<g>
</g>
<g>
</g>
<g>
</g>
<g>
</g>
<g>
</g>
<g>
</g>
<g>
</g>
<g>
</g>
<g>
</g>
<g>
</g>
</svg>
