<?xml version="1.0" encoding="iso-8859-1"?>
<!-- Generator: Adobe Illustrator 19.0.0, SVG Export Plug-In . SVG Version: 6.00 Build 0)  -->
<svg version="1.1" id="Layer_1" xmlns="http://www.w3.org/2000/svg" xmlns:xlink="http://www.w3.org/1999/xlink" x="0px" y="0px"
	 viewBox="0 0 512.001 512.001" style="enable-background:new 0 0 512.001 512.001;" xml:space="preserve">
<path style="fill:#334F55;" d="M489.98,324.617c15.105-6.526,24.43-22.619,21.475-39.397c-2.817-15.967-15.894-27.467-31.324-29.381
	l-0.122-0.847c7.925-24.602,19.338-60.9,22.141-74.368c4.237-20.351-21.081-49.364-33.461-62.104
	c5.829-6.15,18.741-16.985,30.064-25.524c3.159-2.38,4.395-6.546,3.044-10.268s-4.936-6.124-8.926-5.921l-108.833,5.53
	c7.971-5.05,18.054-10.69,28.256-15.644c3.779-1.83,5.789-6.031,4.848-10.123s-4.584-6.99-8.781-6.99
	c-21.222,0-94.24,10.312-122.18,14.377c2.063-5.886,6.383-15.996,15.415-32.871c1.654-3.093,1.364-6.863-0.743-9.665
	c-2.112-2.807-5.657-4.122-9.084-3.396C231.229,30.953,164.919,59.623,140.266,70.84l-1.302-4.879l-2.05-17.491
	c-0.317-2.701-1.835-5.112-4.126-6.564c-2.296-1.456-5.129-1.799-7.699-0.928c-38.023,12.815-61.233,74.039-67.678,93.286
	l-49.5,6.097c-3.691,0.457-6.722,3.128-7.633,6.731c-0.915,3.603,0.48,7.4,3.506,9.555c8.645,6.15,32.392,27.623,28.313,45.035
	c-3.297,14.082-1.983,35.81,0.278,54.669c-13.402,3.81-24.014,15.087-26.062,29.655c-1.346,9.577,1.157,19.11,7.043,26.835
	c3.854,5.054,8.928,8.794,14.632,11.247L15.916,408.42c-2.486,17.342,2.068,34.186,12.494,46.205
	c9.727,11.222,23.571,17.403,38.977,17.403h69.679c10.554,2.868,83,22.146,121.881,22.146c38.696,0,111.512-19.291,122.07-22.146
	h69.512c15.384,0,29.211-6.181,38.942-17.399c10.431-12.027,14.988-28.872,12.507-46.209L489.98,324.617z"/>
<path style="fill:#C5D35E;" d="M493.709,288.347c1.167,6.63-1.557,13.02-6.479,17.062l-4.37-30.52
	C488.357,277.213,492.612,282.117,493.709,288.347z"/>
<path style="fill:#C59A83;" d="M29.916,155.807l35.423-4.364c3.568-0.44,6.528-2.956,7.545-6.401
	c5.393-18.323,23.347-64.04,47.648-81.535l0.612,5.2c0.048,0.431,0.132,0.862,0.246,1.28l4.245,15.872
	c0.691,2.591,2.503,4.738,4.94,5.86c2.437,1.126,5.253,1.104,7.663-0.066c0.765-0.37,71.144-33.975,138.549-51.546
	c-12.819,26.848-11.363,33.944-8.733,38.331c2.098,3.506,6.036,5.521,9.938,4.932c0.73-0.106,51.097-7.615,90.197-12.23
	c-7.012,4.997-12.626,10.074-15.535,14.894l-28.008,4.261c-4.918,0.748-8.301,5.345-7.553,10.263
	c0.678,4.461,4.518,7.655,8.895,7.655c0.453,0,0.911-0.031,1.368-0.101l39.624-6.027c0.978-0.148,1.837-0.55,2.673-0.977
	l96.367-4.896c-17.808,15.67-17.808,20.804-17.808,23.611c0,2.459,1.008,4.813,2.785,6.511
	c17.667,16.902,35.502,41.058,33.513,50.618c-1.865,8.966-8.095,29.638-14.35,49.562c-1.65-7.14-4.1-13.774-7.69-18.881
	c-1.469-2.09-3.757-3.462-6.291-3.766c-2.521-0.321-5.081,0.48-7.008,2.156l-13.132,11.469
	c-4.694-12.986-12.569-31.213-21.983-38.885c-16-13.035-57.102-19.387-61.739-20.069c-4.333-0.651-8.477,1.914-9.854,6.053
	l-8.095,24.196c-15.583-3.23-51.428-11.039-77.304-19.526c-0.683-0.932-1.552-1.752-2.603-2.387
	c-37.112-22.405-41.956-22.405-44.283-22.405c-4.976,0-9.01,4.034-9.01,9.01c0,4.588,3.431,8.376,7.866,8.939
	c2.777,0.912,11.06,5.342,20.392,10.662c0.047,4.978,0.495,18.347,3.799,30.63c-17.496-1.944-47.001-3.37-81.289,2.486
	c-39.558,6.757-61.189,23.378-64.422,49.509c-0.876-0.449-1.716-0.889-2.42-1.262c-7.822-4.118-16.691-8.794-23.954-3.616
	c-2.299,1.637-4.833,4.81-7.384,8.743c-0.802-1.312-1.851-2.431-3.217-3.192c-2.306-18.433-3.655-38.809-0.899-50.582
	C54.208,186.294,41.393,167.821,29.916,155.807z"/>
<g>
	<path style="fill:#C5D35E;" d="M27.69,301.919c-2.947-3.871-4.201-8.631-3.533-13.4c0.902-6.425,5.156-11.541,10.768-13.991
		c0.028,0.175,0.056,0.355,0.084,0.529l-4.285,29.929C29.616,304.079,28.577,303.082,27.69,301.919z"/>
	<path style="fill:#C5D35E;" d="M475.857,442.826c-6.251,7.21-15.248,11.183-25.326,11.183h-70.713c-0.805,0-1.606,0.11-2.384,0.321
		c-0.796,0.22-79.991,21.825-118.484,21.825c-38.674,0-117.486-21.605-118.278-21.82c-0.779-0.216-1.584-0.325-2.393-0.325H67.388
		c-10.101,0-19.11-3.973-25.366-11.187c-7.1-8.191-10.035-19.502-8.271-31.85l12.681-88.563c0.553-0.966,0.95-2.037,1.115-3.205
		c0.156-1.113,0.041-2.194-0.193-3.229l2.164-15.116c2.624-0.689,4.873-2.504,5.996-5.099c4.584-10.611,11.183-23.655,14.689-28.591
		c1.949,0.818,4.659,2.248,6.489,3.211c7.642,4.025,15.538,8.178,22.506,3.999c2.208-1.333,5.913-4.624,5.913-11.68
		c0-8.266,0-30.227,49.861-38.744c50.578-8.653,90.941-0.172,91.341-0.075c3.753,0.81,7.677-0.88,9.656-4.214
		c1.975-3.33,1.601-7.553-0.928-10.483c-3.511-4.06-5.732-14.126-6.814-23.875c34.838,11.874,87.897,22.238,90.444,22.731
		c4.426,0.871,8.825-1.703,10.259-5.983l8.183-24.455c15.908,2.934,37.71,8.579,45.559,14.975
		c7.021,5.719,16.163,28.687,20.412,43.174c0.862,2.948,3.172,5.253,6.124,6.115c2.934,0.853,6.128,0.158,8.447-1.861l14.21-12.41
		c3.867,13.963,3.942,35.128,2.758,47.877c-0.422,4.562,2.644,8.715,7.127,9.652c1.5,0.317,2.95,0.119,4.332-0.287l18.065,126.136
		C485.909,423.311,482.966,434.626,475.857,442.826z"/>
</g>
<path style="fill:#334F55;" d="M190.546,355l4.504,0.127c0.202,0.005,0.4,0.009,0.603,0.009c5.372,0,10.413-2.037,14.262-5.776
	c4.012-3.902,6.225-9.168,6.225-14.825v-12.204c0-4.976-4.034-9.01-9.01-9.01c-4.976,0-9.01,4.034-9.01,9.01v12.204
	c0,0.959-0.418,1.562-0.765,1.905c-0.339,0.321-1.126,0.616-1.795,0.678l-94.856-2.684c-4.892-0.145-9.12,3.775-9.26,8.75
	c-0.141,4.976,3.775,9.12,8.75,9.26l22.618,0.64c4.07,15.348,21.661,26.508,37.075,26.508
	C174.6,379.592,186.897,369.117,190.546,355z"/>
<path style="fill:#FFFFFF;" d="M159.887,361.572c-5.57,0-12.522-3.421-16.576-7.909l28.276,0.8
	C169.134,358.717,164.824,361.572,159.887,361.572z"/>
<g>
	<path style="fill:#334F55;" d="M321.475,408.983L180.193,396.26c-5.024-0.343-9.335,3.216-9.784,8.165
		c-0.444,4.958,3.211,9.335,8.165,9.784l141.281,12.723c0.277,0.022,0.55,0.035,0.818,0.035c4.61,0,8.543-3.519,8.966-8.2
		C330.084,413.809,326.428,409.432,321.475,408.983z"/>
	<path style="fill:#334F55;" d="M395.98,335.938l-94.65,1.337c-0.985,0.066-1.72-0.506-2.037-0.823
		c-0.391-0.383-0.858-1.056-0.858-2.059v-12.063c0-4.976-4.034-9.01-9.01-9.01c-4.976,0-9.01,4.034-9.01,9.01v12.063
		c0,5.644,2.208,10.932,6.225,14.891c3.937,3.884,9.128,6.009,14.645,6.009c0.097,0,0.198,0,0.299,0l1.458-0.02
		c3.74,13.974,15.961,24.317,30.582,24.317c14.983,0,31.934-10.58,36.613-25.267l25.997-0.367c4.976-0.07,8.952-4.162,8.882-9.137
		C405.047,339.845,400.934,335.859,395.98,335.938z"/>
</g>
<path style="fill:#FFFFFF;" d="M333.625,361.572c-4.731,0-8.908-2.609-11.408-6.569l27.143-0.384
	C345.223,358.636,338.801,361.572,333.625,361.572z"/>
<g>
</g>
<g>
</g>
<g>
</g>
<g>
</g>
<g>
</g>
<g>
</g>
<g>
</g>
<g>
</g>
<g>
</g>
<g>
</g>
<g>
</g>
<g>
</g>
<g>
</g>
<g>
</g>
<g>
</g>
</svg>
