<?xml version="1.0" encoding="iso-8859-1"?>
<!-- Generator: Adobe Illustrator 19.0.0, SVG Export Plug-In . SVG Version: 6.00 Build 0)  -->
<svg version="1.1" id="Layer_1" xmlns="http://www.w3.org/2000/svg" xmlns:xlink="http://www.w3.org/1999/xlink" x="0px" y="0px"
	 viewBox="0 0 512 512" style="enable-background:new 0 0 512 512;" xml:space="preserve">
<g>
	<path style="fill:#334F55;" d="M246.671,337.895h27.49v-18.327h-18.327v-27.49h-18.327v36.654
		C237.508,333.792,241.61,337.895,246.671,337.895z"/>
	<path style="fill:#334F55;" d="M457.237,88.778c-2.031-4.058-5.061-7.083-8.882-8.891c6.832-8.586,11.705-18.17,9.575-26.698
		c-1.405-5.615-4.582-10.072-9.199-12.917c4.895-5.897,8.949-13.029,8.711-20.336c-0.215-6.716-3.915-12.613-10.416-16.604
		c-23.238-14.288-69.171,31.261-88.22,51.969c-22.688-17.981-50.918-28.962-80.57-28.962h-44.806
		c-29.426,0-57.462,10.805-80.062,28.543C134.422,34.264,88.318-11.592,64.978,2.719c-6.501,3.995-10.201,9.893-10.421,16.609
		c-0.233,7.307,3.817,14.439,8.711,20.331c-4.617,2.85-7.794,7.302-9.199,12.917c-2.13,8.528,2.743,18.112,9.575,26.698
		c-3.817,1.808-6.85,4.832-8.882,8.891c-8.389,16.788,18.971,43.195,43.406,62.39l3.518,2.764L90.942,254.458
		c-0.208,1.96,0.403,3.83,1.384,5.506c-0.828,1.377-1.433,2.899-1.433,4.624v27.49c0,1.052,0.183,2.098,0.537,3.087l23.964,66.972
		l-3.991,69.155c-0.148,2.577,0.801,5.101,2.609,6.944l5.468,5.579c33.222,33.844,83.97,61.2,122.189,67.034
		c1.32,0.734,2.837,1.15,4.447,1.15h9.718c27.423,0,99.419-30.546,136.355-68.189l5.468-5.575c1.808-1.843,2.756-4.367,2.609-6.944
		l-3.991-69.155l23.964-66.972c0.353-0.989,0.537-2.036,0.537-3.087v-27.49c0-1.724-0.605-3.246-1.433-4.624
		c0.98-1.676,1.591-3.546,1.384-5.506l-10.659-100.337l3.764-2.957C438.266,131.969,465.627,105.561,457.237,88.778z"/>
</g>
<g>
	<path style="fill:#83A6E2;" d="M437.434,18.947c0.805,0.497,1.682,1.199,1.691,1.58c0.125,3.633-7.835,12.801-16.372,18.868
		c-3.624,2.573-4.85,7.369-2.944,11.387c1.897,4.014,6.425,6.098,10.725,4.908c2.358-0.649,6.627-0.953,8.524,0.148
		c0.282,0.166,0.752,0.438,1.074,1.691c0.367,4.582-11.92,18.837-25.284,29.334c-3.888,3.051-4.653,8.635-1.736,12.622
		c2.931,3.991,8.474,4.94,12.555,2.157c5.293-3.611,12.345-5.924,14.747-4.917c-1.514,6.169-16.245,22.136-33.163,36.155
		c-4.963-24.807-17.49-47.357-34.841-65.291C401.336,36.239,431.599,15.418,437.434,18.947z"/>
	<path style="fill:#83A6E2;" d="M278.237,44.666c56.112,0,106.587,45.365,112.511,101.12l10.676,100.476h-26.466h-18.327h-54.981
		h-18.327h-54.981h-18.327h-54.981H136.71h-26.466l10.676-100.476c5.924-55.755,56.399-101.12,112.511-101.12H278.237z"/>
</g>
<g>
	<path style="fill:#FFFFFF;" d="M354.943,264.588c-3.795,10.643-13.872,18.327-25.802,18.327s-22.006-7.684-25.801-18.327H354.943z"
		/>
	<path style="fill:#FFFFFF;" d="M208.329,264.588c-3.795,10.643-13.872,18.327-25.802,18.327c-11.93,0-22.006-7.684-25.801-18.327
		H208.329z"/>
</g>
<path style="fill:#83A6E2;" d="M71.523,95.825c1.414-0.886,8.747,1.114,14.81,5.208c4.099,2.788,9.638,1.83,12.559-2.161
	c2.917-3.987,2.148-9.571-1.745-12.622C83.783,75.775,71.496,61.516,71.85,57.024c0.336-1.356,0.805-1.629,1.087-1.794
	c1.888-1.105,6.166-0.788,8.465-0.166c4.313,1.244,8.868-0.805,10.806-4.828c1.937-4.031,0.68-8.872-2.971-11.454
	c-7.673-5.423-16.492-14.846-16.363-18.864c0.014-0.38,0.886-1.087,1.696-1.584c5.893-3.687,36.197,17.355,65.157,48.796
	c-17.407,17.822-30.076,40.248-35.187,64.968C87.439,117.895,72.626,101.749,71.523,95.825z"/>
<path style="fill:#EAE8D2;" d="M402.449,290.49l-24.059,67.227c-0.416,1.159-0.591,2.389-0.523,3.615l3.866,66.967l-2.626,2.68
	c-34.927,35.589-102.677,62.694-123.272,62.694c-33.468,0-89.92-28.712-123.272-62.694l-2.626-2.68l3.866-66.967
	c0.067-1.226-0.107-2.456-0.523-3.615L109.22,290.49v-25.902h28.416c4.258,20.886,22.767,36.654,44.891,36.654
	s40.633-15.767,44.891-36.654h56.833c4.258,20.886,22.767,36.654,44.891,36.654c22.124,0,40.633-15.767,44.891-36.654h28.416V290.49
	z"/>
<g>
	<rect x="210.026" y="392.882" style="fill:#334F55;" width="91.634" height="18.327"/>
	<path style="fill:#334F55;" d="M219.843,166.323l-5.356,31.235c-0.591,3.436,0.819,6.913,3.642,8.962
		c2.832,2.049,6.564,2.322,9.651,0.698l28.054-14.747l28.054,14.747c1.342,0.702,2.805,1.051,4.264,1.051
		c1.897,0,3.79-0.591,5.387-1.75c2.823-2.049,4.233-5.526,3.642-8.962l-5.356-31.235l22.694-22.121
		c2.501-2.439,3.401-6.076,2.322-9.396c-1.078-3.316-3.946-5.736-7.401-6.237l-31.365-4.555l-14.023-28.421
		c-3.087-6.255-13.351-6.255-16.439,0l-14.023,28.421l-31.365,4.555c-3.454,0.501-6.322,2.922-7.401,6.237
		c-1.078,3.32-0.179,6.958,2.322,9.396L219.843,166.323z"/>
</g>
<path style="fill:#E6D764;" d="M240.993,141.459c2.989-0.434,5.566-2.309,6.904-5.016l7.937-16.09l7.937,16.09
	c1.338,2.707,3.915,4.582,6.904,5.016l17.754,2.577l-12.846,12.524c-2.161,2.107-3.15,5.141-2.64,8.112l3.038,17.683l-15.884-8.349
	c-1.333-0.702-2.801-1.051-4.264-1.051c-1.463,0-2.931,0.349-4.264,1.051l-15.884,8.349l3.038-17.683
	c0.51-2.971-0.479-6.005-2.64-8.112l-12.846-12.524L240.993,141.459z"/>
<g>
</g>
<g>
</g>
<g>
</g>
<g>
</g>
<g>
</g>
<g>
</g>
<g>
</g>
<g>
</g>
<g>
</g>
<g>
</g>
<g>
</g>
<g>
</g>
<g>
</g>
<g>
</g>
<g>
</g>
</svg>
