<?xml version="1.0" encoding="iso-8859-1"?>
<!-- Generator: Adobe Illustrator 19.0.0, SVG Export Plug-In . SVG Version: 6.00 Build 0)  -->
<svg version="1.1" id="Layer_1" xmlns="http://www.w3.org/2000/svg" xmlns:xlink="http://www.w3.org/1999/xlink" x="0px" y="0px"
	 viewBox="0 0 512 512" style="enable-background:new 0 0 512 512;" xml:space="preserve">
<path style="fill:#334F55;" d="M482.462,177.231c0-34.204-19.498-63.887-47.925-78.653C404.364,37.767,343.531,0,275.702,0h-39.404
	C169.352,0,107.251,38.647,77.501,98.56c-28.447,14.76-47.963,44.452-47.963,78.671c0,26.417,11.673,50.103,30.057,66.353
	c-0.231,0.839-0.519,1.659-0.519,2.57v29.538c0,1.255,0.24,2.495,0.702,3.659l28.712,71.774l-4.779,74.087
	c-0.192,2.986,0.981,5.894,3.192,7.909l10.942,9.976c37.683,34.361,96.798,62.101,141.991,67.822
	c1.346,0.692,2.875,1.082,4.49,1.082H256c37.404,0,116.289-30.736,158.154-68.904l10.943-9.976c2.211-2.015,3.385-4.923,3.192-7.909
	l-4.779-74.087l28.712-71.774c0.461-1.163,0.702-2.404,0.702-3.659v-29.538c0-0.911-0.287-1.732-0.518-2.57
	C470.788,227.334,482.462,203.648,482.462,177.231z"/>
<path style="fill:#EAE8D2;" d="M236.298,19.692h39.404c53.399,0,101.887,26.365,130.926,69.945
	c-4.164-0.603-8.386-1.022-12.715-1.022H118.087c-4.329,0-8.552,0.418-12.716,1.022C134.349,46.564,183.651,19.692,236.298,19.692z"
	/>
<path style="fill:#E65F58;" d="M49.231,177.231c0-38.005,30.885-68.923,68.856-68.923h275.827c37.971,0,68.856,30.918,68.856,68.923
	s-30.885,68.923-68.856,68.923H118.087C80.115,246.154,49.231,215.236,49.231,177.231z"/>
<path style="fill:#EAE8D2;" d="M433.231,273.798l-28.836,72.082c-0.539,1.365-0.779,2.827-0.683,4.293l4.615,71.586l-7.442,6.788
	c-37.01,33.741-111.846,63.76-144.885,63.76c-41.327,0-106.327-28.601-144.885-63.759l-7.442-6.788l4.615-71.586
	c0.096-1.466-0.144-2.928-0.683-4.293l-28.837-72.082v-17.285c11.864,5.917,25.185,9.333,39.317,9.333h128.067v39.385h19.692
	v-39.385h128.067c14.132,0,27.453-3.416,39.317-9.333V273.798z"/>
<path style="fill:#334F55;" d="M88.615,216.615h334.769c5.442,0,9.846-4.409,9.846-9.846v-49.231c0-5.438-4.404-9.846-9.846-9.846
	H88.615c-5.442,0-9.846,4.409-9.846,9.846v49.231C78.769,212.207,83.173,216.615,88.615,216.615z"/>
<rect x="98.462" y="167.385" style="fill:#C5D35E;" width="315.077" height="29.538"/>
<g>
	<path style="fill:#334F55;" d="M263.875,348.553c-3.712-4.961-12.038-4.961-15.75,0l-11.817,15.755h-59.077V384h64
		c3.096,0,6.019-1.457,7.875-3.937L256,370.87l6.894,9.192c1.856,2.481,4.779,3.937,7.875,3.937h64v-19.692h-59.077L263.875,348.553
		z"/>
	<rect x="226.462" y="393.846" style="fill:#334F55;" width="59.077" height="19.692"/>
</g>
<g>
</g>
<g>
</g>
<g>
</g>
<g>
</g>
<g>
</g>
<g>
</g>
<g>
</g>
<g>
</g>
<g>
</g>
<g>
</g>
<g>
</g>
<g>
</g>
<g>
</g>
<g>
</g>
<g>
</g>
</svg>
