<?xml version="1.0" encoding="iso-8859-1"?>
<!-- Generator: Adobe Illustrator 19.0.0, SVG Export Plug-In . SVG Version: 6.00 Build 0)  -->
<svg version="1.1" id="Layer_1" xmlns="http://www.w3.org/2000/svg" xmlns:xlink="http://www.w3.org/1999/xlink" x="0px" y="0px"
	 viewBox="0 0 512 512" style="enable-background:new 0 0 512 512;" xml:space="preserve">
<path style="fill:#334F55;" d="M444.359,68.226c0.123-1.943-0.349-3.882-1.349-5.557c-1.31-2.191-29.128-46.646-126.601-59.304
	c-0.043-0.05-0.052-0.118-0.097-0.167C314.481,1.16,311.868,0,309.132,0H202.868c-2.736,0-5.349,1.16-7.179,3.198
	c-0.493,0.547-0.731,1.241-1.082,1.874C104.573,19.399,71.369,59.545,69.726,61.609c-1.491,1.873-2.236,4.231-2.085,6.618
	l9.642,153.507v148.078c0,45.019,22.934,85.776,70.037,124.558l0.199,0.758c0.821,3.123,3.142,5.632,6.198,6.684
	c1.028,0.354,2.094,0.528,3.151,0.528c2.085,0,4.141-0.675,5.849-1.972l16.343-12.424l16.855,20.528
	c1.83,2.231,4.566,3.528,7.462,3.528h105.245c2.896,0,5.632-1.297,7.462-3.528l17.178-20.921l18.633,13.044
	c1.642,1.151,3.585,1.745,5.538,1.745c1.142,0,2.283-0.203,3.377-0.613c0.252-0.094,0.465-0.252,0.707-0.366l0.123,0.135
	l0.506-0.462c1.276-0.718,2.344-1.7,3.169-2.889l3.466-3.163c43.745-39.958,65.934-82.071,65.934-125.17V221.733L444.359,68.226z"/>
<g>
	<path style="fill:#E65F58;" d="M415.396,212.528v8.564l-1.453,23.125c-4.837,1.656-12.599,4.171-22.678,6.997
		c-1.336-0.006-2.686,0.223-3.982,0.805c-0.247,0.111-0.399,0.324-0.632,0.453c-1.186,0.321-2.343,0.636-3.583,0.961l36.436-97.73
		l-3.57,56.825H415.396z"/>
	<path style="fill:#E65F58;" d="M351.472,476.712l-19.603-13.721c2.269-0.868,4.206-2.508,5.291-4.775l39.517-82.325
		L351.472,476.712z"/>
	<path style="fill:#E65F58;" d="M137.405,380.229l37.434,77.988c1.068,2.23,2.962,3.844,5.182,4.725l-17.474,13.284L137.405,380.229
		z"/>
	<path style="fill:#E65F58;" d="M96.066,212.528l-2.974-47.335l26.819,85.778c-9.679-2.729-17.148-5.151-21.854-6.759l-1.453-23.12
		v-8.564H96.066z"/>
</g>
<g>
	<path style="fill:#E4AD4B;" d="M261.764,19.321c13.155,0,25.216,0.597,36.476,1.57l-17.127,162.657h-50.226L213.876,21.996
		C228.421,20.354,244.229,19.321,261.764,19.321z"/>
	<path style="fill:#E4AD4B;" d="M212.585,194.217c0.509,4.92,4.66,8.651,9.604,8.651h67.623c4.943,0,9.094-3.731,9.604-8.651
		L311.45,79.889c65.268,7.151,93.588,27.439,102.456,35.535l-53.104,142.453c-1.493,0.598-3.665,1.38-6.52,2.252
		c-27.449,5.609-61.504,10.361-98.282,10.361c-44.177,0-84.475-6.877-114.081-13.854L98.076,116.392
		c10.428-7.94,41.289-27.172,102.601-35.309L212.585,194.217z"/>
</g>
<path style="fill:#334F55;" d="M107.175,267.467l-9.722,21.604c-0.584,1.295-0.866,2.686-0.849,4.075v-29.018
	C99.619,265.125,103.07,266.23,107.175,267.467z"/>
<path style="fill:#E4AD4B;" d="M213.547,420.736l-11.821,23.642h-12.104l-72.708-151.476l9.078-20.171
	c1.501,0.389,3.17,0.784,4.741,1.176c0.812,0.349,4.235,1.735,10.651,3.581l-3.017,15.074l91.396,18.278l3.792-18.948l-15.804-3.16
	c11.504,0.661,24.132,1.085,38.248,1.085c14.446,0,27.101-0.434,38.421-1.12l-15.978,3.196l3.792,18.948l91.396-18.278
	l-3.217-16.073c5.497-1.252,10.784-2.513,15.591-3.758l9.078,20.171l-72.708,151.477h-12.104l-11.821-23.642
	c-1.642-3.273-4.981-5.34-8.642-5.34h-67.623C218.528,415.396,215.189,417.462,213.547,420.736z"/>
<path style="fill:#334F55;" d="M404.826,267.467c4.105-1.237,7.555-2.342,10.571-3.338v29.018c0.017-1.389-0.265-2.781-0.849-4.075
	L404.826,267.467z"/>
<g>
	<path style="fill:#E65F58;" d="M424.859,70.476l-1.725,27.453c-14.344-11.606-46.669-30.313-109.666-37.213l3.967-37.685
		C390.241,33.374,418.35,62.414,424.859,70.476z"/>
	<path style="fill:#E65F58;" d="M194.737,24.664l3.921,37.248c-61.51,8.081-95.171,26.746-109.719,37.206l-1.76-28.005
		C95.471,62.777,126.822,36.104,194.737,24.664z"/>
</g>
<path style="fill:#E4AD4B;" d="M96.604,369.811v-76.653c0.014,1.066,0.364,2.097,0.732,3.113c-0.639,1.774-0.933,3.688-0.42,5.649
	l41.312,157.731C110.437,430.962,96.604,401.387,96.604,369.811z"/>
<path style="fill:#E65F58;" d="M304.057,492.679h-96.113l-13.495-16.434l19.099-14.519c0.146-0.111,0.21-0.278,0.347-0.394
	c0.704-0.598,1.311-1.288,1.827-2.078c0.14-0.216,0.312-0.402,0.433-0.627c0.053-0.097,0.136-0.17,0.185-0.269l11.821-23.641h55.679
	l11.821,23.642c1.036,2.066,2.787,3.569,4.83,4.458c0.691,1.521,1.634,2.939,3.104,3.967l13.796,9.658L304.057,492.679z"/>
<path style="fill:#E4AD4B;" d="M375.404,460.616l39.7-158.799c0.485-1.929,0.186-3.801-0.44-5.541
	c0.368-1.018,0.718-2.051,0.732-3.117v76.653C415.396,400.361,401.814,430.807,375.404,460.616z"/>
<g>
</g>
<g>
</g>
<g>
</g>
<g>
</g>
<g>
</g>
<g>
</g>
<g>
</g>
<g>
</g>
<g>
</g>
<g>
</g>
<g>
</g>
<g>
</g>
<g>
</g>
<g>
</g>
<g>
</g>
</svg>
