<?xml version="1.0" encoding="iso-8859-1"?>
<!-- Generator: Adobe Illustrator 19.0.0, SVG Export Plug-In . SVG Version: 6.00 Build 0)  -->
<svg version="1.1" id="Layer_1" xmlns="http://www.w3.org/2000/svg" xmlns:xlink="http://www.w3.org/1999/xlink" x="0px" y="0px"
	 viewBox="0 0 512 512" style="enable-background:new 0 0 512 512;" xml:space="preserve">
<path style="fill:#334F55;" d="M460.854,418.909H330.473v-40.341c32.532-20.621,55.942-54.243,62.897-93.564
	c1.332-1.643,2.267-3.578,2.267-5.731v-10.156c21.218-3.893,37.236-20.813,37.236-41.044s-16.018-37.151-37.236-41.044v-19.465
	v-46.545v-9.309V37.291C395.636,16.727,378.945,0,358.432,0H153.568c-20.514,0-37.204,16.727-37.204,37.291v74.418v9.309v46.545
	v19.465c-21.218,3.893-37.236,20.813-37.236,41.044s16.018,37.151,37.236,41.044v10.156c0,2.154,0.935,4.089,2.267,5.731
	c6.955,39.321,30.365,72.943,62.897,93.564v40.341H51.146c-25.637,0-46.491,20.882-46.491,46.545v37.236
	c0,5.145,4.168,9.309,9.309,9.309h316.509h111.709h55.855c5.141,0,9.309-4.164,9.309-9.309v-37.236
	C507.345,439.791,486.491,418.909,460.854,418.909z"/>
<path style="fill:#EAE8D2;" d="M134.982,260.655v-9.309V204.8v-18.618v-9.309h242.036v9.309V204.8v46.545v9.309
	c0,2.403-0.222,4.751-0.361,7.119c-25.356-5.079-85.834-16.428-120.657-16.428s-95.301,11.349-120.657,16.428
	C135.204,265.405,134.982,263.057,134.982,260.655z"/>
<path style="fill:#334F55;" d="M190.836,204.8c-10.268,0-18.618,8.354-18.618,18.618c0,10.264,8.35,18.618,18.618,18.618
	c10.268,0,18.618-8.354,18.618-18.618C209.455,213.154,201.105,204.8,190.836,204.8z"/>
<path style="fill:#EAE8D2;" d="M414.255,228.073c0,10.102-7.806,18.632-18.618,21.844v-43.688
	C406.449,209.441,414.255,217.971,414.255,228.073z"/>
<path style="fill:#EAEAEA;" d="M153.568,18.618h204.864c10.25,0,18.587,8.373,18.587,18.673V102.4H134.982V37.291
	C134.982,26.991,143.318,18.618,153.568,18.618z"/>
<rect x="134.982" y="121.018" style="fill:#D8D8D8;" width="242.036" height="37.236"/>
<path style="fill:#EAE8D2;" d="M97.745,228.073c0-10.102,7.806-18.632,18.618-21.844v43.688
	C105.551,246.705,97.745,238.175,97.745,228.073z"/>
<path style="fill:#EAEAEA;" d="M137.775,286.291c23.949-4.804,84.837-16.327,118.225-16.327s94.276,11.523,118.225,16.327
	c-11.8,54.447-60.295,95.382-118.225,95.382S149.575,340.737,137.775,286.291z"/>
<path style="fill:#EAE8D2;" d="M200.145,388.551c17.122,7.507,35.993,11.74,55.855,11.74s38.732-4.232,55.855-11.74v30.358H200.145
	V388.551z"/>
<rect x="339.782" y="474.764" style="fill:#D8D8D8;" width="93.091" height="18.618"/>
<path style="fill:#EAEAEA;" d="M488.727,493.382h-37.236v-27.927c0-5.145-4.168-9.309-9.309-9.309H330.473
	c-5.141,0-9.309,4.164-9.309,9.309v27.927H23.273v-27.927c0-15.4,12.504-27.927,27.873-27.927h139.691h130.327h139.691
	c15.368,0,27.873,12.527,27.873,27.927V493.382z"/>
<path style="fill:#334F55;" d="M321.164,242.036c10.268,0,18.618-8.354,18.618-18.618c0-10.264-8.35-18.618-18.618-18.618
	c-10.268,0-18.618,8.354-18.618,18.618C302.545,233.682,310.895,242.036,321.164,242.036z"/>
<g>
</g>
<g>
</g>
<g>
</g>
<g>
</g>
<g>
</g>
<g>
</g>
<g>
</g>
<g>
</g>
<g>
</g>
<g>
</g>
<g>
</g>
<g>
</g>
<g>
</g>
<g>
</g>
<g>
</g>
</svg>
