<?xml version="1.0" encoding="iso-8859-1"?>
<!-- Generator: Adobe Illustrator 19.0.0, SVG Export Plug-In . SVG Version: 6.00 Build 0)  -->
<svg version="1.1" id="Layer_1" xmlns="http://www.w3.org/2000/svg" xmlns:xlink="http://www.w3.org/1999/xlink" x="0px" y="0px"
	 viewBox="0 0 512 512" style="enable-background:new 0 0 512 512;" xml:space="preserve">
<path style="fill:#334F55;" d="M432.319,410.073c-3.34-0.921-62.829-17.235-119.945-25.611
	c44.859-21.223,76.039-66.786,76.039-119.605v-0.838c20.121-3.691,35.31-19.737,35.31-38.921s-15.19-35.23-35.31-38.921V167.72
	c4.875,0,8.828-3.948,8.828-8.828c0-3.048-0.266-6.028-0.457-9.028C460.656,147.752,512,95.272,512,30.892
	c0-8.026-0.802-16.043-2.384-23.828c-0.754-3.707-3.789-6.526-7.543-7c-3.711-0.422-7.392,1.5-9.047,4.905
	c-18.384,37.828-63.116,72.698-133.595,57.026c-0.325-0.07-0.633,0.019-0.956-0.015C332.712,34.753,296.353,17.651,256,17.651
	c-40.354,0-76.712,17.102-102.475,44.331c-0.323,0.033-0.631-0.055-0.956,0.014C82.099,77.685,37.358,42.806,18.974,4.97
	c-1.655-3.414-5.328-5.336-9.047-4.905c-3.754,0.474-6.789,3.293-7.543,7C0.802,14.849,0,22.866,0,30.892
	c0,64.38,51.344,116.86,115.216,118.972c-0.191,3-0.457,5.98-0.457,9.028c0,4.879,3.953,8.828,8.828,8.828v18.458
	c-20.121,3.691-35.31,19.736-35.31,38.921s15.19,35.23,35.31,38.921v0.838c0,52.817,31.178,98.378,76.035,119.602
	c-57.061,8.364-116.418,24.643-119.578,25.518c-34.401,8.466-62.388,44.31-62.388,79.905v13.284c0,4.879,3.953,8.828,8.828,8.828
	h97.103h17.655h229.517h17.655h97.103c4.875,0,8.828-3.948,8.828-8.828v-13.284C494.345,454.478,466.431,418.651,432.319,410.073z"
	/>
<path style="fill:#EAE8D2;" d="M141.241,264.858v-0.034v-17.655V203.03v-17.655V167.72h229.517v17.655v17.655v44.138v17.655v0.034
	c0,63.259-51.479,114.724-114.759,114.724S141.241,328.116,141.241,264.858z"/>
<g>
	<rect x="229.517" y="326.625" style="fill:#334F55;" width="52.966" height="17.655"/>
	<rect x="203.034" y="300.143" style="fill:#334F55;" width="105.931" height="17.655"/>
</g>
<path style="fill:#EAE8D2;" d="M406.069,225.099c0,9.58-7.402,17.668-17.655,20.714v-41.428
	C398.667,207.431,406.069,215.519,406.069,225.099z"/>
<path style="fill:#E6D764;" d="M494.216,36.056c-2.667,52.979-46.158,95.309-99.565,96.264
	c-3.469-18.129-10.424-35.004-20.123-49.971C430.334,88.794,470.43,66.129,494.216,36.056z"/>
<path style="fill:#83A6E2;" d="M256,35.306c65.177,0,118.728,50.716,123.276,114.759H132.724
	C137.272,86.022,190.823,35.306,256,35.306z"/>
<path style="fill:#E6D764;" d="M17.784,36.056c23.785,30.08,63.873,52.766,119.683,46.302c-9.696,14.965-16.65,31.837-20.118,49.962
	C63.942,131.365,20.452,89.034,17.784,36.056z"/>
<path style="fill:#EAE8D2;" d="M105.931,225.099c0-9.58,7.402-17.668,17.655-20.714v41.428
	C113.333,242.767,105.931,234.679,105.931,225.099z"/>
<g>
	<path style="fill:#83A6E2;" d="M141.993,494.34c6.369-39.667,55.04-70.621,114.007-70.621s107.637,30.954,114.007,70.621H141.993z"
		/>
	<path style="fill:#83A6E2;" d="M476.69,494.34h-88.886c-6.109-49.416-62.854-88.276-131.804-88.276s-125.694,38.86-131.804,88.276
		H35.31v-4.457c0-27.491,22.418-56.233,49.194-62.828c1.082-0.302,108.664-29.819,171.496-29.819
		c62.797,0,170.539,29.552,171.815,29.905c26.953,6.776,48.875,34.922,48.875,62.741V494.34z"/>
</g>
<g>
	<path style="fill:#334F55;" d="M176.552,220.685v17.655h17.655c0,9.733,7.918,17.655,17.655,17.655
		c9.737,0,17.655-7.922,17.655-17.655h52.966c0,9.733,7.918,17.655,17.655,17.655s17.655-7.922,17.655-17.655h17.655v-17.655
		H176.552z"/>
	<rect x="211.862" y="105.927" style="fill:#334F55;" width="17.655" height="26.483"/>
	<rect x="273.655" y="105.927" style="fill:#334F55;" width="17.655" height="26.483"/>
	<rect x="211.862" y="61.789" style="fill:#334F55;" width="17.655" height="26.483"/>
	<rect x="273.655" y="61.789" style="fill:#334F55;" width="17.655" height="26.483"/>
</g>
<g>
</g>
<g>
</g>
<g>
</g>
<g>
</g>
<g>
</g>
<g>
</g>
<g>
</g>
<g>
</g>
<g>
</g>
<g>
</g>
<g>
</g>
<g>
</g>
<g>
</g>
<g>
</g>
<g>
</g>
</svg>
