<?xml version="1.0" encoding="iso-8859-1"?>
<!-- Generator: Adobe Illustrator 19.0.0, SVG Export Plug-In . SVG Version: 6.00 Build 0)  -->
<svg version="1.1" id="Layer_1" xmlns="http://www.w3.org/2000/svg" xmlns:xlink="http://www.w3.org/1999/xlink" x="0px" y="0px"
	 viewBox="0 0 512 512" style="enable-background:new 0 0 512 512;" xml:space="preserve">
<path style="fill:#334F55;" d="M477.943,384.25l-20.283-87.91c-2.647-11.47-9.344-20.901-18.113-27.548V121.84
	c0-56.528-47.689-102.519-106.302-102.519h-28.943V9.66c0-5.335-4.321-9.66-9.66-9.66h-77.283c-5.34,0-9.66,4.325-9.66,9.66v9.66
	h-28.943c-58.613,0-106.302,45.991-106.302,102.519v146.969c-8.77,6.656-15.471,16.09-18.113,27.531v0.005L34.057,384.25
	c-0.764,3.311,0.274,6.778,2.717,9.132c2.462,2.363,5.972,3.25,9.236,2.359c0.533-0.144,40.986-11.101,75.125-16.295l38.686,125.733
	c0.069,0.227,0.221,0.401,0.305,0.618c0.11,0.285,0.151,0.586,0.29,0.863c0.13,0.258,0.333,0.456,0.482,0.699
	c0.215,0.348,0.431,0.678,0.686,0.994c0.36,0.446,0.76,0.832,1.187,1.205c0.29,0.252,0.56,0.509,0.878,0.726
	c0.517,0.351,1.077,0.611,1.652,0.857c0.301,0.129,0.574,0.295,0.889,0.393c0.918,0.287,1.875,0.465,2.868,0.465h48.302h19.321h9.66
	h19.321h9.66h19.321h48.302h9.66c4.245,0,7.991-2.764,9.236-6.821l38.225-124.232c31.797,5.548,65.441,14.663,65.926,14.794
	c3.255,0.882,6.774-0.005,9.236-2.359C477.67,391.028,478.707,387.561,477.943,384.25z"/>
<path style="fill:#D8D8D8;" d="M333.245,38.642c47.962,0,86.981,37.321,86.981,83.198v137.98c-6.649-1.428-13.665-1.606-20.736-0.06
	c-0.626,0.151-47.045,11.386-95.189,17.112V38.642H333.245z"/>
<path style="fill:#E65F58;" d="M284.981,299.472h9.66c2.66,0,5.064-1.078,6.81-2.815c30.555-3.35,60.548-8.992,80.133-13.103v25.578
	c0,10.656-8.651,19.321-19.292,19.321h-77.311V299.472z"/>
<path style="fill:#EAEAEA;" d="M284.981,19.321v19.321v240.163c-9.885,0.816-19.607,1.338-28.745,1.347h-0.473
	c-9.137-0.008-18.86-0.531-28.745-1.347V38.642V19.321H284.981z"/>
<path style="fill:#E65F58;" d="M130.415,283.552c19.636,4.121,49.61,9.757,80.131,13.104c1.746,1.738,4.151,2.816,6.812,2.816h9.66
	v28.981h-77.311c-10.641,0-19.292-8.665-19.292-19.321C130.415,309.132,130.415,283.552,130.415,283.552z"/>
<g>
	<path style="fill:#D8D8D8;" d="M91.774,121.84c0-45.877,39.019-83.198,86.981-83.198h28.943v238.23
		c-48.158-5.73-94.631-16.976-95.453-17.173c-6.973-1.498-13.9-1.314-20.472,0.104C91.774,259.802,91.774,121.84,91.774,121.84z"/>
	<path style="fill:#D8D8D8;" d="M219.321,419.222l-46.611,62.149l-32.058-104.209c3.209-0.235,6.301-0.402,9.084-0.402
		c15.245,0,31.406,8.811,48.509,18.141c9.871,5.387,19.932,10.818,30.232,14.757C225.185,412.366,222.095,415.521,219.321,419.222z"
		/>
</g>
<g>
	<polygon style="fill:#EAEAEA;" points="188.377,492.679 217.358,454.037 217.358,492.679 	"/>
	<path style="fill:#EAEAEA;" d="M236.679,492.679v-63.936c2.932-3.314,6.186-5.778,9.66-7.349v71.285H236.679z"/>
	<path style="fill:#EAEAEA;" d="M265.66,492.679v-71.285c3.476,1.572,6.731,4.035,9.66,7.348v63.937H265.66z"/>
	<polygon style="fill:#EAEAEA;" points="294.642,492.679 294.642,454.037 323.623,492.679 	"/>
</g>
<path style="fill:#D8D8D8;" d="M346.141,490.505l-53.462-71.283c-2.774-3.7-5.864-6.856-9.157-9.564
	c10.3-3.939,20.361-9.37,30.233-14.757c17.104-9.33,33.264-18.141,48.509-18.141c5.373,0,11.705,0.514,18.463,1.317L346.141,490.505
	z"/>
<path style="fill:#EAEAEA;" d="M362.264,357.439c-20.179,0-39.283,10.42-57.755,20.5c-17.078,9.316-33.215,18.111-48.441,18.137
	h-0.137c-15.226-0.026-31.363-8.821-48.441-18.137c-18.472-10.08-37.575-20.5-57.755-20.5c-26.292,0-70.038,9.892-93.274,15.656
	l16.708-72.41v0.005c2.209-9.592,9.04-17.011,17.564-20.538h1.039v-0.38c5.041-1.868,10.601-2.439,16.151-1.248
	c0.326,0.08,1.547,0.373,3.17,0.755v29.853c0,21.307,17.321,38.642,38.613,38.642h86.972c5.34,0,9.66-4.325,9.66-9.66v-38.642h9.415
	c0.081,0,0.166,0.005,0.246,0.005c0.08,0,0.165-0.005,0.246-0.005h9.415v38.642c0,5.335,4.321,9.66,9.66,9.66h86.972
	c21.292,0,38.613-17.335,38.613-38.642v-29.854c1.513-0.356,2.657-0.63,2.953-0.703c5.663-1.237,11.29-0.691,16.368,1.172v0.403
	h1.083c8.533,3.517,15.306,10.929,17.521,20.533l16.708,72.41C432.302,367.33,388.557,357.439,362.264,357.439z"/>
<g>
</g>
<g>
</g>
<g>
</g>
<g>
</g>
<g>
</g>
<g>
</g>
<g>
</g>
<g>
</g>
<g>
</g>
<g>
</g>
<g>
</g>
<g>
</g>
<g>
</g>
<g>
</g>
<g>
</g>
</svg>
