<?xml version="1.0" encoding="iso-8859-1"?>
<!-- Generator: Adobe Illustrator 19.0.0, SVG Export Plug-In . SVG Version: 6.00 Build 0)  -->
<svg version="1.1" id="Layer_1" xmlns="http://www.w3.org/2000/svg" xmlns:xlink="http://www.w3.org/1999/xlink" x="0px" y="0px"
	 viewBox="0 0 512 512" style="enable-background:new 0 0 512 512;" xml:space="preserve">
<path style="fill:#334F55;" d="M460.854,418.909h-37.291H358.4h-27.927v-39.981c38.531-18.996,65.164-58.553,65.164-104.31v-5.502
	c21.218-3.893,37.236-20.813,37.236-41.044s-16.018-37.151-37.236-41.044v-10.156h9.309c5.141,0,9.309-4.164,9.309-9.309v-46.545
	V88.436C414.255,39.673,374.618,0,325.9,0h-32.664h-74.473H186.1c-48.718,0-88.354,39.673-88.354,88.436v32.582v46.545
	c0,5.145,4.168,9.309,9.309,9.309h9.309v10.156c-21.218,3.893-37.236,20.813-37.236,41.044s16.018,37.151,37.236,41.044v5.502
	c0,45.757,26.633,85.314,65.164,104.31v39.981H153.6H88.436H51.146c-25.637,0-46.491,20.882-46.491,46.545v37.236
	c0,5.145,4.168,9.309,9.309,9.309h74.473H153.6h204.8h65.164h74.473c5.141,0,9.309-4.164,9.309-9.309v-37.236
	C507.345,439.791,486.491,418.909,460.854,418.909z"/>
<path style="fill:#EAE8D2;" d="M134.982,274.618v-4.655v-18.618V204.8v-18.618v-9.309h242.036v9.309V204.8v46.545v18.618v4.655
	c0,53.9-43.891,97.745-97.836,97.745h-46.363C178.873,372.364,134.982,328.518,134.982,274.618z"/>
<g>
	<rect x="209.455" y="297.891" style="fill:#334F55;" width="93.091" height="18.618"/>
	<path style="fill:#334F55;" d="M237.382,204.8h-74.473v18.618c0,10.264,8.35,18.618,18.618,18.618s18.618-8.354,18.618-18.618
		h37.236V204.8z"/>
</g>
<polygon style="fill:#F1854C;" points="190.836,437.527 321.164,437.527 349.091,437.527 349.091,493.382 162.909,493.382 
	162.909,437.527 "/>
<path style="fill:#EAE8D2;" d="M414.255,228.073c0,10.102-7.806,18.632-18.618,21.844v-43.688
	C406.449,209.441,414.255,217.971,414.255,228.073z"/>
<g>
	<polygon style="fill:#E6D764;" points="395.636,158.255 386.327,158.255 125.673,158.255 116.364,158.255 116.364,130.327 
		218.764,130.327 293.236,130.327 395.636,130.327 	"/>
	<path style="fill:#E6D764;" d="M395.636,88.436v23.273h-93.091V18.618H325.9C364.355,18.618,395.636,49.936,395.636,88.436z"/>
	<rect x="228.073" y="18.618" style="fill:#E6D764;" width="55.855" height="93.091"/>
	<path style="fill:#E6D764;" d="M186.1,18.618h23.355v93.091h-93.091V88.436C116.364,49.936,147.645,18.618,186.1,18.618z"/>
</g>
<g>
	<path style="fill:#EAE8D2;" d="M97.745,228.073c0-10.102,7.806-18.632,18.618-21.844v43.688
		C105.551,246.705,97.745,238.175,97.745,228.073z"/>
	<path style="fill:#EAE8D2;" d="M200.145,386.236c10.379,3.039,21.323,4.746,32.673,4.746h46.364
		c11.349,0,22.294-1.707,32.673-4.746v32.673H200.145V386.236z"/>
</g>
<path style="fill:#F1854C;" d="M23.273,465.455c0-15.4,12.504-27.927,27.873-27.927h27.982v55.855H23.273V465.455z"/>
<g>
	<rect x="97.745" y="437.527" style="fill:#E4AD4B;" width="46.545" height="55.855"/>
	<rect x="367.709" y="437.527" style="fill:#E4AD4B;" width="46.545" height="55.855"/>
</g>
<path style="fill:#F1854C;" d="M488.727,493.382h-55.855v-55.855h27.982c15.368,0,27.873,12.527,27.873,27.927V493.382z"/>
<path style="fill:#334F55;" d="M330.473,242.036c10.268,0,18.618-8.354,18.618-18.618V204.8h-74.473v18.618h37.236
	C311.855,233.682,320.205,242.036,330.473,242.036z"/>
<g>
</g>
<g>
</g>
<g>
</g>
<g>
</g>
<g>
</g>
<g>
</g>
<g>
</g>
<g>
</g>
<g>
</g>
<g>
</g>
<g>
</g>
<g>
</g>
<g>
</g>
<g>
</g>
<g>
</g>
</svg>
